<?xml version="1.0" encoding="UTF-8" standalone="no"?>
<svg width="654px" height="639px" viewBox="0 0 654 639" version="1.1" xmlns="http://www.w3.org/2000/svg" xmlns:xlink="http://www.w3.org/1999/xlink">
    <!-- Generator: Sketch 39.1 (31720) - http://www.bohemiancoding.com/sketch -->
    <title>scheme2-final</title>
    <desc>Created with Sketch.</desc>
    <g id="Page-1" stroke="none" stroke-width="1" fill="none" fill-rule="evenodd">
        <path d="M186,310 C165.782,310 149.333333,326.448667 149.333333,346.666667 C149.333333,362.14 155.401667,373.682667 168.434833,382.992333 C168.497167,383.036333 168.588833,383.091333 168.656667,383.128 C168.752,383.179333 170.724667,384.281167 171.219667,387.372167 C169.149833,388.162333 167.666667,390.155167 167.666667,392.5 C167.666667,393.908 168.198333,395.193167 169.071,396.166667 C168.198333,397.140167 167.666667,398.425333 167.666667,399.833333 C167.666667,401.241333 168.198333,402.5265 169.071,403.5 C168.198333,404.4735 167.666667,405.758667 167.666667,407.166667 C167.666667,410.199 170.134333,412.666667 173.166667,412.666667 C174.178667,412.666667 175,411.845333 175,410.833333 C175,409.821333 174.178667,409 173.166667,409 C172.1565,409 171.333333,408.176833 171.333333,407.166667 C171.333333,406.1565 172.1565,405.333333 173.166667,405.333333 L191.5,405.333333 C192.513833,405.333333 193.333333,404.512 193.333333,403.5 C193.333333,402.488 192.513833,401.666667 191.5,401.666667 L173.166667,401.666667 C172.1565,401.666667 171.333333,400.8435 171.333333,399.833333 C171.333333,398.823167 172.1565,398 173.166667,398 L191.5,398 C192.513833,398 193.333333,397.178667 193.333333,396.166667 C193.333333,395.154667 192.513833,394.333333 191.5,394.333333 L173.166667,394.333333 C172.1565,394.333333 171.333333,393.510167 171.333333,392.5 C171.333333,391.489833 172.1565,390.666667 173.166667,390.666667 L191.5,390.666667 C192.513833,390.666667 193.333333,389.845333 193.333333,388.833333 C193.333333,387.821333 192.513833,387 191.5,387 L174.875333,387 C174.226333,382.383667 171.234333,380.3835 170.4845,379.950833 C158.391833,371.284667 153,361.016167 153,346.666667 C153,328.470833 167.804167,313.666667 186,313.666667 C204.195833,313.666667 219,328.470833 219,346.666667 C219,361.016167 213.608167,371.284667 201.5155,379.950833 C200.672167,380.436667 197,382.9025 197,388.833333 C197,389.845333 197.8195,390.666667 198.833333,390.666667 C199.845333,390.666667 200.666667,391.489833 200.666667,392.5 C200.666667,393.510167 199.845333,394.333333 198.833333,394.333333 C197.8195,394.333333 197,395.154667 197,396.166667 C197,397.178667 197.8195,398 198.833333,398 C199.845333,398 200.666667,398.823167 200.666667,399.833333 C200.666667,400.8435 199.845333,401.666667 198.833333,401.666667 C197.8195,401.666667 197,402.488 197,403.5 C197,404.512 197.8195,405.333333 198.833333,405.333333 C199.845333,405.333333 200.666667,406.1565 200.666667,407.166667 C200.666667,408.211667 199.878333,409 198.833333,409 L180.5,409 C179.488,409 178.666667,409.821333 178.666667,410.833333 L178.666667,414.5 C178.666667,417.532333 181.134333,420 184.166667,420 L187.833333,420 C190.865667,420 193.333333,417.532333 193.333333,414.5 L193.333333,412.666667 L198.833333,412.666667 C201.918833,412.666667 204.333333,410.250333 204.333333,407.166667 C204.333333,405.758667 203.801667,404.4735 202.929,403.5 C203.801667,402.5265 204.333333,401.241333 204.333333,399.833333 C204.333333,398.425333 203.801667,397.140167 202.929,396.166667 C203.801667,395.193167 204.333333,393.908 204.333333,392.5 C204.333333,390.155167 202.850167,388.162333 200.7785,387.372167 C201.2735,384.281167 203.244333,383.181167 203.3195,383.139 C203.405667,383.096833 203.488167,383.047333 203.565167,382.992333 C216.5965,373.682667 222.666667,362.14 222.666667,346.666667 C222.666667,326.448667 206.218,310 186,310 L186,310 L186,310 Z M189.666667,414.5 C189.666667,415.510167 188.845333,416.333333 187.833333,416.333333 L184.166667,416.333333 C183.1565,416.333333 182.333333,415.510167 182.333333,414.5 L182.333333,412.666667 L189.666667,412.666667 L189.666667,414.5 L189.666667,414.5 L189.666667,414.5 Z M191.5,381.5 C192.513833,381.5 193.333333,380.678667 193.333333,379.666667 L193.333333,354 L198.833333,354 C203.887833,354 208,349.887833 208,344.833333 C208,339.778833 203.887833,335.666667 198.833333,335.666667 C193.778833,335.666667 189.666667,339.778833 189.666667,344.833333 L189.666667,350.333333 L182.333333,350.333333 L182.333333,344.833333 C182.333333,339.778833 178.221167,335.666667 173.166667,335.666667 C168.112167,335.666667 164,339.778833 164,344.833333 C164,349.887833 168.112167,354 173.166667,354 L178.666667,354 L178.666667,379.666667 C178.666667,380.678667 179.488,381.5 180.5,381.5 C181.512,381.5 182.333333,380.678667 182.333333,379.666667 L182.333333,354 L189.666667,354 L189.666667,379.666667 C189.666667,380.678667 190.486167,381.5 191.5,381.5 L191.5,381.5 L191.5,381.5 Z M193.333333,344.833333 C193.333333,341.801 195.801,339.333333 198.833333,339.333333 C201.865667,339.333333 204.333333,341.801 204.333333,344.833333 C204.333333,347.865667 201.865667,350.333333 198.833333,350.333333 L193.333333,350.333333 L193.333333,344.833333 L193.333333,344.833333 L193.333333,344.833333 Z M178.666667,350.333333 L173.166667,350.333333 C170.134333,350.333333 167.666667,347.865667 167.666667,344.833333 C167.666667,341.801 170.134333,339.333333 173.166667,339.333333 C176.199,339.333333 178.666667,341.801 178.666667,344.833333 L178.666667,350.333333 L178.666667,350.333333 L178.666667,350.333333 Z" id="light-bulb1" fill="#000000" transform="translate(-9.000000, 0.000000)"></path>
        <path d="M186,156 C165.782,156 149.333333,172.448667 149.333333,192.666667 C149.333333,208.14 155.401667,219.682667 168.434833,228.992333 C168.497167,229.036333 168.588833,229.091333 168.656667,229.128 C168.752,229.179333 170.724667,230.281167 171.219667,233.372167 C169.149833,234.162333 167.666667,236.155167 167.666667,238.5 C167.666667,239.908 168.198333,241.193167 169.071,242.166667 C168.198333,243.140167 167.666667,244.425333 167.666667,245.833333 C167.666667,247.241333 168.198333,248.5265 169.071,249.5 C168.198333,250.4735 167.666667,251.758667 167.666667,253.166667 C167.666667,256.199 170.134333,258.666667 173.166667,258.666667 C174.178667,258.666667 175,257.845333 175,256.833333 C175,255.821333 174.178667,255 173.166667,255 C172.1565,255 171.333333,254.176833 171.333333,253.166667 C171.333333,252.1565 172.1565,251.333333 173.166667,251.333333 L191.5,251.333333 C192.513833,251.333333 193.333333,250.512 193.333333,249.5 C193.333333,248.488 192.513833,247.666667 191.5,247.666667 L173.166667,247.666667 C172.1565,247.666667 171.333333,246.8435 171.333333,245.833333 C171.333333,244.823167 172.1565,244 173.166667,244 L191.5,244 C192.513833,244 193.333333,243.178667 193.333333,242.166667 C193.333333,241.154667 192.513833,240.333333 191.5,240.333333 L173.166667,240.333333 C172.1565,240.333333 171.333333,239.510167 171.333333,238.5 C171.333333,237.489833 172.1565,236.666667 173.166667,236.666667 L191.5,236.666667 C192.513833,236.666667 193.333333,235.845333 193.333333,234.833333 C193.333333,233.821333 192.513833,233 191.5,233 L174.875333,233 C174.226333,228.383667 171.234333,226.3835 170.4845,225.950833 C158.391833,217.284667 153,207.016167 153,192.666667 C153,174.470833 167.804167,159.666667 186,159.666667 C204.195833,159.666667 219,174.470833 219,192.666667 C219,207.016167 213.608167,217.284667 201.5155,225.950833 C200.672167,226.436667 197,228.9025 197,234.833333 C197,235.845333 197.8195,236.666667 198.833333,236.666667 C199.845333,236.666667 200.666667,237.489833 200.666667,238.5 C200.666667,239.510167 199.845333,240.333333 198.833333,240.333333 C197.8195,240.333333 197,241.154667 197,242.166667 C197,243.178667 197.8195,244 198.833333,244 C199.845333,244 200.666667,244.823167 200.666667,245.833333 C200.666667,246.8435 199.845333,247.666667 198.833333,247.666667 C197.8195,247.666667 197,248.488 197,249.5 C197,250.512 197.8195,251.333333 198.833333,251.333333 C199.845333,251.333333 200.666667,252.1565 200.666667,253.166667 C200.666667,254.211667 199.878333,255 198.833333,255 L180.5,255 C179.488,255 178.666667,255.821333 178.666667,256.833333 L178.666667,260.5 C178.666667,263.532333 181.134333,266 184.166667,266 L187.833333,266 C190.865667,266 193.333333,263.532333 193.333333,260.5 L193.333333,258.666667 L198.833333,258.666667 C201.918833,258.666667 204.333333,256.250333 204.333333,253.166667 C204.333333,251.758667 203.801667,250.4735 202.929,249.5 C203.801667,248.5265 204.333333,247.241333 204.333333,245.833333 C204.333333,244.425333 203.801667,243.140167 202.929,242.166667 C203.801667,241.193167 204.333333,239.908 204.333333,238.5 C204.333333,236.155167 202.850167,234.162333 200.7785,233.372167 C201.2735,230.281167 203.244333,229.181167 203.3195,229.139 C203.405667,229.096833 203.488167,229.047333 203.565167,228.992333 C216.5965,219.682667 222.666667,208.14 222.666667,192.666667 C222.666667,172.448667 206.218,156 186,156 L186,156 L186,156 Z M189.666667,260.5 C189.666667,261.510167 188.845333,262.333333 187.833333,262.333333 L184.166667,262.333333 C183.1565,262.333333 182.333333,261.510167 182.333333,260.5 L182.333333,258.666667 L189.666667,258.666667 L189.666667,260.5 L189.666667,260.5 L189.666667,260.5 Z M191.5,227.5 C192.513833,227.5 193.333333,226.678667 193.333333,225.666667 L193.333333,200 L198.833333,200 C203.887833,200 208,195.887833 208,190.833333 C208,185.778833 203.887833,181.666667 198.833333,181.666667 C193.778833,181.666667 189.666667,185.778833 189.666667,190.833333 L189.666667,196.333333 L182.333333,196.333333 L182.333333,190.833333 C182.333333,185.778833 178.221167,181.666667 173.166667,181.666667 C168.112167,181.666667 164,185.778833 164,190.833333 C164,195.887833 168.112167,200 173.166667,200 L178.666667,200 L178.666667,225.666667 C178.666667,226.678667 179.488,227.5 180.5,227.5 C181.512,227.5 182.333333,226.678667 182.333333,225.666667 L182.333333,200 L189.666667,200 L189.666667,225.666667 C189.666667,226.678667 190.486167,227.5 191.5,227.5 L191.5,227.5 L191.5,227.5 Z M193.333333,190.833333 C193.333333,187.801 195.801,185.333333 198.833333,185.333333 C201.865667,185.333333 204.333333,187.801 204.333333,190.833333 C204.333333,193.865667 201.865667,196.333333 198.833333,196.333333 L193.333333,196.333333 L193.333333,190.833333 L193.333333,190.833333 L193.333333,190.833333 Z M178.666667,196.333333 L173.166667,196.333333 C170.134333,196.333333 167.666667,193.865667 167.666667,190.833333 C167.666667,187.801 170.134333,185.333333 173.166667,185.333333 C176.199,185.333333 178.666667,187.801 178.666667,190.833333 L178.666667,196.333333 L178.666667,196.333333 L178.666667,196.333333 Z" id="light-bulb2" fill="#000000" transform="translate(-9.000000, 0.000000)"></path>
        <path d="M186,0 C165.782,0 149.333333,16.4486667 149.333333,36.6666667 C149.333333,52.14 155.401667,63.6826667 168.434833,72.9923333 C168.497167,73.0363333 168.588833,73.0913333 168.656667,73.128 C168.752,73.1793333 170.724667,74.2811667 171.219667,77.3721667 C169.149833,78.1623333 167.666667,80.1551667 167.666667,82.5 C167.666667,83.908 168.198333,85.1931667 169.071,86.1666667 C168.198333,87.1401667 167.666667,88.4253333 167.666667,89.8333333 C167.666667,91.2413333 168.198333,92.5265 169.071,93.5 C168.198333,94.4735 167.666667,95.7586667 167.666667,97.1666667 C167.666667,100.199 170.134333,102.666667 173.166667,102.666667 C174.178667,102.666667 175,101.845333 175,100.833333 C175,99.8213333 174.178667,99 173.166667,99 C172.1565,99 171.333333,98.1768333 171.333333,97.1666667 C171.333333,96.1565 172.1565,95.3333333 173.166667,95.3333333 L191.5,95.3333333 C192.513833,95.3333333 193.333333,94.512 193.333333,93.5 C193.333333,92.488 192.513833,91.6666667 191.5,91.6666667 L173.166667,91.6666667 C172.1565,91.6666667 171.333333,90.8435 171.333333,89.8333333 C171.333333,88.8231667 172.1565,88 173.166667,88 L191.5,88 C192.513833,88 193.333333,87.1786667 193.333333,86.1666667 C193.333333,85.1546667 192.513833,84.3333333 191.5,84.3333333 L173.166667,84.3333333 C172.1565,84.3333333 171.333333,83.5101667 171.333333,82.5 C171.333333,81.4898333 172.1565,80.6666667 173.166667,80.6666667 L191.5,80.6666667 C192.513833,80.6666667 193.333333,79.8453333 193.333333,78.8333333 C193.333333,77.8213333 192.513833,77 191.5,77 L174.875333,77 C174.226333,72.3836667 171.234333,70.3835 170.4845,69.9508333 C158.391833,61.2846667 153,51.0161667 153,36.6666667 C153,18.4708333 167.804167,3.66666667 186,3.66666667 C204.195833,3.66666667 219,18.4708333 219,36.6666667 C219,51.0161667 213.608167,61.2846667 201.5155,69.9508333 C200.672167,70.4366667 197,72.9025 197,78.8333333 C197,79.8453333 197.8195,80.6666667 198.833333,80.6666667 C199.845333,80.6666667 200.666667,81.4898333 200.666667,82.5 C200.666667,83.5101667 199.845333,84.3333333 198.833333,84.3333333 C197.8195,84.3333333 197,85.1546667 197,86.1666667 C197,87.1786667 197.8195,88 198.833333,88 C199.845333,88 200.666667,88.8231667 200.666667,89.8333333 C200.666667,90.8435 199.845333,91.6666667 198.833333,91.6666667 C197.8195,91.6666667 197,92.488 197,93.5 C197,94.512 197.8195,95.3333333 198.833333,95.3333333 C199.845333,95.3333333 200.666667,96.1565 200.666667,97.1666667 C200.666667,98.2116667 199.878333,99 198.833333,99 L180.5,99 C179.488,99 178.666667,99.8213333 178.666667,100.833333 L178.666667,104.5 C178.666667,107.532333 181.134333,110 184.166667,110 L187.833333,110 C190.865667,110 193.333333,107.532333 193.333333,104.5 L193.333333,102.666667 L198.833333,102.666667 C201.918833,102.666667 204.333333,100.250333 204.333333,97.1666667 C204.333333,95.7586667 203.801667,94.4735 202.929,93.5 C203.801667,92.5265 204.333333,91.2413333 204.333333,89.8333333 C204.333333,88.4253333 203.801667,87.1401667 202.929,86.1666667 C203.801667,85.1931667 204.333333,83.908 204.333333,82.5 C204.333333,80.1551667 202.850167,78.1623333 200.7785,77.3721667 C201.2735,74.2811667 203.244333,73.1811667 203.3195,73.139 C203.405667,73.0968333 203.488167,73.0473333 203.565167,72.9923333 C216.5965,63.6826667 222.666667,52.14 222.666667,36.6666667 C222.666667,16.4486667 206.218,0 186,0 L186,0 L186,0 Z M189.666667,104.5 C189.666667,105.510167 188.845333,106.333333 187.833333,106.333333 L184.166667,106.333333 C183.1565,106.333333 182.333333,105.510167 182.333333,104.5 L182.333333,102.666667 L189.666667,102.666667 L189.666667,104.5 L189.666667,104.5 L189.666667,104.5 Z M191.5,71.5 C192.513833,71.5 193.333333,70.6786667 193.333333,69.6666667 L193.333333,44 L198.833333,44 C203.887833,44 208,39.8878333 208,34.8333333 C208,29.7788333 203.887833,25.6666667 198.833333,25.6666667 C193.778833,25.6666667 189.666667,29.7788333 189.666667,34.8333333 L189.666667,40.3333333 L182.333333,40.3333333 L182.333333,34.8333333 C182.333333,29.7788333 178.221167,25.6666667 173.166667,25.6666667 C168.112167,25.6666667 164,29.7788333 164,34.8333333 C164,39.8878333 168.112167,44 173.166667,44 L178.666667,44 L178.666667,69.6666667 C178.666667,70.6786667 179.488,71.5 180.5,71.5 C181.512,71.5 182.333333,70.6786667 182.333333,69.6666667 L182.333333,44 L189.666667,44 L189.666667,69.6666667 C189.666667,70.6786667 190.486167,71.5 191.5,71.5 L191.5,71.5 L191.5,71.5 Z M193.333333,34.8333333 C193.333333,31.801 195.801,29.3333333 198.833333,29.3333333 C201.865667,29.3333333 204.333333,31.801 204.333333,34.8333333 C204.333333,37.8656667 201.865667,40.3333333 198.833333,40.3333333 L193.333333,40.3333333 L193.333333,34.8333333 L193.333333,34.8333333 L193.333333,34.8333333 Z M178.666667,40.3333333 L173.166667,40.3333333 C170.134333,40.3333333 167.666667,37.8656667 167.666667,34.8333333 C167.666667,31.801 170.134333,29.3333333 173.166667,29.3333333 C176.199,29.3333333 178.666667,31.801 178.666667,34.8333333 L178.666667,40.3333333 L178.666667,40.3333333 L178.666667,40.3333333 Z" id="light-bulb3" fill="#000000" transform="translate(-9.000000, 0.000000)"></path>
        <path d="M626,255 C605.782,255 589.333333,271.448667 589.333333,291.666667 C589.333333,307.14 595.401667,318.682667 608.434833,327.992333 C608.497167,328.036333 608.588833,328.091333 608.656667,328.128 C608.752,328.179333 610.724667,329.281167 611.219667,332.372167 C609.149833,333.162333 607.666667,335.155167 607.666667,337.5 C607.666667,338.908 608.198333,340.193167 609.071,341.166667 C608.198333,342.140167 607.666667,343.425333 607.666667,344.833333 C607.666667,346.241333 608.198333,347.5265 609.071,348.5 C608.198333,349.4735 607.666667,350.758667 607.666667,352.166667 C607.666667,355.199 610.134333,357.666667 613.166667,357.666667 C614.178667,357.666667 615,356.845333 615,355.833333 C615,354.821333 614.178667,354 613.166667,354 C612.1565,354 611.333333,353.176833 611.333333,352.166667 C611.333333,351.1565 612.1565,350.333333 613.166667,350.333333 L631.5,350.333333 C632.513833,350.333333 633.333333,349.512 633.333333,348.5 C633.333333,347.488 632.513833,346.666667 631.5,346.666667 L613.166667,346.666667 C612.1565,346.666667 611.333333,345.8435 611.333333,344.833333 C611.333333,343.823167 612.1565,343 613.166667,343 L631.5,343 C632.513833,343 633.333333,342.178667 633.333333,341.166667 C633.333333,340.154667 632.513833,339.333333 631.5,339.333333 L613.166667,339.333333 C612.1565,339.333333 611.333333,338.510167 611.333333,337.5 C611.333333,336.489833 612.1565,335.666667 613.166667,335.666667 L631.5,335.666667 C632.513833,335.666667 633.333333,334.845333 633.333333,333.833333 C633.333333,332.821333 632.513833,332 631.5,332 L614.875333,332 C614.226333,327.383667 611.234333,325.3835 610.4845,324.950833 C598.391833,316.284667 593,306.016167 593,291.666667 C593,273.470833 607.804167,258.666667 626,258.666667 C644.195833,258.666667 659,273.470833 659,291.666667 C659,306.016167 653.608167,316.284667 641.5155,324.950833 C640.672167,325.436667 637,327.9025 637,333.833333 C637,334.845333 637.8195,335.666667 638.833333,335.666667 C639.845333,335.666667 640.666667,336.489833 640.666667,337.5 C640.666667,338.510167 639.845333,339.333333 638.833333,339.333333 C637.8195,339.333333 637,340.154667 637,341.166667 C637,342.178667 637.8195,343 638.833333,343 C639.845333,343 640.666667,343.823167 640.666667,344.833333 C640.666667,345.8435 639.845333,346.666667 638.833333,346.666667 C637.8195,346.666667 637,347.488 637,348.5 C637,349.512 637.8195,350.333333 638.833333,350.333333 C639.845333,350.333333 640.666667,351.1565 640.666667,352.166667 C640.666667,353.211667 639.878333,354 638.833333,354 L620.5,354 C619.488,354 618.666667,354.821333 618.666667,355.833333 L618.666667,359.5 C618.666667,362.532333 621.134333,365 624.166667,365 L627.833333,365 C630.865667,365 633.333333,362.532333 633.333333,359.5 L633.333333,357.666667 L638.833333,357.666667 C641.918833,357.666667 644.333333,355.250333 644.333333,352.166667 C644.333333,350.758667 643.801667,349.4735 642.929,348.5 C643.801667,347.5265 644.333333,346.241333 644.333333,344.833333 C644.333333,343.425333 643.801667,342.140167 642.929,341.166667 C643.801667,340.193167 644.333333,338.908 644.333333,337.5 C644.333333,335.155167 642.850167,333.162333 640.7785,332.372167 C641.2735,329.281167 643.244333,328.181167 643.3195,328.139 C643.405667,328.096833 643.488167,328.047333 643.565167,327.992333 C656.5965,318.682667 662.666667,307.14 662.666667,291.666667 C662.666667,271.448667 646.218,255 626,255 L626,255 L626,255 Z M629.666667,359.5 C629.666667,360.510167 628.845333,361.333333 627.833333,361.333333 L624.166667,361.333333 C623.1565,361.333333 622.333333,360.510167 622.333333,359.5 L622.333333,357.666667 L629.666667,357.666667 L629.666667,359.5 L629.666667,359.5 L629.666667,359.5 Z M631.5,326.5 C632.513833,326.5 633.333333,325.678667 633.333333,324.666667 L633.333333,299 L638.833333,299 C643.887833,299 648,294.887833 648,289.833333 C648,284.778833 643.887833,280.666667 638.833333,280.666667 C633.778833,280.666667 629.666667,284.778833 629.666667,289.833333 L629.666667,295.333333 L622.333333,295.333333 L622.333333,289.833333 C622.333333,284.778833 618.221167,280.666667 613.166667,280.666667 C608.112167,280.666667 604,284.778833 604,289.833333 C604,294.887833 608.112167,299 613.166667,299 L618.666667,299 L618.666667,324.666667 C618.666667,325.678667 619.488,326.5 620.5,326.5 C621.512,326.5 622.333333,325.678667 622.333333,324.666667 L622.333333,299 L629.666667,299 L629.666667,324.666667 C629.666667,325.678667 630.486167,326.5 631.5,326.5 L631.5,326.5 L631.5,326.5 Z M633.333333,289.833333 C633.333333,286.801 635.801,284.333333 638.833333,284.333333 C641.865667,284.333333 644.333333,286.801 644.333333,289.833333 C644.333333,292.865667 641.865667,295.333333 638.833333,295.333333 L633.333333,295.333333 L633.333333,289.833333 L633.333333,289.833333 L633.333333,289.833333 Z M618.666667,295.333333 L613.166667,295.333333 C610.134333,295.333333 607.666667,292.865667 607.666667,289.833333 C607.666667,286.801 610.134333,284.333333 613.166667,284.333333 C616.199,284.333333 618.666667,286.801 618.666667,289.833333 L618.666667,295.333333 L618.666667,295.333333 L618.666667,295.333333 Z" id="light-bulb4" fill="#000000" transform="translate(-9.000000, 0.000000)"></path>
        <path d="M463,381 C442.782,381 426.333333,397.448667 426.333333,417.666667 C426.333333,433.14 432.401667,444.682667 445.434833,453.992333 C445.497167,454.036333 445.588833,454.091333 445.656667,454.128 C445.752,454.179333 447.724667,455.281167 448.219667,458.372167 C446.149833,459.162333 444.666667,461.155167 444.666667,463.5 C444.666667,464.908 445.198333,466.193167 446.071,467.166667 C445.198333,468.140167 444.666667,469.425333 444.666667,470.833333 C444.666667,472.241333 445.198333,473.5265 446.071,474.5 C445.198333,475.4735 444.666667,476.758667 444.666667,478.166667 C444.666667,481.199 447.134333,483.666667 450.166667,483.666667 C451.178667,483.666667 452,482.845333 452,481.833333 C452,480.821333 451.178667,480 450.166667,480 C449.1565,480 448.333333,479.176833 448.333333,478.166667 C448.333333,477.1565 449.1565,476.333333 450.166667,476.333333 L468.5,476.333333 C469.513833,476.333333 470.333333,475.512 470.333333,474.5 C470.333333,473.488 469.513833,472.666667 468.5,472.666667 L450.166667,472.666667 C449.1565,472.666667 448.333333,471.8435 448.333333,470.833333 C448.333333,469.823167 449.1565,469 450.166667,469 L468.5,469 C469.513833,469 470.333333,468.178667 470.333333,467.166667 C470.333333,466.154667 469.513833,465.333333 468.5,465.333333 L450.166667,465.333333 C449.1565,465.333333 448.333333,464.510167 448.333333,463.5 C448.333333,462.489833 449.1565,461.666667 450.166667,461.666667 L468.5,461.666667 C469.513833,461.666667 470.333333,460.845333 470.333333,459.833333 C470.333333,458.821333 469.513833,458 468.5,458 L451.875333,458 C451.226333,453.383667 448.234333,451.3835 447.4845,450.950833 C435.391833,442.284667 430,432.016167 430,417.666667 C430,399.470833 444.804167,384.666667 463,384.666667 C481.195833,384.666667 496,399.470833 496,417.666667 C496,432.016167 490.608167,442.284667 478.5155,450.950833 C477.672167,451.436667 474,453.9025 474,459.833333 C474,460.845333 474.8195,461.666667 475.833333,461.666667 C476.845333,461.666667 477.666667,462.489833 477.666667,463.5 C477.666667,464.510167 476.845333,465.333333 475.833333,465.333333 C474.8195,465.333333 474,466.154667 474,467.166667 C474,468.178667 474.8195,469 475.833333,469 C476.845333,469 477.666667,469.823167 477.666667,470.833333 C477.666667,471.8435 476.845333,472.666667 475.833333,472.666667 C474.8195,472.666667 474,473.488 474,474.5 C474,475.512 474.8195,476.333333 475.833333,476.333333 C476.845333,476.333333 477.666667,477.1565 477.666667,478.166667 C477.666667,479.211667 476.878333,480 475.833333,480 L457.5,480 C456.488,480 455.666667,480.821333 455.666667,481.833333 L455.666667,485.5 C455.666667,488.532333 458.134333,491 461.166667,491 L464.833333,491 C467.865667,491 470.333333,488.532333 470.333333,485.5 L470.333333,483.666667 L475.833333,483.666667 C478.918833,483.666667 481.333333,481.250333 481.333333,478.166667 C481.333333,476.758667 480.801667,475.4735 479.929,474.5 C480.801667,473.5265 481.333333,472.241333 481.333333,470.833333 C481.333333,469.425333 480.801667,468.140167 479.929,467.166667 C480.801667,466.193167 481.333333,464.908 481.333333,463.5 C481.333333,461.155167 479.850167,459.162333 477.7785,458.372167 C478.2735,455.281167 480.244333,454.181167 480.3195,454.139 C480.405667,454.096833 480.488167,454.047333 480.565167,453.992333 C493.5965,444.682667 499.666667,433.14 499.666667,417.666667 C499.666667,397.448667 483.218,381 463,381 L463,381 L463,381 Z M466.666667,485.5 C466.666667,486.510167 465.845333,487.333333 464.833333,487.333333 L461.166667,487.333333 C460.1565,487.333333 459.333333,486.510167 459.333333,485.5 L459.333333,483.666667 L466.666667,483.666667 L466.666667,485.5 L466.666667,485.5 L466.666667,485.5 Z M468.5,452.5 C469.513833,452.5 470.333333,451.678667 470.333333,450.666667 L470.333333,425 L475.833333,425 C480.887833,425 485,420.887833 485,415.833333 C485,410.778833 480.887833,406.666667 475.833333,406.666667 C470.778833,406.666667 466.666667,410.778833 466.666667,415.833333 L466.666667,421.333333 L459.333333,421.333333 L459.333333,415.833333 C459.333333,410.778833 455.221167,406.666667 450.166667,406.666667 C445.112167,406.666667 441,410.778833 441,415.833333 C441,420.887833 445.112167,425 450.166667,425 L455.666667,425 L455.666667,450.666667 C455.666667,451.678667 456.488,452.5 457.5,452.5 C458.512,452.5 459.333333,451.678667 459.333333,450.666667 L459.333333,425 L466.666667,425 L466.666667,450.666667 C466.666667,451.678667 467.486167,452.5 468.5,452.5 L468.5,452.5 L468.5,452.5 Z M470.333333,415.833333 C470.333333,412.801 472.801,410.333333 475.833333,410.333333 C478.865667,410.333333 481.333333,412.801 481.333333,415.833333 C481.333333,418.865667 478.865667,421.333333 475.833333,421.333333 L470.333333,421.333333 L470.333333,415.833333 L470.333333,415.833333 L470.333333,415.833333 Z M455.666667,421.333333 L450.166667,421.333333 C447.134333,421.333333 444.666667,418.865667 444.666667,415.833333 C444.666667,412.801 447.134333,410.333333 450.166667,410.333333 C453.199,410.333333 455.666667,412.801 455.666667,415.833333 L455.666667,421.333333 L455.666667,421.333333 L455.666667,421.333333 Z" id="light-bulb5" fill="#000000" transform="translate(-9.000000, 0.000000)"></path>
        <g id="scheme2-final" transform="translate(-9.000000, 0.000000)">
            <g id="Group-16">
                <g id="Group-14">
                    <g id="scheme2">
                        <path d="M332.95763,79 L628,79" id="Path-2" stroke="#000000" stroke-width="4"></path>
                        <path d="M200,389 L333.003754,389" id="Path-2" stroke="#000000" stroke-width="4"></path>
                        <path d="M200,235 L333.003754,235" id="Path-2" stroke="#000000" stroke-width="4"></path>
                        <path d="M332,276 L465.003754,276" id="Path-2" stroke="#000000" stroke-width="4"></path>
                        <path d="M463,344.985297 L463,384" id="Path-2" stroke="#000000" stroke-width="4"></path>
                        <path d="M463,278 L463,312" id="Path-2" stroke="#000000" stroke-width="4"></path>
                        <path d="M463,488 L463,511" id="Path-2" stroke="#000000" stroke-width="4"></path>
                        <path d="M332,509 L465.003754,509" id="Path-2" stroke="#000000" stroke-width="4"></path>
                        <path d="M38,79 L63,79" id="Path-2" stroke="#000000" stroke-width="4"></path>
                        <path d="M119,79 L173,79" id="Path-2" stroke="#000000" stroke-width="4"></path>
                        <path d="M200,79 L333.003754,79" id="Path-2" stroke="#000000" stroke-width="4"></path>
                        <path d="M220.995444,602 L628,602" id="Path-2" stroke="#000000" stroke-width="4"></path>
                        <path d="M38,602 L156,602" id="Path-2" stroke="#000000" stroke-width="4"></path>
                        <path d="M626,365 L626,598" id="Path-2" stroke="#000000" stroke-width="4"></path>
                        <path d="M38,576 L38,604" id="Path-2" stroke="#000000" stroke-width="4"></path>
                        <path d="M39.0000001,77 L39,544.004272" id="Path-2" stroke="#000000" stroke-width="4"></path>
                        <circle id="Oval-2" fill="#000000" cx="333.5" cy="79.5" r="7.5"></circle>
                        <circle id="Oval-2" fill="#000000" cx="625.5" cy="79.5" r="7.5"></circle>
                        <circle id="Oval-2" fill="#000000" cx="626.5" cy="601.5" r="7.5"></circle>
                        <circle id="Oval-2" fill="#000000" cx="333.5" cy="388.5" r="7.5"></circle>
                        <circle id="Oval-2" fill="#000000" cx="333.5" cy="235.5" r="7.5"></circle>
                        <circle id="Oval-2" fill="#000000" cx="333.5" cy="275.5" r="7.5"></circle>
                        <circle id="Oval-2" fill="#000000" cx="333.5" cy="508.5" r="7.5"></circle>
                        <circle id="Oval-2" fill="#000000" cx="39.5" cy="234.5" r="7.5"></circle>
                        <circle id="Oval-2" fill="#000000" cx="39.5" cy="389.5" r="7.5"></circle>
                        <path d="M333,81.9956522 L333,435" id="Line" stroke="#000000" stroke-width="4" stroke-linecap="square"></path>
                        <path d="M616,167.942923 L616,203.011623" id="Path-2" stroke-width="4" transform="translate(10.000000, 52.000000)" stroke="#000000"></path>
                        <path d="M616,28.9545646 L616,138.073341" id="Path-2" stroke-width="4" transform="translate(10.000000, 52.000000)" stroke="#000000"></path>
                        <path d="M28,183 L53,183" id="Path-2" stroke-width="4" transform="translate(10.000000, 52.000000)" stroke="#000000"></path>
                        <path d="M109,183 L163,183" id="Path-2" stroke-width="4" transform="translate(10.000000, 52.000000)" stroke="#000000"></path>
                        <path d="M28,337 L53,337" id="Path-2" stroke-width="4" transform="translate(10.000000, 52.000000)" stroke="#000000"></path>
                        <path d="M109,337 L163,337" id="Path-2" stroke-width="4" transform="translate(10.000000, 52.000000)" stroke="#000000"></path>
                        <path d="M323,416.985297 L323,456" id="Path-2" stroke-width="4" transform="translate(10.000000, 52.000000)" stroke="#000000"></path>
                    </g>
                    <g id="Group-13" transform="translate(10.000000, 52.000000)" stroke="#000000" style="pointer-events: bounding-box">
                        <g id="switch-on1" transform="translate(53.000000, 0.000000)" stroke-width="0.5" fill="#000000">
                            <title>ключ</title>
                            <g id="Capa_1">
                                <g id="Group" transform="translate(28.000000, 21.500000) rotate(90.000000) translate(-28.000000, -21.500000) translate(6.500000, -6.500000)">
                                    <path d="M42.2678004,52.4771761 L42.2678004,3.51940182 C42.2678004,1.57829492 40.6907729,0 38.7501055,0 L14.0657603,0 C12.1255948,0 10.5480654,1.57829492 10.5480654,3.51940182 L10.5480654,6.92280424 L0.879360977,6.92280424 C0.393754958,6.92280424 -1.10134124e-13,7.31574595 -1.10134124e-13,7.80259193 L-1.10134124e-13,13.4848051 C-1.10134124e-13,13.599047 0.0225863265,13.7132888 0.0677589794,13.8207515 C0.112429714,13.9292184 0.176424306,14.0256335 0.258487958,14.1079881 L10.3508115,24.2039535 C9.34647285,25.2256019 8.71054228,26.7032134 8.71054228,28.3498023 C8.71054228,30.1334815 9.45639297,31.7215685 10.6103033,32.7414594 C10.5741652,32.8376234 10.5488183,32.9380558 10.5488183,33.0465228 L10.5488183,52.4774272 C10.5488183,54.4177809 12.1265987,55.9970801 14.0665132,55.9970801 L38.7501055,55.9970801 C40.6892671,55.996578 42.2678004,54.4172787 42.2678004,52.4771761 L42.2678004,52.4771761 Z M1.75872195,8.68263069 L18.1390788,8.68263069 L18.1390788,12.6052685 L1.75872195,12.6052685 L1.75872195,8.68263069 L1.75872195,8.68263069 Z M33.2089268,20.4111245 C33.2929981,20.4786653 33.385853,20.5281282 33.4819703,20.5597644 L33.4819703,32.1644754 L29.8064222,32.1644754 C29.7409218,32.1268132 29.67241,32.0906576 29.5968712,32.0708222 C28.1531031,31.6901834 27.1043446,30.1246936 27.1043446,28.3495512 C27.1043446,26.5736556 28.1520992,25.0089191 29.5968712,24.6282803 C29.942944,24.5368869 30.1843667,24.2421178 30.2322999,23.8946218 C30.2641717,23.8680072 30.3035723,23.8552021 30.3316797,23.8233148 C30.6599343,23.4640179 30.6340855,22.9073714 30.2749629,22.5799619 L19.8978007,13.0986426 L19.8978007,9.64577726 L33.2089268,20.4111245 L33.2089268,20.4111245 Z M18.8161667,33.9260594 L20.4298342,33.9260594 L28.4783462,33.9260594 L33.4819703,33.9260594 L33.4819703,35.2992212 L18.8164176,35.2992212 L18.8164176,33.9260594 L18.8161667,33.9260594 Z M18.6771353,14.3645928 L27.8790556,22.7722899 L13.6295932,22.7722899 C12.9858829,22.7722899 12.3717858,22.9174147 11.8071276,23.1735172 L3.00247566,14.3645928 L18.6771353,14.3645928 L18.6771353,14.3645928 Z M10.4685114,28.3495512 C10.4685114,26.2444885 11.8864307,24.5321163 13.6293423,24.5321163 L26.6757063,24.5321163 C25.841769,25.5361891 25.3451208,26.8832384 25.3451208,28.3495512 C25.3451208,29.815613 25.8407651,31.1619091 26.6747025,32.1662329 L20.430838,32.1662329 L17.9375586,32.1662329 L13.6303461,32.1662329 C11.8864307,32.1662329 10.4685114,30.4531075 10.4685114,28.3495512 L10.4685114,28.3495512 Z M12.3067874,52.4771761 L12.3067874,33.7146492 C12.7278969,33.8487264 13.1703379,33.9243018 13.6285894,33.9243018 L17.0566918,33.9243018 L17.0566918,36.1782556 C17.0566918,36.6645994 17.4504468,37.0580433 17.9360528,37.0580433 L33.4802136,37.0580433 L33.4802136,40.5776962 C33.4802136,41.06404 33.8752234,41.4574839 34.3598256,41.4574839 C34.8459335,41.4574839 35.2391865,41.06404 35.2391865,40.5776962 L35.2391865,36.1782556 L35.2391865,33.0447652 L35.2391865,20.2122684 L35.2391865,13.1548848 C35.2391865,12.6680388 34.8459335,12.2750971 34.3598256,12.2750971 C33.8752234,12.2750971 33.4802136,12.6680388 33.4802136,13.1548848 L33.4802136,18.3695852 L19.5715538,7.11864739 C19.5406858,7.09404146 19.5030419,7.08650903 19.4706682,7.06541823 C19.4187197,7.03378203 19.3685278,7.00189474 19.3095524,6.98080394 C19.2485693,6.95971314 19.189092,6.95142747 19.1266032,6.94389504 C19.0897122,6.93962667 19.0560836,6.92305532 19.0184398,6.92305532 L12.3067874,6.92305532 L12.3067874,3.51940182 C12.3067874,2.54872283 13.0955521,1.75957537 14.0655093,1.75957537 L38.7498546,1.75957537 C39.7193099,1.75957537 40.5085765,2.54872283 40.5085765,3.51940182 L40.5085765,52.4771761 C40.5085765,53.4471019 39.7193099,54.2370026 38.7498546,54.2370026 L14.0655093,54.2370026 C13.0955521,54.2370026 12.3067874,53.4463487 12.3067874,52.4771761 L12.3067874,52.4771761 Z" id="Shape1"></path>
                                    <path d="M26.0292851,44.5128205 C24.3440942,44.5128205 22.974359,45.885229 22.974359,47.5702334 C22.974359,49.2559909 24.3458509,50.6281484 26.0292851,50.6281484 C27.7142251,50.6281484 29.0849641,49.2559909 29.0849641,47.5702334 C29.0849641,45.885229 27.7142251,44.5128205 26.0292851,44.5128205 L26.0292851,44.5128205 Z" id="switchOn1" fill="green"></path>
                                    <path d="M26.0292851,4.30769231 C24.3440942,4.30769231 22.974359,5.67934759 22.974359,7.36535624 C22.974359,9.05136489 24.3458509,10.4230202 26.0292851,10.4230202 C27.7142251,10.4230202 29.0849641,9.05136489 29.0849641,7.36535624 C29.0849641,5.67934759 27.7142251,4.30769231 26.0292851,4.30769231 L26.0292851,4.30769231 Z" id="switchOff1" fill="red"></path>
                                </g>
                            </g>
                        </g>
                        <g id="switch-on2" transform="translate(426.000000, 250.000000)" stroke-width="0.5" fill="#000000">
                            <title>ключ</title>
                            <g id="Capa_1">
                                <g id="Group" transform="translate(28.000000, 21.500000) rotate(90.000000) translate(-28.000000, -21.500000) translate(6.500000, -6.500000)">
                                    <path d="M42.2678004,52.4771761 L42.2678004,3.51940182 C42.2678004,1.57829492 40.6907729,0 38.7501055,0 L14.0657603,0 C12.1255948,0 10.5480654,1.57829492 10.5480654,3.51940182 L10.5480654,6.92280424 L0.879360977,6.92280424 C0.393754958,6.92280424 -1.10134124e-13,7.31574595 -1.10134124e-13,7.80259193 L-1.10134124e-13,13.4848051 C-1.10134124e-13,13.599047 0.0225863265,13.7132888 0.0677589794,13.8207515 C0.112429714,13.9292184 0.176424306,14.0256335 0.258487958,14.1079881 L10.3508115,24.2039535 C9.34647285,25.2256019 8.71054228,26.7032134 8.71054228,28.3498023 C8.71054228,30.1334815 9.45639297,31.7215685 10.6103033,32.7414594 C10.5741652,32.8376234 10.5488183,32.9380558 10.5488183,33.0465228 L10.5488183,52.4774272 C10.5488183,54.4177809 12.1265987,55.9970801 14.0665132,55.9970801 L38.7501055,55.9970801 C40.6892671,55.996578 42.2678004,54.4172787 42.2678004,52.4771761 L42.2678004,52.4771761 Z M1.75872195,8.68263069 L18.1390788,8.68263069 L18.1390788,12.6052685 L1.75872195,12.6052685 L1.75872195,8.68263069 L1.75872195,8.68263069 Z M33.2089268,20.4111245 C33.2929981,20.4786653 33.385853,20.5281282 33.4819703,20.5597644 L33.4819703,32.1644754 L29.8064222,32.1644754 C29.7409218,32.1268132 29.67241,32.0906576 29.5968712,32.0708222 C28.1531031,31.6901834 27.1043446,30.1246936 27.1043446,28.3495512 C27.1043446,26.5736556 28.1520992,25.0089191 29.5968712,24.6282803 C29.942944,24.5368869 30.1843667,24.2421178 30.2322999,23.8946218 C30.2641717,23.8680072 30.3035723,23.8552021 30.3316797,23.8233148 C30.6599343,23.4640179 30.6340855,22.9073714 30.2749629,22.5799619 L19.8978007,13.0986426 L19.8978007,9.64577726 L33.2089268,20.4111245 L33.2089268,20.4111245 Z M18.8161667,33.9260594 L20.4298342,33.9260594 L28.4783462,33.9260594 L33.4819703,33.9260594 L33.4819703,35.2992212 L18.8164176,35.2992212 L18.8164176,33.9260594 L18.8161667,33.9260594 Z M18.6771353,14.3645928 L27.8790556,22.7722899 L13.6295932,22.7722899 C12.9858829,22.7722899 12.3717858,22.9174147 11.8071276,23.1735172 L3.00247566,14.3645928 L18.6771353,14.3645928 L18.6771353,14.3645928 Z M10.4685114,28.3495512 C10.4685114,26.2444885 11.8864307,24.5321163 13.6293423,24.5321163 L26.6757063,24.5321163 C25.841769,25.5361891 25.3451208,26.8832384 25.3451208,28.3495512 C25.3451208,29.815613 25.8407651,31.1619091 26.6747025,32.1662329 L20.430838,32.1662329 L17.9375586,32.1662329 L13.6303461,32.1662329 C11.8864307,32.1662329 10.4685114,30.4531075 10.4685114,28.3495512 L10.4685114,28.3495512 Z M12.3067874,52.4771761 L12.3067874,33.7146492 C12.7278969,33.8487264 13.1703379,33.9243018 13.6285894,33.9243018 L17.0566918,33.9243018 L17.0566918,36.1782556 C17.0566918,36.6645994 17.4504468,37.0580433 17.9360528,37.0580433 L33.4802136,37.0580433 L33.4802136,40.5776962 C33.4802136,41.06404 33.8752234,41.4574839 34.3598256,41.4574839 C34.8459335,41.4574839 35.2391865,41.06404 35.2391865,40.5776962 L35.2391865,36.1782556 L35.2391865,33.0447652 L35.2391865,20.2122684 L35.2391865,13.1548848 C35.2391865,12.6680388 34.8459335,12.2750971 34.3598256,12.2750971 C33.8752234,12.2750971 33.4802136,12.6680388 33.4802136,13.1548848 L33.4802136,18.3695852 L19.5715538,7.11864739 C19.5406858,7.09404146 19.5030419,7.08650903 19.4706682,7.06541823 C19.4187197,7.03378203 19.3685278,7.00189474 19.3095524,6.98080394 C19.2485693,6.95971314 19.189092,6.95142747 19.1266032,6.94389504 C19.0897122,6.93962667 19.0560836,6.92305532 19.0184398,6.92305532 L12.3067874,6.92305532 L12.3067874,3.51940182 C12.3067874,2.54872283 13.0955521,1.75957537 14.0655093,1.75957537 L38.7498546,1.75957537 C39.7193099,1.75957537 40.5085765,2.54872283 40.5085765,3.51940182 L40.5085765,52.4771761 C40.5085765,53.4471019 39.7193099,54.2370026 38.7498546,54.2370026 L14.0655093,54.2370026 C13.0955521,54.2370026 12.3067874,53.4463487 12.3067874,52.4771761 L12.3067874,52.4771761 Z" id="Shape2"></path>
                                    <path d="M26.0292851,44.5128205 C24.3440942,44.5128205 22.974359,45.885229 22.974359,47.5702334 C22.974359,49.2559909 24.3458509,50.6281484 26.0292851,50.6281484 C27.7142251,50.6281484 29.0849641,49.2559909 29.0849641,47.5702334 C29.0849641,45.885229 27.7142251,44.5128205 26.0292851,44.5128205 L26.0292851,44.5128205 Z" id="switchOn2" fill="green"></path>
                                    <path d="M26.0292851,4.30769231 C24.3440942,4.30769231 22.974359,5.67934759 22.974359,7.36535624 C22.974359,9.05136489 24.3458509,10.4230202 26.0292851,10.4230202 C27.7142251,10.4230202 29.0849641,9.05136489 29.0849641,7.36535624 C29.0849641,5.67934759 27.7142251,4.30769231 26.0292851,4.30769231 L26.0292851,4.30769231 Z" id="switchOff2" fill="red"></path>
                                </g>
                            </g>
                        </g>
                        <g id="switch-on3" transform="translate(588.000000, 127.000000)" stroke-width="0.5" fill="#000000">
                            <title>ключ</title>
                            <g id="Capa_1">
                                <g id="Group" transform="translate(28.000000, 21.500000) rotate(90.000000) translate(-28.000000, -21.500000) translate(6.500000, -6.500000)">
                                    <path d="M42.2678004,52.4771761 L42.2678004,3.51940182 C42.2678004,1.57829492 40.6907729,0 38.7501055,0 L14.0657603,0 C12.1255948,0 10.5480654,1.57829492 10.5480654,3.51940182 L10.5480654,6.92280424 L0.879360977,6.92280424 C0.393754958,6.92280424 -1.10134124e-13,7.31574595 -1.10134124e-13,7.80259193 L-1.10134124e-13,13.4848051 C-1.10134124e-13,13.599047 0.0225863265,13.7132888 0.0677589794,13.8207515 C0.112429714,13.9292184 0.176424306,14.0256335 0.258487958,14.1079881 L10.3508115,24.2039535 C9.34647285,25.2256019 8.71054228,26.7032134 8.71054228,28.3498023 C8.71054228,30.1334815 9.45639297,31.7215685 10.6103033,32.7414594 C10.5741652,32.8376234 10.5488183,32.9380558 10.5488183,33.0465228 L10.5488183,52.4774272 C10.5488183,54.4177809 12.1265987,55.9970801 14.0665132,55.9970801 L38.7501055,55.9970801 C40.6892671,55.996578 42.2678004,54.4172787 42.2678004,52.4771761 L42.2678004,52.4771761 Z M1.75872195,8.68263069 L18.1390788,8.68263069 L18.1390788,12.6052685 L1.75872195,12.6052685 L1.75872195,8.68263069 L1.75872195,8.68263069 Z M33.2089268,20.4111245 C33.2929981,20.4786653 33.385853,20.5281282 33.4819703,20.5597644 L33.4819703,32.1644754 L29.8064222,32.1644754 C29.7409218,32.1268132 29.67241,32.0906576 29.5968712,32.0708222 C28.1531031,31.6901834 27.1043446,30.1246936 27.1043446,28.3495512 C27.1043446,26.5736556 28.1520992,25.0089191 29.5968712,24.6282803 C29.942944,24.5368869 30.1843667,24.2421178 30.2322999,23.8946218 C30.2641717,23.8680072 30.3035723,23.8552021 30.3316797,23.8233148 C30.6599343,23.4640179 30.6340855,22.9073714 30.2749629,22.5799619 L19.8978007,13.0986426 L19.8978007,9.64577726 L33.2089268,20.4111245 L33.2089268,20.4111245 Z M18.8161667,33.9260594 L20.4298342,33.9260594 L28.4783462,33.9260594 L33.4819703,33.9260594 L33.4819703,35.2992212 L18.8164176,35.2992212 L18.8164176,33.9260594 L18.8161667,33.9260594 Z M18.6771353,14.3645928 L27.8790556,22.7722899 L13.6295932,22.7722899 C12.9858829,22.7722899 12.3717858,22.9174147 11.8071276,23.1735172 L3.00247566,14.3645928 L18.6771353,14.3645928 L18.6771353,14.3645928 Z M10.4685114,28.3495512 C10.4685114,26.2444885 11.8864307,24.5321163 13.6293423,24.5321163 L26.6757063,24.5321163 C25.841769,25.5361891 25.3451208,26.8832384 25.3451208,28.3495512 C25.3451208,29.815613 25.8407651,31.1619091 26.6747025,32.1662329 L20.430838,32.1662329 L17.9375586,32.1662329 L13.6303461,32.1662329 C11.8864307,32.1662329 10.4685114,30.4531075 10.4685114,28.3495512 L10.4685114,28.3495512 Z M12.3067874,52.4771761 L12.3067874,33.7146492 C12.7278969,33.8487264 13.1703379,33.9243018 13.6285894,33.9243018 L17.0566918,33.9243018 L17.0566918,36.1782556 C17.0566918,36.6645994 17.4504468,37.0580433 17.9360528,37.0580433 L33.4802136,37.0580433 L33.4802136,40.5776962 C33.4802136,41.06404 33.8752234,41.4574839 34.3598256,41.4574839 C34.8459335,41.4574839 35.2391865,41.06404 35.2391865,40.5776962 L35.2391865,36.1782556 L35.2391865,33.0447652 L35.2391865,20.2122684 L35.2391865,13.1548848 C35.2391865,12.6680388 34.8459335,12.2750971 34.3598256,12.2750971 C33.8752234,12.2750971 33.4802136,12.6680388 33.4802136,13.1548848 L33.4802136,18.3695852 L19.5715538,7.11864739 C19.5406858,7.09404146 19.5030419,7.08650903 19.4706682,7.06541823 C19.4187197,7.03378203 19.3685278,7.00189474 19.3095524,6.98080394 C19.2485693,6.95971314 19.189092,6.95142747 19.1266032,6.94389504 C19.0897122,6.93962667 19.0560836,6.92305532 19.0184398,6.92305532 L12.3067874,6.92305532 L12.3067874,3.51940182 C12.3067874,2.54872283 13.0955521,1.75957537 14.0655093,1.75957537 L38.7498546,1.75957537 C39.7193099,1.75957537 40.5085765,2.54872283 40.5085765,3.51940182 L40.5085765,52.4771761 C40.5085765,53.4471019 39.7193099,54.2370026 38.7498546,54.2370026 L14.0655093,54.2370026 C13.0955521,54.2370026 12.3067874,53.4463487 12.3067874,52.4771761 L12.3067874,52.4771761 Z" id="Shape3"></path>
                                    <path d="M26.0292851,44.5128205 C24.3440942,44.5128205 22.974359,45.885229 22.974359,47.5702334 C22.974359,49.2559909 24.3458509,50.6281484 26.0292851,50.6281484 C27.7142251,50.6281484 29.0849641,49.2559909 29.0849641,47.5702334 C29.0849641,45.885229 27.7142251,44.5128205 26.0292851,44.5128205 L26.0292851,44.5128205 Z" id="switchOn3" stroke="black" fill="green"></path>
                                    <path d="M26.0292851,4.30769231 C24.3440942,4.30769231 22.974359,5.67934759 22.974359,7.36535624 C22.974359,9.05136489 24.3458509,10.4230202 26.0292851,10.4230202 C27.7142251,10.4230202 29.0849641,9.05136489 29.0849641,7.36535624 C29.0849641,5.67934759 27.7142251,4.30769231 26.0292851,4.30769231 L26.0292851,4.30769231 Z" id="switchOff3" stroke="black" fill="red"></path>
                                </g>
                            </g>
                        </g>
                        <g id="switch-on4" transform="translate(53.000000, 156.000000)" stroke-width="0.5" fill="#000000">
                            <title>ключ</title>
                            <g id="Capa_1">
                                <g id="Group" transform="translate(28.000000, 21.500000) rotate(90.000000) translate(-28.000000, -21.500000) translate(6.500000, -6.500000)">
                                    <path d="M42.2678004,52.4771761 L42.2678004,3.51940182 C42.2678004,1.57829492 40.6907729,0 38.7501055,0 L14.0657603,0 C12.1255948,0 10.5480654,1.57829492 10.5480654,3.51940182 L10.5480654,6.92280424 L0.879360977,6.92280424 C0.393754958,6.92280424 -1.10134124e-13,7.31574595 -1.10134124e-13,7.80259193 L-1.10134124e-13,13.4848051 C-1.10134124e-13,13.599047 0.0225863265,13.7132888 0.0677589794,13.8207515 C0.112429714,13.9292184 0.176424306,14.0256335 0.258487958,14.1079881 L10.3508115,24.2039535 C9.34647285,25.2256019 8.71054228,26.7032134 8.71054228,28.3498023 C8.71054228,30.1334815 9.45639297,31.7215685 10.6103033,32.7414594 C10.5741652,32.8376234 10.5488183,32.9380558 10.5488183,33.0465228 L10.5488183,52.4774272 C10.5488183,54.4177809 12.1265987,55.9970801 14.0665132,55.9970801 L38.7501055,55.9970801 C40.6892671,55.996578 42.2678004,54.4172787 42.2678004,52.4771761 L42.2678004,52.4771761 Z M1.75872195,8.68263069 L18.1390788,8.68263069 L18.1390788,12.6052685 L1.75872195,12.6052685 L1.75872195,8.68263069 L1.75872195,8.68263069 Z M33.2089268,20.4111245 C33.2929981,20.4786653 33.385853,20.5281282 33.4819703,20.5597644 L33.4819703,32.1644754 L29.8064222,32.1644754 C29.7409218,32.1268132 29.67241,32.0906576 29.5968712,32.0708222 C28.1531031,31.6901834 27.1043446,30.1246936 27.1043446,28.3495512 C27.1043446,26.5736556 28.1520992,25.0089191 29.5968712,24.6282803 C29.942944,24.5368869 30.1843667,24.2421178 30.2322999,23.8946218 C30.2641717,23.8680072 30.3035723,23.8552021 30.3316797,23.8233148 C30.6599343,23.4640179 30.6340855,22.9073714 30.2749629,22.5799619 L19.8978007,13.0986426 L19.8978007,9.64577726 L33.2089268,20.4111245 L33.2089268,20.4111245 Z M18.8161667,33.9260594 L20.4298342,33.9260594 L28.4783462,33.9260594 L33.4819703,33.9260594 L33.4819703,35.2992212 L18.8164176,35.2992212 L18.8164176,33.9260594 L18.8161667,33.9260594 Z M18.6771353,14.3645928 L27.8790556,22.7722899 L13.6295932,22.7722899 C12.9858829,22.7722899 12.3717858,22.9174147 11.8071276,23.1735172 L3.00247566,14.3645928 L18.6771353,14.3645928 L18.6771353,14.3645928 Z M10.4685114,28.3495512 C10.4685114,26.2444885 11.8864307,24.5321163 13.6293423,24.5321163 L26.6757063,24.5321163 C25.841769,25.5361891 25.3451208,26.8832384 25.3451208,28.3495512 C25.3451208,29.815613 25.8407651,31.1619091 26.6747025,32.1662329 L20.430838,32.1662329 L17.9375586,32.1662329 L13.6303461,32.1662329 C11.8864307,32.1662329 10.4685114,30.4531075 10.4685114,28.3495512 L10.4685114,28.3495512 Z M12.3067874,52.4771761 L12.3067874,33.7146492 C12.7278969,33.8487264 13.1703379,33.9243018 13.6285894,33.9243018 L17.0566918,33.9243018 L17.0566918,36.1782556 C17.0566918,36.6645994 17.4504468,37.0580433 17.9360528,37.0580433 L33.4802136,37.0580433 L33.4802136,40.5776962 C33.4802136,41.06404 33.8752234,41.4574839 34.3598256,41.4574839 C34.8459335,41.4574839 35.2391865,41.06404 35.2391865,40.5776962 L35.2391865,36.1782556 L35.2391865,33.0447652 L35.2391865,20.2122684 L35.2391865,13.1548848 C35.2391865,12.6680388 34.8459335,12.2750971 34.3598256,12.2750971 C33.8752234,12.2750971 33.4802136,12.6680388 33.4802136,13.1548848 L33.4802136,18.3695852 L19.5715538,7.11864739 C19.5406858,7.09404146 19.5030419,7.08650903 19.4706682,7.06541823 C19.4187197,7.03378203 19.3685278,7.00189474 19.3095524,6.98080394 C19.2485693,6.95971314 19.189092,6.95142747 19.1266032,6.94389504 C19.0897122,6.93962667 19.0560836,6.92305532 19.0184398,6.92305532 L12.3067874,6.92305532 L12.3067874,3.51940182 C12.3067874,2.54872283 13.0955521,1.75957537 14.0655093,1.75957537 L38.7498546,1.75957537 C39.7193099,1.75957537 40.5085765,2.54872283 40.5085765,3.51940182 L40.5085765,52.4771761 C40.5085765,53.4471019 39.7193099,54.2370026 38.7498546,54.2370026 L14.0655093,54.2370026 C13.0955521,54.2370026 12.3067874,53.4463487 12.3067874,52.4771761 L12.3067874,52.4771761 Z" id="Shape4"></path>
                                    <path d="M26.0292851,44.5128205 C24.3440942,44.5128205 22.974359,45.885229 22.974359,47.5702334 C22.974359,49.2559909 24.3458509,50.6281484 26.0292851,50.6281484 C27.7142251,50.6281484 29.0849641,49.2559909 29.0849641,47.5702334 C29.0849641,45.885229 27.7142251,44.5128205 26.0292851,44.5128205 L26.0292851,44.5128205 Z" id="switchOn4" fill="green"></path>
                                    <path d="M26.0292851,4.30769231 C24.3440942,4.30769231 22.974359,5.67934759 22.974359,7.36535624 C22.974359,9.05136489 24.3458509,10.4230202 26.0292851,10.4230202 C27.7142251,10.4230202 29.0849641,9.05136489 29.0849641,7.36535624 C29.0849641,5.67934759 27.7142251,4.30769231 26.0292851,4.30769231 L26.0292851,4.30769231 Z" id="switchOff4" fill="red"></path>
                                </g>
                            </g>
                        </g>
                        <g id="switch-on5" transform="translate(53.000000, 310.000000)" stroke-width="0.5" fill="#000000">
                            <title>ключ</title>
                            <g id="Capa_1">
                                <g id="Group" transform="translate(28.000000, 21.500000) rotate(90.000000) translate(-28.000000, -21.500000) translate(6.500000, -6.500000)">
                                    <path d="M42.2678004,52.4771761 L42.2678004,3.51940182 C42.2678004,1.57829492 40.6907729,0 38.7501055,0 L14.0657603,0 C12.1255948,0 10.5480654,1.57829492 10.5480654,3.51940182 L10.5480654,6.92280424 L0.879360977,6.92280424 C0.393754958,6.92280424 -1.10134124e-13,7.31574595 -1.10134124e-13,7.80259193 L-1.10134124e-13,13.4848051 C-1.10134124e-13,13.599047 0.0225863265,13.7132888 0.0677589794,13.8207515 C0.112429714,13.9292184 0.176424306,14.0256335 0.258487958,14.1079881 L10.3508115,24.2039535 C9.34647285,25.2256019 8.71054228,26.7032134 8.71054228,28.3498023 C8.71054228,30.1334815 9.45639297,31.7215685 10.6103033,32.7414594 C10.5741652,32.8376234 10.5488183,32.9380558 10.5488183,33.0465228 L10.5488183,52.4774272 C10.5488183,54.4177809 12.1265987,55.9970801 14.0665132,55.9970801 L38.7501055,55.9970801 C40.6892671,55.996578 42.2678004,54.4172787 42.2678004,52.4771761 L42.2678004,52.4771761 Z M1.75872195,8.68263069 L18.1390788,8.68263069 L18.1390788,12.6052685 L1.75872195,12.6052685 L1.75872195,8.68263069 L1.75872195,8.68263069 Z M33.2089268,20.4111245 C33.2929981,20.4786653 33.385853,20.5281282 33.4819703,20.5597644 L33.4819703,32.1644754 L29.8064222,32.1644754 C29.7409218,32.1268132 29.67241,32.0906576 29.5968712,32.0708222 C28.1531031,31.6901834 27.1043446,30.1246936 27.1043446,28.3495512 C27.1043446,26.5736556 28.1520992,25.0089191 29.5968712,24.6282803 C29.942944,24.5368869 30.1843667,24.2421178 30.2322999,23.8946218 C30.2641717,23.8680072 30.3035723,23.8552021 30.3316797,23.8233148 C30.6599343,23.4640179 30.6340855,22.9073714 30.2749629,22.5799619 L19.8978007,13.0986426 L19.8978007,9.64577726 L33.2089268,20.4111245 L33.2089268,20.4111245 Z M18.8161667,33.9260594 L20.4298342,33.9260594 L28.4783462,33.9260594 L33.4819703,33.9260594 L33.4819703,35.2992212 L18.8164176,35.2992212 L18.8164176,33.9260594 L18.8161667,33.9260594 Z M18.6771353,14.3645928 L27.8790556,22.7722899 L13.6295932,22.7722899 C12.9858829,22.7722899 12.3717858,22.9174147 11.8071276,23.1735172 L3.00247566,14.3645928 L18.6771353,14.3645928 L18.6771353,14.3645928 Z M10.4685114,28.3495512 C10.4685114,26.2444885 11.8864307,24.5321163 13.6293423,24.5321163 L26.6757063,24.5321163 C25.841769,25.5361891 25.3451208,26.8832384 25.3451208,28.3495512 C25.3451208,29.815613 25.8407651,31.1619091 26.6747025,32.1662329 L20.430838,32.1662329 L17.9375586,32.1662329 L13.6303461,32.1662329 C11.8864307,32.1662329 10.4685114,30.4531075 10.4685114,28.3495512 L10.4685114,28.3495512 Z M12.3067874,52.4771761 L12.3067874,33.7146492 C12.7278969,33.8487264 13.1703379,33.9243018 13.6285894,33.9243018 L17.0566918,33.9243018 L17.0566918,36.1782556 C17.0566918,36.6645994 17.4504468,37.0580433 17.9360528,37.0580433 L33.4802136,37.0580433 L33.4802136,40.5776962 C33.4802136,41.06404 33.8752234,41.4574839 34.3598256,41.4574839 C34.8459335,41.4574839 35.2391865,41.06404 35.2391865,40.5776962 L35.2391865,36.1782556 L35.2391865,33.0447652 L35.2391865,20.2122684 L35.2391865,13.1548848 C35.2391865,12.6680388 34.8459335,12.2750971 34.3598256,12.2750971 C33.8752234,12.2750971 33.4802136,12.6680388 33.4802136,13.1548848 L33.4802136,18.3695852 L19.5715538,7.11864739 C19.5406858,7.09404146 19.5030419,7.08650903 19.4706682,7.06541823 C19.4187197,7.03378203 19.3685278,7.00189474 19.3095524,6.98080394 C19.2485693,6.95971314 19.189092,6.95142747 19.1266032,6.94389504 C19.0897122,6.93962667 19.0560836,6.92305532 19.0184398,6.92305532 L12.3067874,6.92305532 L12.3067874,3.51940182 C12.3067874,2.54872283 13.0955521,1.75957537 14.0655093,1.75957537 L38.7498546,1.75957537 C39.7193099,1.75957537 40.5085765,2.54872283 40.5085765,3.51940182 L40.5085765,52.4771761 C40.5085765,53.4471019 39.7193099,54.2370026 38.7498546,54.2370026 L14.0655093,54.2370026 C13.0955521,54.2370026 12.3067874,53.4463487 12.3067874,52.4771761 L12.3067874,52.4771761 Z" id="Shape5"></path>
                                    <path d="M26.0292851,44.5128205 C24.3440942,44.5128205 22.974359,45.885229 22.974359,47.5702334 C22.974359,49.2559909 24.3458509,50.6281484 26.0292851,50.6281484 C27.7142251,50.6281484 29.0849641,49.2559909 29.0849641,47.5702334 C29.0849641,45.885229 27.7142251,44.5128205 26.0292851,44.5128205 L26.0292851,44.5128205 Z" id="switchOn5" fill="green"></path>
                                    <path d="M26.0292851,4.30769231 C24.3440942,4.30769231 22.974359,5.67934759 22.974359,7.36535624 C22.974359,9.05136489 24.3458509,10.4230202 26.0292851,10.4230202 C27.7142251,10.4230202 29.0849641,9.05136489 29.0849641,7.36535624 C29.0849641,5.67934759 27.7142251,4.30769231 26.0292851,4.30769231 L26.0292851,4.30769231 Z" id="switchOff5" fill="red"></path>
                                </g>
                            </g>
                        </g>
                        <g id="switch-on6" transform="translate(296.000000, 375.000000)" stroke-width="0.5" fill="#000000">
                            <title>ключ</title>
                            <g id="Capa_1">
                                <g id="Group" transform="translate(28.000000, 21.500000) rotate(90.000000) translate(-28.000000, -21.500000) translate(6.500000, -6.500000)">
                                    <path d="M42.2678004,52.4771761 L42.2678004,3.51940182 C42.2678004,1.57829492 40.6907729,0 38.7501055,0 L14.0657603,0 C12.1255948,0 10.5480654,1.57829492 10.5480654,3.51940182 L10.5480654,6.92280424 L0.879360977,6.92280424 C0.393754958,6.92280424 -1.10134124e-13,7.31574595 -1.10134124e-13,7.80259193 L-1.10134124e-13,13.4848051 C-1.10134124e-13,13.599047 0.0225863265,13.7132888 0.0677589794,13.8207515 C0.112429714,13.9292184 0.176424306,14.0256335 0.258487958,14.1079881 L10.3508115,24.2039535 C9.34647285,25.2256019 8.71054228,26.7032134 8.71054228,28.3498023 C8.71054228,30.1334815 9.45639297,31.7215685 10.6103033,32.7414594 C10.5741652,32.8376234 10.5488183,32.9380558 10.5488183,33.0465228 L10.5488183,52.4774272 C10.5488183,54.4177809 12.1265987,55.9970801 14.0665132,55.9970801 L38.7501055,55.9970801 C40.6892671,55.996578 42.2678004,54.4172787 42.2678004,52.4771761 L42.2678004,52.4771761 Z M1.75872195,8.68263069 L18.1390788,8.68263069 L18.1390788,12.6052685 L1.75872195,12.6052685 L1.75872195,8.68263069 L1.75872195,8.68263069 Z M33.2089268,20.4111245 C33.2929981,20.4786653 33.385853,20.5281282 33.4819703,20.5597644 L33.4819703,32.1644754 L29.8064222,32.1644754 C29.7409218,32.1268132 29.67241,32.0906576 29.5968712,32.0708222 C28.1531031,31.6901834 27.1043446,30.1246936 27.1043446,28.3495512 C27.1043446,26.5736556 28.1520992,25.0089191 29.5968712,24.6282803 C29.942944,24.5368869 30.1843667,24.2421178 30.2322999,23.8946218 C30.2641717,23.8680072 30.3035723,23.8552021 30.3316797,23.8233148 C30.6599343,23.4640179 30.6340855,22.9073714 30.2749629,22.5799619 L19.8978007,13.0986426 L19.8978007,9.64577726 L33.2089268,20.4111245 L33.2089268,20.4111245 Z M18.8161667,33.9260594 L20.4298342,33.9260594 L28.4783462,33.9260594 L33.4819703,33.9260594 L33.4819703,35.2992212 L18.8164176,35.2992212 L18.8164176,33.9260594 L18.8161667,33.9260594 Z M18.6771353,14.3645928 L27.8790556,22.7722899 L13.6295932,22.7722899 C12.9858829,22.7722899 12.3717858,22.9174147 11.8071276,23.1735172 L3.00247566,14.3645928 L18.6771353,14.3645928 L18.6771353,14.3645928 Z M10.4685114,28.3495512 C10.4685114,26.2444885 11.8864307,24.5321163 13.6293423,24.5321163 L26.6757063,24.5321163 C25.841769,25.5361891 25.3451208,26.8832384 25.3451208,28.3495512 C25.3451208,29.815613 25.8407651,31.1619091 26.6747025,32.1662329 L20.430838,32.1662329 L17.9375586,32.1662329 L13.6303461,32.1662329 C11.8864307,32.1662329 10.4685114,30.4531075 10.4685114,28.3495512 L10.4685114,28.3495512 Z M12.3067874,52.4771761 L12.3067874,33.7146492 C12.7278969,33.8487264 13.1703379,33.9243018 13.6285894,33.9243018 L17.0566918,33.9243018 L17.0566918,36.1782556 C17.0566918,36.6645994 17.4504468,37.0580433 17.9360528,37.0580433 L33.4802136,37.0580433 L33.4802136,40.5776962 C33.4802136,41.06404 33.8752234,41.4574839 34.3598256,41.4574839 C34.8459335,41.4574839 35.2391865,41.06404 35.2391865,40.5776962 L35.2391865,36.1782556 L35.2391865,33.0447652 L35.2391865,20.2122684 L35.2391865,13.1548848 C35.2391865,12.6680388 34.8459335,12.2750971 34.3598256,12.2750971 C33.8752234,12.2750971 33.4802136,12.6680388 33.4802136,13.1548848 L33.4802136,18.3695852 L19.5715538,7.11864739 C19.5406858,7.09404146 19.5030419,7.08650903 19.4706682,7.06541823 C19.4187197,7.03378203 19.3685278,7.00189474 19.3095524,6.98080394 C19.2485693,6.95971314 19.189092,6.95142747 19.1266032,6.94389504 C19.0897122,6.93962667 19.0560836,6.92305532 19.0184398,6.92305532 L12.3067874,6.92305532 L12.3067874,3.51940182 C12.3067874,2.54872283 13.0955521,1.75957537 14.0655093,1.75957537 L38.7498546,1.75957537 C39.7193099,1.75957537 40.5085765,2.54872283 40.5085765,3.51940182 L40.5085765,52.4771761 C40.5085765,53.4471019 39.7193099,54.2370026 38.7498546,54.2370026 L14.0655093,54.2370026 C13.0955521,54.2370026 12.3067874,53.4463487 12.3067874,52.4771761 L12.3067874,52.4771761 Z" id="Shape6"></path>
                                    <path d="M26.0292851,44.5128205 C24.3440942,44.5128205 22.974359,45.885229 22.974359,47.5702334 C22.974359,49.2559909 24.3458509,50.6281484 26.0292851,50.6281484 C27.7142251,50.6281484 29.0849641,49.2559909 29.0849641,47.5702334 C29.0849641,45.885229 27.7142251,44.5128205 26.0292851,44.5128205 L26.0292851,44.5128205 Z" id="switchOn6" fill="green"></path>
                                    <path d="M26.0292851,4.30769231 C24.3440942,4.30769231 22.974359,5.67934759 22.974359,7.36535624 C22.974359,9.05136489 24.3458509,10.4230202 26.0292851,10.4230202 C27.7142251,10.4230202 29.0849641,9.05136489 29.0849641,7.36535624 C29.0849641,5.67934759 27.7142251,4.30769231 26.0292851,4.30769231 L26.0292851,4.30769231 Z" id="switchOff6" fill="red"></path>
                                </g>
                            </g>
                        </g>
                        <g id="switch-on7" transform="translate(296.000000, 482.000000)" stroke-width="0.5" fill="#000000">
                            <title>ключ</title>
                            <g id="Capa_1">
                                <g id="Group" transform="translate(28.000000, 21.500000) rotate(90.000000) translate(-28.000000, -21.500000) translate(6.500000, -6.500000)">
                                    <path d="M42.2678004,52.4771761 L42.2678004,3.51940182 C42.2678004,1.57829492 40.6907729,0 38.7501055,0 L14.0657603,0 C12.1255948,0 10.5480654,1.57829492 10.5480654,3.51940182 L10.5480654,6.92280424 L0.879360977,6.92280424 C0.393754958,6.92280424 -1.10134124e-13,7.31574595 -1.10134124e-13,7.80259193 L-1.10134124e-13,13.4848051 C-1.10134124e-13,13.599047 0.0225863265,13.7132888 0.0677589794,13.8207515 C0.112429714,13.9292184 0.176424306,14.0256335 0.258487958,14.1079881 L10.3508115,24.2039535 C9.34647285,25.2256019 8.71054228,26.7032134 8.71054228,28.3498023 C8.71054228,30.1334815 9.45639297,31.7215685 10.6103033,32.7414594 C10.5741652,32.8376234 10.5488183,32.9380558 10.5488183,33.0465228 L10.5488183,52.4774272 C10.5488183,54.4177809 12.1265987,55.9970801 14.0665132,55.9970801 L38.7501055,55.9970801 C40.6892671,55.996578 42.2678004,54.4172787 42.2678004,52.4771761 L42.2678004,52.4771761 Z M1.75872195,8.68263069 L18.1390788,8.68263069 L18.1390788,12.6052685 L1.75872195,12.6052685 L1.75872195,8.68263069 L1.75872195,8.68263069 Z M33.2089268,20.4111245 C33.2929981,20.4786653 33.385853,20.5281282 33.4819703,20.5597644 L33.4819703,32.1644754 L29.8064222,32.1644754 C29.7409218,32.1268132 29.67241,32.0906576 29.5968712,32.0708222 C28.1531031,31.6901834 27.1043446,30.1246936 27.1043446,28.3495512 C27.1043446,26.5736556 28.1520992,25.0089191 29.5968712,24.6282803 C29.942944,24.5368869 30.1843667,24.2421178 30.2322999,23.8946218 C30.2641717,23.8680072 30.3035723,23.8552021 30.3316797,23.8233148 C30.6599343,23.4640179 30.6340855,22.9073714 30.2749629,22.5799619 L19.8978007,13.0986426 L19.8978007,9.64577726 L33.2089268,20.4111245 L33.2089268,20.4111245 Z M18.8161667,33.9260594 L20.4298342,33.9260594 L28.4783462,33.9260594 L33.4819703,33.9260594 L33.4819703,35.2992212 L18.8164176,35.2992212 L18.8164176,33.9260594 L18.8161667,33.9260594 Z M18.6771353,14.3645928 L27.8790556,22.7722899 L13.6295932,22.7722899 C12.9858829,22.7722899 12.3717858,22.9174147 11.8071276,23.1735172 L3.00247566,14.3645928 L18.6771353,14.3645928 L18.6771353,14.3645928 Z M10.4685114,28.3495512 C10.4685114,26.2444885 11.8864307,24.5321163 13.6293423,24.5321163 L26.6757063,24.5321163 C25.841769,25.5361891 25.3451208,26.8832384 25.3451208,28.3495512 C25.3451208,29.815613 25.8407651,31.1619091 26.6747025,32.1662329 L20.430838,32.1662329 L17.9375586,32.1662329 L13.6303461,32.1662329 C11.8864307,32.1662329 10.4685114,30.4531075 10.4685114,28.3495512 L10.4685114,28.3495512 Z M12.3067874,52.4771761 L12.3067874,33.7146492 C12.7278969,33.8487264 13.1703379,33.9243018 13.6285894,33.9243018 L17.0566918,33.9243018 L17.0566918,36.1782556 C17.0566918,36.6645994 17.4504468,37.0580433 17.9360528,37.0580433 L33.4802136,37.0580433 L33.4802136,40.5776962 C33.4802136,41.06404 33.8752234,41.4574839 34.3598256,41.4574839 C34.8459335,41.4574839 35.2391865,41.06404 35.2391865,40.5776962 L35.2391865,36.1782556 L35.2391865,33.0447652 L35.2391865,20.2122684 L35.2391865,13.1548848 C35.2391865,12.6680388 34.8459335,12.2750971 34.3598256,12.2750971 C33.8752234,12.2750971 33.4802136,12.6680388 33.4802136,13.1548848 L33.4802136,18.3695852 L19.5715538,7.11864739 C19.5406858,7.09404146 19.5030419,7.08650903 19.4706682,7.06541823 C19.4187197,7.03378203 19.3685278,7.00189474 19.3095524,6.98080394 C19.2485693,6.95971314 19.189092,6.95142747 19.1266032,6.94389504 C19.0897122,6.93962667 19.0560836,6.92305532 19.0184398,6.92305532 L12.3067874,6.92305532 L12.3067874,3.51940182 C12.3067874,2.54872283 13.0955521,1.75957537 14.0655093,1.75957537 L38.7498546,1.75957537 C39.7193099,1.75957537 40.5085765,2.54872283 40.5085765,3.51940182 L40.5085765,52.4771761 C40.5085765,53.4471019 39.7193099,54.2370026 38.7498546,54.2370026 L14.0655093,54.2370026 C13.0955521,54.2370026 12.3067874,53.4463487 12.3067874,52.4771761 L12.3067874,52.4771761 Z" id="Shape7"></path>
                                    <path d="M26.0292851,44.5128205 C24.3440942,44.5128205 22.974359,45.885229 22.974359,47.5702334 C22.974359,49.2559909 24.3458509,50.6281484 26.0292851,50.6281484 C27.7142251,50.6281484 29.0849641,49.2559909 29.0849641,47.5702334 C29.0849641,45.885229 27.7142251,44.5128205 26.0292851,44.5128205 L26.0292851,44.5128205 Z" id="switchOn7" fill="green"></path>
                                    <path d="M26.0292851,4.30769231 C24.3440942,4.30769231 22.974359,5.67934759 22.974359,7.36535624 C22.974359,9.05136489 24.3458509,10.4230202 26.0292851,10.4230202 C27.7142251,10.4230202 29.0849641,9.05136489 29.0849641,7.36535624 C29.0849641,5.67934759 27.7142251,4.30769231 26.0292851,4.30769231 L26.0292851,4.30769231 Z" id="switchOff7" fill="red"></path>
                                </g>
                            </g>
                        </g>
                        <g id="switch-on8" transform="translate(0.000000, 482.000000)" stroke-width="0.5" fill="#000000">
                            <title>ключ</title>
                            <g id="Capa_1">
                                <g id="Group" transform="translate(28.000000, 21.500000) rotate(90.000000) translate(-28.000000, -21.500000) translate(6.500000, -6.500000)">
                                    <path d="M42.2678004,52.4771761 L42.2678004,3.51940182 C42.2678004,1.57829492 40.6907729,0 38.7501055,0 L14.0657603,0 C12.1255948,0 10.5480654,1.57829492 10.5480654,3.51940182 L10.5480654,6.92280424 L0.879360977,6.92280424 C0.393754958,6.92280424 -1.10134124e-13,7.31574595 -1.10134124e-13,7.80259193 L-1.10134124e-13,13.4848051 C-1.10134124e-13,13.599047 0.0225863265,13.7132888 0.0677589794,13.8207515 C0.112429714,13.9292184 0.176424306,14.0256335 0.258487958,14.1079881 L10.3508115,24.2039535 C9.34647285,25.2256019 8.71054228,26.7032134 8.71054228,28.3498023 C8.71054228,30.1334815 9.45639297,31.7215685 10.6103033,32.7414594 C10.5741652,32.8376234 10.5488183,32.9380558 10.5488183,33.0465228 L10.5488183,52.4774272 C10.5488183,54.4177809 12.1265987,55.9970801 14.0665132,55.9970801 L38.7501055,55.9970801 C40.6892671,55.996578 42.2678004,54.4172787 42.2678004,52.4771761 L42.2678004,52.4771761 Z M1.75872195,8.68263069 L18.1390788,8.68263069 L18.1390788,12.6052685 L1.75872195,12.6052685 L1.75872195,8.68263069 L1.75872195,8.68263069 Z M33.2089268,20.4111245 C33.2929981,20.4786653 33.385853,20.5281282 33.4819703,20.5597644 L33.4819703,32.1644754 L29.8064222,32.1644754 C29.7409218,32.1268132 29.67241,32.0906576 29.5968712,32.0708222 C28.1531031,31.6901834 27.1043446,30.1246936 27.1043446,28.3495512 C27.1043446,26.5736556 28.1520992,25.0089191 29.5968712,24.6282803 C29.942944,24.5368869 30.1843667,24.2421178 30.2322999,23.8946218 C30.2641717,23.8680072 30.3035723,23.8552021 30.3316797,23.8233148 C30.6599343,23.4640179 30.6340855,22.9073714 30.2749629,22.5799619 L19.8978007,13.0986426 L19.8978007,9.64577726 L33.2089268,20.4111245 L33.2089268,20.4111245 Z M18.8161667,33.9260594 L20.4298342,33.9260594 L28.4783462,33.9260594 L33.4819703,33.9260594 L33.4819703,35.2992212 L18.8164176,35.2992212 L18.8164176,33.9260594 L18.8161667,33.9260594 Z M18.6771353,14.3645928 L27.8790556,22.7722899 L13.6295932,22.7722899 C12.9858829,22.7722899 12.3717858,22.9174147 11.8071276,23.1735172 L3.00247566,14.3645928 L18.6771353,14.3645928 L18.6771353,14.3645928 Z M10.4685114,28.3495512 C10.4685114,26.2444885 11.8864307,24.5321163 13.6293423,24.5321163 L26.6757063,24.5321163 C25.841769,25.5361891 25.3451208,26.8832384 25.3451208,28.3495512 C25.3451208,29.815613 25.8407651,31.1619091 26.6747025,32.1662329 L20.430838,32.1662329 L17.9375586,32.1662329 L13.6303461,32.1662329 C11.8864307,32.1662329 10.4685114,30.4531075 10.4685114,28.3495512 L10.4685114,28.3495512 Z M12.3067874,52.4771761 L12.3067874,33.7146492 C12.7278969,33.8487264 13.1703379,33.9243018 13.6285894,33.9243018 L17.0566918,33.9243018 L17.0566918,36.1782556 C17.0566918,36.6645994 17.4504468,37.0580433 17.9360528,37.0580433 L33.4802136,37.0580433 L33.4802136,40.5776962 C33.4802136,41.06404 33.8752234,41.4574839 34.3598256,41.4574839 C34.8459335,41.4574839 35.2391865,41.06404 35.2391865,40.5776962 L35.2391865,36.1782556 L35.2391865,33.0447652 L35.2391865,20.2122684 L35.2391865,13.1548848 C35.2391865,12.6680388 34.8459335,12.2750971 34.3598256,12.2750971 C33.8752234,12.2750971 33.4802136,12.6680388 33.4802136,13.1548848 L33.4802136,18.3695852 L19.5715538,7.11864739 C19.5406858,7.09404146 19.5030419,7.08650903 19.4706682,7.06541823 C19.4187197,7.03378203 19.3685278,7.00189474 19.3095524,6.98080394 C19.2485693,6.95971314 19.189092,6.95142747 19.1266032,6.94389504 C19.0897122,6.93962667 19.0560836,6.92305532 19.0184398,6.92305532 L12.3067874,6.92305532 L12.3067874,3.51940182 C12.3067874,2.54872283 13.0955521,1.75957537 14.0655093,1.75957537 L38.7498546,1.75957537 C39.7193099,1.75957537 40.5085765,2.54872283 40.5085765,3.51940182 L40.5085765,52.4771761 C40.5085765,53.4471019 39.7193099,54.2370026 38.7498546,54.2370026 L14.0655093,54.2370026 C13.0955521,54.2370026 12.3067874,53.4463487 12.3067874,52.4771761 L12.3067874,52.4771761 Z" id="Shape8"></path>
                                    <path d="M26.0292851,44.5128205 C24.3440942,44.5128205 22.974359,45.885229 22.974359,47.5702334 C22.974359,49.2559909 24.3458509,50.6281484 26.0292851,50.6281484 C27.7142251,50.6281484 29.0849641,49.2559909 29.0849641,47.5702334 C29.0849641,45.885229 27.7142251,44.5128205 26.0292851,44.5128205 L26.0292851,44.5128205 Z" id="switchOn8" fill="green"></path>
                                    <path d="M26.0292851,4.30769231 C24.3440942,4.30769231 22.974359,5.67934759 22.974359,7.36535624 C22.974359,9.05136489 24.3458509,10.4230202 26.0292851,10.4230202 C27.7142251,10.4230202 29.0849641,9.05136489 29.0849641,7.36535624 C29.0849641,5.67934759 27.7142251,4.30769231 26.0292851,4.30769231 L26.0292851,4.30769231 Z" id="switchOff8" fill="red"></path>
                                </g>
                            </g>
                        </g>
                    </g>
                </g>
                <g id="Group-15" transform="translate(332.000000, 507.000000)" stroke="#000000" stroke-width="4">
                    <path d="M1,0.985297296 L1,37.2214508" id="Path-2"></path>
                </g>
                <path d="M333,576.985297 L333,600" id="Path-2" stroke="#000000" stroke-width="4"></path>
            </g>
            <g id="battery" transform="translate(144.000000, 490.000000)">
                <rect id="Rectangle" fill="#DEDEDE" x="0" y="48" width="84" height="79" rx="10"></rect>
                <rect id="Rectangle" stroke="#000000" x="11" y="65" width="63" height="50" rx="10" stroke-width="4" fill="#FFFFFF"></rect>
                <g id="Group-11">
                    <g id="Group-10">
                        <g id="Group-9">
                            <path d="M12,90 L35,90" id="Path-2" stroke="#000000" stroke-width="4"></path>
                            <rect id="Rectangle-2" fill="#C5E1A5" x="2" y="17" width="79" height="36"></rect>
                            <path d="M49,90 L72,90" id="Path-2" stroke="#000000" stroke-width="4"></path>
                            <path d="M24.7578947,43.1748252 C25.7340632,43.1748252 26.5263158,42.3853427 26.5263158,41.4125874 L26.5263158,36.1258741 L31.8315789,36.1258741 C32.8077474,36.1258741 33.6,35.3363916 33.6,34.3636364 C33.6,33.3908811 32.8077474,32.6013986 31.8315789,32.6013986 L26.5263158,32.6013986 L26.5263158,27.3146853 C26.5263158,26.3419301 25.7340632,25.5524476 24.7578947,25.5524476 C23.7817263,25.5524476 22.9894737,26.3419301 22.9894737,27.3146853 L22.9894737,32.6013986 L17.6842105,32.6013986 C16.7080421,32.6013986 15.9157895,33.3908811 15.9157895,34.3636364 C15.9157895,35.3363916 16.7080421,36.1258741 17.6842105,36.1258741 L22.9894737,36.1258741 L22.9894737,41.4125874 C22.9894737,42.3853427 23.7817263,43.1748252 24.7578947,43.1748252 L24.7578947,43.1748252 L24.7578947,43.1748252 Z" id="acumulator" fill="#F44336"></path>
                            <path d="M58.3578947,32.6013986 C57.3817263,32.6013986 56.5894737,33.3908811 56.5894737,34.3636364 C56.5894737,35.3363916 57.3817263,36.1258741 58.3578947,36.1258741 L72.5052632,36.1258741 C73.4814316,36.1258741 74.2736842,35.3363916 74.2736842,34.3636364 C74.2736842,33.3908811 73.4814316,32.6013986 72.5052632,32.6013986 L58.3578947,32.6013986 L58.3578947,32.6013986 L58.3578947,32.6013986 Z" id="acumulator-path" fill="#2196F3"></path>
                            <path d="M84,115.5 C84,121.2897 79.2897,126 73.5,126 L10.5,126 C4.7103,126 0,121.2897 0,115.5 L0,23.1 C0,17.3103 4.7103,12.6 10.5,12.6 L16.8,12.6 L16.8,6.3 C16.8,2.8266 19.6266,0 23.1,0 L60.9,0 C64.3734,0 67.2,2.8266 67.2,6.3 C67.2,7.4592 66.2613,8.4 65.1,8.4 C63.9387,8.4 63,7.4592 63,6.3 C63,5.1429 62.0592,4.2 60.9,4.2 L23.1,4.2 C21.9429,4.2 21,5.1429 21,6.3 C21,6.3 21.0592,16.8 18.9,16.8 L10.5,16.8 C7.0266,16.8 4.2,19.6266 4.2,23.1 L4.2,115.5 C4.2,118.9734 7.0266,121.8 10.5,121.8 L73.5,121.8 C76.9734,121.8 79.8,118.9734 79.8,115.5 L79.8,23.1 C79.8,19.6266 76.9734,16.8 73.5,16.8 L20,16.7999992 C18.8408,16.7999992 19.8408,12.6000004 21,12.6000004 L73.5,12.6 C79.2897,12.6 84,17.3103 84,23.1 L84,115.5 Z" id="battery" fill="#000000"></path>
                            <path d="M24.5,15 L14.5,15" id="Line" stroke="#000000" stroke-width="4" stroke-linecap="square"></path>
                            <path d="M36,75 L36,105.338423" id="Line" stroke="#000000" stroke-width="4" stroke-linecap="square"></path>
                            <path d="M48,81 L48,99.9615146" id="Line" stroke="#000000" stroke-width="4" stroke-linecap="square"></path>
                        </g>
                        <path d="M2.21052632,52.8671329 L81.0293489,52.8671329" id="Line" stroke="#000000" stroke-width="4" stroke-linecap="square"></path>
                    </g>
                </g>
            </g>
        </g>
    </g>
</svg>