<?xml version="1.0" encoding="UTF-8" standalone="no"?>
<svg version="1.1" xmlns="http://www.w3.org/2000/svg" xmlns:xlink="http://www.w3.org/1999/xlink">
    <!-- Generator: Sketch 39.1 (31720) - http://www.bohemiancoding.com/sketch -->
    <title>scheme1</title>
    <desc>Created with Sketch.</desc>
    <defs>
        <circle id="path-1" cx="37.5" cy="5.5" r="5.5"></circle>
        <mask id="mask-2" maskContentUnits="userSpaceOnUse" maskUnits="objectBoundingBox" x="0" y="0" width="11" height="11" fill="white">
            <use xlink:href="#path-1"></use>
        </mask>
        <circle id="path-3" cx="21.5" cy="5.5" r="5.5"></circle>
        <mask id="mask-4" maskContentUnits="userSpaceOnUse" maskUnits="objectBoundingBox" x="0" y="0" width="11" height="11" fill="white">
            <use xlink:href="#path-3"></use>
        </mask>
        <circle id="path-5" cx="5.5" cy="5.5" r="5.5"></circle>
        <mask id="mask-6" maskContentUnits="userSpaceOnUse" maskUnits="objectBoundingBox" x="0" y="0" width="11" height="11" fill="white">
            <use xlink:href="#path-5"></use>
        </mask>
        <rect id="path-7" x="302" y="334" width="63" height="50" rx="10"></rect>
        <mask id="mask-8" maskContentUnits="userSpaceOnUse" maskUnits="objectBoundingBox" x="0" y="0" width="63" height="50" fill="white">
            <use xlink:href="#path-7"></use>
        </mask>
    </defs>
    <g id="Page-1" stroke="none" stroke-width="1" fill="none" fill-rule="evenodd">
        <g id="scheme1">
            <path d="M333,0 C312.782,0 296.333333,16.4486667 296.333333,36.6666667 C296.333333,52.14 302.401667,63.6826667 315.434833,72.9923333 C315.497167,73.0363333 315.588833,73.0913333 315.656667,73.128 C315.752,73.1793333 317.724667,74.2811667 318.219667,77.3721667 C316.149833,78.1623333 314.666667,80.1551667 314.666667,82.5 C314.666667,83.908 315.198333,85.1931667 316.071,86.1666667 C315.198333,87.1401667 314.666667,88.4253333 314.666667,89.8333333 C314.666667,91.2413333 315.198333,92.5265 316.071,93.5 C315.198333,94.4735 314.666667,95.7586667 314.666667,97.1666667 C314.666667,100.199 317.134333,102.666667 320.166667,102.666667 C321.178667,102.666667 322,101.845333 322,100.833333 C322,99.8213333 321.178667,99 320.166667,99 C319.1565,99 318.333333,98.1768333 318.333333,97.1666667 C318.333333,96.1565 319.1565,95.3333333 320.166667,95.3333333 L338.5,95.3333333 C339.513833,95.3333333 340.333333,94.512 340.333333,93.5 C340.333333,92.488 339.513833,91.6666667 338.5,91.6666667 L320.166667,91.6666667 C319.1565,91.6666667 318.333333,90.8435 318.333333,89.8333333 C318.333333,88.8231667 319.1565,88 320.166667,88 L338.5,88 C339.513833,88 340.333333,87.1786667 340.333333,86.1666667 C340.333333,85.1546667 339.513833,84.3333333 338.5,84.3333333 L320.166667,84.3333333 C319.1565,84.3333333 318.333333,83.5101667 318.333333,82.5 C318.333333,81.4898333 319.1565,80.6666667 320.166667,80.6666667 L338.5,80.6666667 C339.513833,80.6666667 340.333333,79.8453333 340.333333,78.8333333 C340.333333,77.8213333 339.513833,77 338.5,77 L321.875333,77 C321.226333,72.3836667 318.234333,70.3835 317.4845,69.9508333 C305.391833,61.2846667 300,51.0161667 300,36.6666667 C300,18.4708333 314.804167,3.66666667 333,3.66666667 C351.195833,3.66666667 366,18.4708333 366,36.6666667 C366,51.0161667 360.608167,61.2846667 348.5155,69.9508333 C347.672167,70.4366667 344,72.9025 344,78.8333333 C344,79.8453333 344.8195,80.6666667 345.833333,80.6666667 C346.845333,80.6666667 347.666667,81.4898333 347.666667,82.5 C347.666667,83.5101667 346.845333,84.3333333 345.833333,84.3333333 C344.8195,84.3333333 344,85.1546667 344,86.1666667 C344,87.1786667 344.8195,88 345.833333,88 C346.845333,88 347.666667,88.8231667 347.666667,89.8333333 C347.666667,90.8435 346.845333,91.6666667 345.833333,91.6666667 C344.8195,91.6666667 344,92.488 344,93.5 C344,94.512 344.8195,95.3333333 345.833333,95.3333333 C346.845333,95.3333333 347.666667,96.1565 347.666667,97.1666667 C347.666667,98.2116667 346.878333,99 345.833333,99 L327.5,99 C326.488,99 325.666667,99.8213333 325.666667,100.833333 L325.666667,104.5 C325.666667,107.532333 328.134333,110 331.166667,110 L334.833333,110 C337.865667,110 340.333333,107.532333 340.333333,104.5 L340.333333,102.666667 L345.833333,102.666667 C348.918833,102.666667 351.333333,100.250333 351.333333,97.1666667 C351.333333,95.7586667 350.801667,94.4735 349.929,93.5 C350.801667,92.5265 351.333333,91.2413333 351.333333,89.8333333 C351.333333,88.4253333 350.801667,87.1401667 349.929,86.1666667 C350.801667,85.1931667 351.333333,83.908 351.333333,82.5 C351.333333,80.1551667 349.850167,78.1623333 347.7785,77.3721667 C348.2735,74.2811667 350.244333,73.1811667 350.3195,73.139 C350.405667,73.0968333 350.488167,73.0473333 350.565167,72.9923333 C363.5965,63.6826667 369.666667,52.14 369.666667,36.6666667 C369.666667,16.4486667 353.218,0 333,0 L333,0 L333,0 Z M336.666667,104.5 C336.666667,105.510167 335.845333,106.333333 334.833333,106.333333 L331.166667,106.333333 C330.1565,106.333333 329.333333,105.510167 329.333333,104.5 L329.333333,102.666667 L336.666667,102.666667 L336.666667,104.5 L336.666667,104.5 L336.666667,104.5 Z M338.5,71.5 C339.513833,71.5 340.333333,70.6786667 340.333333,69.6666667 L340.333333,44 L345.833333,44 C350.887833,44 355,39.8878333 355,34.8333333 C355,29.7788333 350.887833,25.6666667 345.833333,25.6666667 C340.778833,25.6666667 336.666667,29.7788333 336.666667,34.8333333 L336.666667,40.3333333 L329.333333,40.3333333 L329.333333,34.8333333 C329.333333,29.7788333 325.221167,25.6666667 320.166667,25.6666667 C315.112167,25.6666667 311,29.7788333 311,34.8333333 C311,39.8878333 315.112167,44 320.166667,44 L325.666667,44 L325.666667,69.6666667 C325.666667,70.6786667 326.488,71.5 327.5,71.5 C328.512,71.5 329.333333,70.6786667 329.333333,69.6666667 L329.333333,44 L336.666667,44 L336.666667,69.6666667 C336.666667,70.6786667 337.486167,71.5 338.5,71.5 L338.5,71.5 L338.5,71.5 Z M340.333333,34.8333333 C340.333333,31.801 342.801,29.3333333 345.833333,29.3333333 C348.865667,29.3333333 351.333333,31.801 351.333333,34.8333333 C351.333333,37.8656667 348.865667,40.3333333 345.833333,40.3333333 L340.333333,40.3333333 L340.333333,34.8333333 L340.333333,34.8333333 L340.333333,34.8333333 Z M325.666667,40.3333333 L320.166667,40.3333333 C317.134333,40.3333333 314.666667,37.8656667 314.666667,34.8333333 C314.666667,31.801 317.134333,29.3333333 320.166667,29.3333333 C323.199,29.3333333 325.666667,31.801 325.666667,34.8333333 L325.666667,40.3333333 L325.666667,40.3333333 L325.666667,40.3333333 Z M388,36.6666667 C388,37.6786667 387.1805,38.5 386.166667,38.5 L377,38.5 C375.986167,38.5 375.166667,37.6786667 375.166667,36.6666667 C375.166667,35.6546667 375.986167,34.8333333 377,34.8333333 L386.166667,34.8333333 C387.1805,34.8333333 388,35.6546667 388,36.6666667 L388,36.6666667 L388,36.6666667 Z M383.587167,20.2051667 L374.972333,23.3401667 C374.767,23.4171667 374.554333,23.452 374.347167,23.452 C373.597333,23.452 372.895167,22.99 372.623833,22.2456667 C372.277333,21.2941667 372.766833,20.2418333 373.720167,19.8953333 L382.333167,16.7603333 C383.282833,16.412 384.337,16.9051667 384.681667,17.8548333 C385.03,18.8063333 384.538667,19.8586667 383.587167,20.2051667 L383.587167,20.2051667 L383.587167,20.2051667 Z M365.3015,9.5645 C364.650667,8.78716667 364.7515,7.63216667 365.527,6.98133333 L372.548667,1.08716667 C373.327833,0.436333333 374.484667,0.540833333 375.13,1.31266667 C375.782667,2.09 375.68,3.245 374.9045,3.89583333 L367.882833,9.79 C367.54,10.0778333 367.122,10.219 366.707667,10.219 C366.183333,10.219 365.662667,9.99533333 365.3015,9.5645 L365.3015,9.5645 L365.3015,9.5645 Z M290.829667,36.6703333 C290.829667,37.6823333 290.008333,38.5036667 288.996333,38.5036667 L279.833333,38.5036667 C278.821333,38.5036667 278,37.6823333 278,36.6703333 C278,35.6583333 278.821333,34.837 279.833333,34.837 L288.996333,34.837 C290.008333,34.837 290.829667,35.6583333 290.829667,36.6703333 L290.829667,36.6703333 L290.829667,36.6703333 Z M293.3725,22.2475 C293.101167,22.9918333 292.397167,23.4556667 291.649167,23.4556667 C291.440167,23.4556667 291.229333,23.419 291.022167,23.3438333 L282.411,20.2106667 C281.4595,19.8641667 280.97,18.8118333 281.314667,17.8603333 C281.663,16.9088333 282.7135,16.4193333 283.665,16.764 L292.276167,19.8971667 C293.227667,20.2436667 293.719,21.296 293.3725,22.2475 L293.3725,22.2475 L293.3725,22.2475 Z M291.09,3.8995 C290.3145,3.24866667 290.213667,2.09366667 290.8645,1.31633333 C291.517167,0.542666667 292.672167,0.441833333 293.447667,1.09083333 L300.465667,6.98133333 C301.241167,7.63216667 301.342,8.789 300.691167,9.5645 C300.33,9.99716667 299.809333,10.219 299.286833,10.219 C298.870667,10.219 298.452667,10.0796667 298.108,9.79 L291.09,3.8995 L291.09,3.8995 L291.09,3.8995 Z" id="light-bulb" fill="#000000"></path>
            <g id="Rectangle-3">
                <title>амперметър</title>
                <rect fill="#DDDDDD" x="2" y="169" width="73" height="100" rx="5"></rect>
            </g>
            <g id="Rectangle-4">
                <title>амперметър</title>
                <rect id="Rectangle-4" fill="#FFFFFF" x="20" y="179" width="39" height="20"></rect>
            </g>
            <g id="ampere-meter">
                <title>амперметър</title>
                <path d="M78,263.166667 C78,268.037367 68.7055892,272 63.8181801,272 C62.8378619,272 62.0196818,268.466667 63,268.466667 C65.9320909,268.466667 74.4545455,266.088733 74.4545455,263.166667 L74.4545455,174.833333 C74.4545455,171.911267 72.0684545,169.533333 69.1363636,169.533333 L8.86363636,169.533333 C5.93154545,169.533333 3.54545455,171.911267 3.54545455,174.833333 L3.54545455,263.166667 C3.54545455,266.088733 5.93154545,268.466667 8.86363636,268.466667 L62.0454545,268.466667 C63.0257727,268.466667 63.8181818,269.258133 63.8181818,270.233333 C63.8181818,271.208533 63.0257727,272 62.0454545,272 L8.86363636,272 C3.97622727,272 0,268.037367 0,263.166667 L0,174.833333 C0,169.962633 3.97622727,166 8.86363636,166 L69.1363636,166 C74.0237727,166 78,169.962633 78,174.833333 L78,263.166667 Z M58.5,176.6 L19.5,176.6 C18.5196818,176.6 17.7272727,177.391467 17.7272727,178.366667 L17.7272727,199.566667 C17.7272727,200.541867 18.5196818,201.333333 19.5,201.333333 L39,201.333333 C39.6435,201.333333 40.2373636,200.9853 40.5511364,200.4235 C40.8631364,199.8617 40.8454091,199.174467 40.5032727,198.630333 L35.8002273,197.8 L21.2727273,197.8 L21.2727273,180.133333 L56.7272727,180.133333 L56.7272727,197.8 L46.0909091,197.8 C45.1105909,197.8 44.3181818,198.591467 44.3181818,199.566667 C44.3181818,200.541867 45.1105909,201.333333 46.0909091,201.333333 L58.5,201.333333 C59.4803182,201.333333 60.2727273,200.541867 60.2727273,199.566667 L60.2727273,178.366667 C60.2727273,177.391467 59.4803182,176.6 58.5,176.6 Z M55.9100455,245.5 C55.6973182,246.169567 55.4367273,246.817933 55.1477727,247.452167 L56.7733636,248.386733 C57.6225,248.874333 57.9132273,249.953767 57.4239545,250.8 C57.0942273,251.3671 56.4985909,251.683333 55.8852273,251.683333 C55.5856364,251.683333 55.2807273,251.607367 55.0006364,251.4466 L53.3679545,250.5085 C52.2511364,252.0508 50.8914545,253.404067 49.3420909,254.518833 L50.2851818,256.145933 C50.7762273,256.992167 50.4837273,258.0716 49.6363636,258.560967 C49.3580455,258.719967 49.0531364,258.795933 48.7517727,258.795933 C48.1384091,258.795933 47.5427727,258.4797 47.2148182,257.9126 L46.2752727,256.292567 C44.5663636,257.062833 42.7191818,257.584 40.7727273,257.776567 L40.7727273,259.633333 C40.7727273,260.608533 39.9803182,261.4 39,261.4 C38.0196818,261.4 37.2272727,260.608533 37.2272727,259.633333 L37.2272727,257.776567 C35.2808182,257.584 33.4336364,257.062833 31.7229545,256.292567 L30.7851818,257.9126 C30.4572273,258.4797 29.8615909,258.795933 29.2482273,258.795933 C28.9468636,258.795933 28.6419545,258.719967 28.3636364,258.560967 C27.5162727,258.073367 27.2237727,256.992167 27.7148182,256.145933 L28.6579091,254.518833 C27.1085455,253.404067 25.7488636,252.0508 24.6320455,250.506733 L22.9993636,251.4466 C22.7192727,251.607367 22.4161364,251.683333 22.1147727,251.683333 C21.5014091,251.683333 20.9057727,251.3671 20.5760455,250.8 C20.0867727,249.955533 20.3775,248.874333 21.2266364,248.386733 L22.8522273,247.4504 C22.0793182,245.747333 21.5563636,243.906467 21.3631364,241.966667 L19.5,241.966667 C18.5196818,241.966667 17.7272727,241.1752 17.7272727,240.2 C17.7272727,239.2248 18.5196818,238.433333 19.5,238.433333 L21.3631364,238.433333 C21.5563636,236.493533 22.0793182,234.652667 22.8522273,232.9496 L21.2266364,232.013267 C20.3775,231.525667 20.0867727,230.444467 20.5760455,229.6 C21.0670909,228.753767 22.1502273,228.4658 22.9993636,228.9534 L24.6338182,229.8915 C25.7488636,228.3492 27.1085455,226.995933 28.6579091,225.881167 L27.7148182,224.254067 C27.2237727,223.4096 27.5162727,222.3284 28.3636364,221.839033 C29.2092273,221.351433 30.2941364,221.641167 30.7851818,222.4874 L31.7229545,224.107433 C33.4336364,223.337167 35.2808182,222.816 37.2272727,222.623433 L37.2272727,220.766667 C37.2272727,219.791467 38.0196818,219 39,219 C39.9803182,219 40.7727273,219.791467 40.7727273,220.766667 L40.7727273,222.623433 C42.7191818,222.816 44.5663636,223.337167 46.2752727,224.107433 L47.2148182,222.4874 C47.7040909,221.641167 48.7907727,221.351433 49.6363636,221.839033 C50.4837273,222.3284 50.7762273,223.407833 50.2851818,224.254067 L49.3420909,225.881167 C50.8914545,226.995933 52.2511364,228.3492 53.3679545,229.8915 L55.0006364,228.9534 C55.8462273,228.4658 56.9311364,228.753767 57.4239545,229.6 C57.9132273,230.444467 57.6225,231.525667 56.7733636,232.013267 L55.1477727,232.947833 C56.1546818,235.165 56.7272727,237.615367 56.7272727,240.2 C56.7272727,240.795367 56.6953636,241.385433 56.6368636,241.966667 L58.5,241.966667 C59.4803182,241.966667 60.2727273,242.758133 60.2727273,243.733333 C60.2727273,244.708533 59.4803182,245.5 58.5,245.5 L55.9100455,245.5 Z M39,226.066667 C31.1822727,226.066667 24.8217273,232.4037 24.8181818,240.192933 C24.8217273,247.9963 31.1805,254.331567 38.9964545,254.333333 C46.8212727,254.331567 53.1818182,247.992767 53.1818182,240.2 C53.1818182,232.407233 46.8195,226.066667 39,226.066667 Z" fill="#000000"></path>
            </g>
            <g id="circles" transform="translate(18.000000, 205.000000)" stroke-width="7" fill="#FFFFFF">
                <title>амперметър</title>
                <use id="Oval-5" stroke="#F44336" mask="url(#mask-2)" xlink:href="#path-1"></use>
                <use id="Oval-5" stroke="#F44336" mask="url(#mask-4)" xlink:href="#path-3"></use>
                <use id="Oval-5" stroke="#000000" mask="url(#mask-6)" xlink:href="#path-5"></use>
            </g>
            <g id="ampere-meter-path">
                <title>амперметър</title>
                <path d="M39,226.066667 C31.1822727,226.066667 24.8217273,232.4037 24.8181818,240.192933 C24.8217273,247.9963 31.1805,254.331567 38.9964545,254.333333 C46.8212727,254.331567 53.1818182,247.992767 53.1818182,240.2 C53.1818182,232.407233 46.8195,226.066667 39,226.066667 Z" fill="#FFFFFF"></path>
            </g>
            <g id="A">
                <title>ампер метър</title>
                <text font-family="Roboto-Bold, Roboto" font-size="23" font-weight="bold" fill="#000000">
                    <tspan x="31.6384277" y="248">A</tspan>
                </text>
            </g>
            <path d="M52.5,270.1 L64.5,270.1" id="Line" stroke="#000000" stroke-width="3" stroke-linecap="square"></path>
            <path d="M38,79 L319,79" id="Path-2" stroke="#000000" stroke-width="4"></path>
            <path d="M348,79 L628,79" id="Path-2" stroke="#000000" stroke-width="4"></path>
            <path d="M370.998055,360 L628,360" id="Path-2" stroke="#000000" stroke-width="4"></path>
            <path d="M38,360 L293,360" id="Path-2" stroke="#000000" stroke-width="4"></path>
            <path d="M626,79 L626,358.01001" id="Path-2" stroke="#000000" stroke-width="4"></path>
            <path d="M40,77 L40,166" id="Path-2" stroke="#000000" stroke-width="4"></path>
            <path d="M40,270.994536 L40,362" id="Path-2" stroke="#000000" stroke-width="4"></path>
            <rect id="Rectangle-bat" fill="#DEDEDE" x="291" y="317" width="84" height="79" rx="10">
                <title>батерия</title>
            </rect>
            <use id="label" stroke="#000000" mask="url(#mask-8)" stroke-width="8" fill="#FFFFFF" xlink:href="#path-7">
                <title>батерия</title>
            </use>
            <rect id="Rectangle-2" transform="translate(291.000000, 269.000000)" fill="#C5E1A5" x="2" y="17" width="79" height="36">     <title>батерия</title>
            </rect>
            <g id="Group-11" transform="translate(291.000000, 269.000000)">
                <title>батерия</title>
                <g id="Group-10">
                   <g id="Group-9">
                        <path d="M12,90 L35,90" id="Path-3" stroke="#000000" stroke-width="4"></path>
                        <path d="M49,90 L72,90" id="Path-3" stroke="#000000" stroke-width="4"></path>
                        <path d="M24.7578947,43.1748252 C25.7340632,43.1748252 26.5263158,42.3853427 26.5263158,41.4125874 L26.5263158,36.1258741 L31.8315789,36.1258741 C32.8077474,36.1258741 33.6,35.3363916 33.6,34.3636364 C33.6,33.3908811 32.8077474,32.6013986 31.8315789,32.6013986 L26.5263158,32.6013986 L26.5263158,27.3146853 C26.5263158,26.3419301 25.7340632,25.5524476 24.7578947,25.5524476 C23.7817263,25.5524476 22.9894737,26.3419301 22.9894737,27.3146853 L22.9894737,32.6013986 L17.6842105,32.6013986 C16.7080421,32.6013986 15.9157895,33.3908811 15.9157895,34.3636364 C15.9157895,35.3363916 16.7080421,36.1258741 17.6842105,36.1258741 L22.9894737,36.1258741 L22.9894737,41.4125874 C22.9894737,42.3853427 23.7817263,43.1748252 24.7578947,43.1748252 L24.7578947,43.1748252 L24.7578947,43.1748252 Z" id="acumulator" fill="#F44336"></path>
                        <path d="M58.3578947,32.6013986 C57.3817263,32.6013986 56.5894737,33.3908811 56.5894737,34.3636364 C56.5894737,35.3363916 57.3817263,36.1258741 58.3578947,36.1258741 L72.5052632,36.1258741 C73.4814316,36.1258741 74.2736842,35.3363916 74.2736842,34.3636364 C74.2736842,33.3908811 73.4814316,32.6013986 72.5052632,32.6013986 L58.3578947,32.6013986 L58.3578947,32.6013986 L58.3578947,32.6013986 Z" id="acumulator-path" fill="#2196F3"></path>
                        <path d="M84,115.5 C84,121.2897 79.2897,126 73.5,126 L10.5,126 C4.7103,126 0,121.2897 0,115.5 L0,23.1 C0,17.3103 4.7103,12.6 10.5,12.6 L16.8,12.6 L16.8,6.3 C16.8,2.8266 19.6266,0 23.1,0 L60.9,0 C64.3734,0 67.2,2.8266 67.2,6.3 C67.2,7.4592 66.2613,8.4 65.1,8.4 C63.9387,8.4 63,7.4592 63,6.3 C63,5.1429 62.0592,4.2 60.9,4.2 L23.1,4.2 C21.9429,4.2 21,5.1429 21,6.3 C21,6.3 21.0592,16.8 18.9,16.8 L10.5,16.8 C7.0266,16.8 4.2,19.6266 4.2,23.1 L4.2,115.5 C4.2,118.9734 7.0266,121.8 10.5,121.8 L73.5,121.8 C76.9734,121.8 79.8,118.9734 79.8,115.5 L79.8,23.1 C79.8,19.6266 76.9734,16.8 73.5,16.8 L20,16.7999992 C18.8408,16.7999992 19.8408,12.6000004 21,12.6000004 L73.5,12.6 C79.2897,12.6 84,17.3103 84,23.1 L84,115.5 Z" id="battery" fill="#000000"></path>
                        <path d="M24.5,15 L14.5,15" id="Line" stroke="#000000" stroke-width="4" stroke-linecap="square"></path>
                        <path d="M36,75 L36,105.338423" id="Line" stroke="#000000" stroke-width="4" stroke-linecap="square"></path>
                        <path d="M48,81 L48,99.9615146" id="Line" stroke="#000000" stroke-width="4" stroke-linecap="square"></path>
                    </g>
                    <path d="M2.21052632,52.8671329 L81.0293489,52.8671329" id="Line" stroke="#000000" stroke-width="4" stroke-linecap="square"></path>
                </g>
            </g>
        </g>
    </g>
</svg>