<?xml version="1.0" encoding="UTF-8" standalone="no"?>
<svg width="78px" height="106px" viewBox="0 0 78 106" version="1.1" xmlns="http://www.w3.org/2000/svg" xmlns:xlink="http://www.w3.org/1999/xlink">
    <!-- Generator: Sketch 39.1 (31720) - http://www.bohemiancoding.com/sketch -->
    <title>ampermeter</title>
    <desc>Created with Sketch.</desc>
    <defs>
        <circle id="path-1" cx="37.5" cy="5.5" r="5.5"></circle>
        <mask id="mask-2" maskContentUnits="userSpaceOnUse" maskUnits="objectBoundingBox" x="0" y="0" width="11" height="11" fill="white">
            <use xlink:href="#path-1"></use>
        </mask>
        <circle id="path-3" cx="21.5" cy="5.5" r="5.5"></circle>
        <mask id="mask-4" maskContentUnits="userSpaceOnUse" maskUnits="objectBoundingBox" x="0" y="0" width="11" height="11" fill="white">
            <use xlink:href="#path-3"></use>
        </mask>
        <circle id="path-5" cx="5.5" cy="5.5" r="5.5"></circle>
        <mask id="mask-6" maskContentUnits="userSpaceOnUse" maskUnits="objectBoundingBox" x="0" y="0" width="11" height="11" fill="white">
            <use xlink:href="#path-5"></use>
        </mask>
        <rect id="path-7" x="302" y="334" width="63" height="50" rx="10"></rect>
        <mask id="mask-8" maskContentUnits="userSpaceOnUse" maskUnits="objectBoundingBox" x="0" y="0" width="63" height="50" fill="white">
            <use xlink:href="#path-7"></use>
        </mask>
    </defs>
    <g id="Page-1" stroke="none" stroke-width="1" fill="none" fill-rule="evenodd" transform="translate(0, -166.000000)">
        <title>волтметър</title>
        <g id="voltmeter">
            <rect id="Rectangle-3" fill="#DDDDDD" x="2" y="169" width="73" height="100" rx="5"></rect>
            <rect id="Rectangle-4" fill="#FFFFFF" x="20" y="179" width="39" height="20"></rect>
            <path d="M78,263.166667 C78,268.037367 68.7055892,272 63.8181801,272 C62.8378619,272 62.0196818,268.466667 63,268.466667 C65.9320909,268.466667 74.4545455,266.088733 74.4545455,263.166667 L74.4545455,174.833333 C74.4545455,171.911267 72.0684545,169.533333 69.1363636,169.533333 L8.86363636,169.533333 C5.93154545,169.533333 3.54545455,171.911267 3.54545455,174.833333 L3.54545455,263.166667 C3.54545455,266.088733 5.93154545,268.466667 8.86363636,268.466667 L62.0454545,268.466667 C63.0257727,268.466667 63.8181818,269.258133 63.8181818,270.233333 C63.8181818,271.208533 63.0257727,272 62.0454545,272 L8.86363636,272 C3.97622727,272 0,268.037367 0,263.166667 L0,174.833333 C0,169.962633 3.97622727,166 8.86363636,166 L69.1363636,166 C74.0237727,166 78,169.962633 78,174.833333 L78,263.166667 Z M58.5,176.6 L19.5,176.6 C18.5196818,176.6 17.7272727,177.391467 17.7272727,178.366667 L17.7272727,199.566667 C17.7272727,200.541867 18.5196818,201.333333 19.5,201.333333 L39,201.333333 C39.6435,201.333333 40.2373636,200.9853 40.5511364,200.4235 C40.8631364,199.8617 40.8454091,199.174467 40.5032727,198.630333 L35.8002273,197.8 L21.2727273,197.8 L21.2727273,180.133333 L56.7272727,180.133333 L56.7272727,197.8 L46.0909091,197.8 C45.1105909,197.8 44.3181818,198.591467 44.3181818,199.566667 C44.3181818,200.541867 45.1105909,201.333333 46.0909091,201.333333 L58.5,201.333333 C59.4803182,201.333333 60.2727273,200.541867 60.2727273,199.566667 L60.2727273,178.366667 C60.2727273,177.391467 59.4803182,176.6 58.5,176.6 Z M55.9100455,245.5 C55.6973182,246.169567 55.4367273,246.817933 55.1477727,247.452167 L56.7733636,248.386733 C57.6225,248.874333 57.9132273,249.953767 57.4239545,250.8 C57.0942273,251.3671 56.4985909,251.683333 55.8852273,251.683333 C55.5856364,251.683333 55.2807273,251.607367 55.0006364,251.4466 L53.3679545,250.5085 C52.2511364,252.0508 50.8914545,253.404067 49.3420909,254.518833 L50.2851818,256.145933 C50.7762273,256.992167 50.4837273,258.0716 49.6363636,258.560967 C49.3580455,258.719967 49.0531364,258.795933 48.7517727,258.795933 C48.1384091,258.795933 47.5427727,258.4797 47.2148182,257.9126 L46.2752727,256.292567 C44.5663636,257.062833 42.7191818,257.584 40.7727273,257.776567 L40.7727273,259.633333 C40.7727273,260.608533 39.9803182,261.4 39,261.4 C38.0196818,261.4 37.2272727,260.608533 37.2272727,259.633333 L37.2272727,257.776567 C35.2808182,257.584 33.4336364,257.062833 31.7229545,256.292567 L30.7851818,257.9126 C30.4572273,258.4797 29.8615909,258.795933 29.2482273,258.795933 C28.9468636,258.795933 28.6419545,258.719967 28.3636364,258.560967 C27.5162727,258.073367 27.2237727,256.992167 27.7148182,256.145933 L28.6579091,254.518833 C27.1085455,253.404067 25.7488636,252.0508 24.6320455,250.506733 L22.9993636,251.4466 C22.7192727,251.607367 22.4161364,251.683333 22.1147727,251.683333 C21.5014091,251.683333 20.9057727,251.3671 20.5760455,250.8 C20.0867727,249.955533 20.3775,248.874333 21.2266364,248.386733 L22.8522273,247.4504 C22.0793182,245.747333 21.5563636,243.906467 21.3631364,241.966667 L19.5,241.966667 C18.5196818,241.966667 17.7272727,241.1752 17.7272727,240.2 C17.7272727,239.2248 18.5196818,238.433333 19.5,238.433333 L21.3631364,238.433333 C21.5563636,236.493533 22.0793182,234.652667 22.8522273,232.9496 L21.2266364,232.013267 C20.3775,231.525667 20.0867727,230.444467 20.5760455,229.6 C21.0670909,228.753767 22.1502273,228.4658 22.9993636,228.9534 L24.6338182,229.8915 C25.7488636,228.3492 27.1085455,226.995933 28.6579091,225.881167 L27.7148182,224.254067 C27.2237727,223.4096 27.5162727,222.3284 28.3636364,221.839033 C29.2092273,221.351433 30.2941364,221.641167 30.7851818,222.4874 L31.7229545,224.107433 C33.4336364,223.337167 35.2808182,222.816 37.2272727,222.623433 L37.2272727,220.766667 C37.2272727,219.791467 38.0196818,219 39,219 C39.9803182,219 40.7727273,219.791467 40.7727273,220.766667 L40.7727273,222.623433 C42.7191818,222.816 44.5663636,223.337167 46.2752727,224.107433 L47.2148182,222.4874 C47.7040909,221.641167 48.7907727,221.351433 49.6363636,221.839033 C50.4837273,222.3284 50.7762273,223.407833 50.2851818,224.254067 L49.3420909,225.881167 C50.8914545,226.995933 52.2511364,228.3492 53.3679545,229.8915 L55.0006364,228.9534 C55.8462273,228.4658 56.9311364,228.753767 57.4239545,229.6 C57.9132273,230.444467 57.6225,231.525667 56.7733636,232.013267 L55.1477727,232.947833 C56.1546818,235.165 56.7272727,237.615367 56.7272727,240.2 C56.7272727,240.795367 56.6953636,241.385433 56.6368636,241.966667 L58.5,241.966667 C59.4803182,241.966667 60.2727273,242.758133 60.2727273,243.733333 C60.2727273,244.708533 59.4803182,245.5 58.5,245.5 L55.9100455,245.5 Z M39,226.066667 C31.1822727,226.066667 24.8217273,232.4037 24.8181818,240.192933 C24.8217273,247.9963 31.1805,254.331567 38.9964545,254.333333 C46.8212727,254.331567 53.1818182,247.992767 53.1818182,240.2 C53.1818182,232.407233 46.8195,226.066667 39,226.066667 Z" id="ampere-meter" fill="#000000"></path>
            <g id="circles" transform="translate(18.000000, 205.000000)" stroke-width="7" fill="#FFFFFF">
                <use id="Oval-5" stroke="#F44336" mask="url(#mask-2)" xlink:href="#path-1"></use>
                <use id="Oval-5" stroke="#F44336" mask="url(#mask-4)" xlink:href="#path-3"></use>
                <use id="Oval-5" stroke="#000000" mask="url(#mask-6)" xlink:href="#path-5"></use>
            </g>
            <path d="M39,226.066667 C31.1822727,226.066667 24.8217273,232.4037 24.8181818,240.192933 C24.8217273,247.9963 31.1805,254.331567 38.9964545,254.333333 C46.8212727,254.331567 53.1818182,247.992767 53.1818182,240.2 C53.1818182,232.407233 46.8195,226.066667 39,226.066667 Z" id="ampere-meter-path" fill="#FFFFFF"></path>
            <text id="V" font-family="Roboto-Bold, Roboto" font-size="23" font-weight="bold" fill="#000000">
                <tspan x="31.6384277" y="248">V</tspan>
            </text>
            <path d="M52.5,270.1 L64.5,270.1" id="Line" stroke="#000000" stroke-width="3" stroke-linecap="square"></path>
        </g>
    </g>
</svg>