<?xml version="1.0" encoding="UTF-8" standalone="no"?>
<svg width="110px" height="110px" viewBox="0 0 110 110" version="1.1" xmlns="http://www.w3.org/2000/svg" xmlns:xlink="http://www.w3.org/1999/xlink">
    <!-- Generator: Sketch 39.1 (31720) - http://www.bohemiancoding.com/sketch -->
    <title>bulb light</title>
    <desc>Created with Sketch.</desc>
    <defs></defs>
    <g id="Page-1" stroke="none" stroke-width="1" fill="none" fill-rule="evenodd">
        <path d="M46.1265771,80.6666667 C47.8916058,81.3046928 50.7982674,81.0609813 55.5,81 C60.8338715,80.9308198 63.684555,80.9746501 66,81 C66.32193,81.0035245 66.649934,80.8105656 66.9894199,80.4615129 C67.2419075,80.5925878 67.5288566,80.6666667 67.8333333,80.6666667 C68.8453333,80.6666667 69.6666667,81.4898333 69.6666667,82.5 C69.6666667,83.5101667 68.8453333,84.3333333 67.8333333,84.3333333 C66.8195,84.3333333 66,85.1546667 66,86.1666667 C66,87.1786667 66.8195,88 67.8333333,88 C68.8453333,88 69.6666667,88.8231667 69.6666667,89.8333333 C69.6666667,90.8435 68.8453333,91.6666667 67.8333333,91.6666667 C66.8195,91.6666667 66,92.488 66,93.5 C66,94.512 66.8195,95.3333333 67.8333333,95.3333333 C68.8453333,95.3333333 69.6666667,96.1565 69.6666667,97.1666667 C69.6666667,98.2116667 68.8783333,99 67.8333333,99 L49.5,99 C48.488,99 47.6666667,99.8213333 47.6666667,100.833333 L47.6666667,104.5 C47.6666667,107.532333 50.1343333,110 53.1666667,110 L56.8333333,110 C59.8656667,110 62.3333333,107.532333 62.3333333,104.5 L62.3333333,102.666667 L67.8333333,102.666667 C70.9188333,102.666667 73.3333333,100.250333 73.3333333,97.1666667 C73.3333333,95.7586667 72.8016667,94.4735 71.929,93.5 C72.8016667,92.5265 73.3333333,91.2413333 73.3333333,89.8333333 C73.3333333,88.4253333 72.8016667,87.1401667 71.929,86.1666667 C72.8016667,85.1931667 73.3333333,83.908 73.3333333,82.5 C73.3333333,80.1551667 71.8501667,78.1623333 69.7785,77.3721667 C70.2735,74.2811667 72.2443333,73.1811667 72.3195,73.139 C72.4056667,73.0968333 72.4881667,73.0473333 72.5651667,72.9923333 C85.5965,63.6826667 91.6666667,52.14 91.6666667,36.6666667 C91.6666667,16.4486667 75.218,0 55,0 C34.782,0 18.3333333,16.4486667 18.3333333,36.6666667 C18.3333333,52.14 24.4016667,63.6826667 37.4348333,72.9923333 C37.4971667,73.0363333 37.5888333,73.0913333 37.6566667,73.128 C37.752,73.1793333 39.7246667,74.2811667 40.2196667,77.3721667 C38.1498333,78.1623333 36.6666667,80.1551667 36.6666667,82.5 C36.6666667,83.908 37.1983333,85.1931667 38.071,86.1666667 C37.1983333,87.1401667 36.6666667,88.4253333 36.6666667,89.8333333 C36.6666667,91.2413333 37.1983333,92.5265 38.071,93.5 C37.1983333,94.4735 36.6666667,95.7586667 36.6666667,97.1666667 C36.6666667,100.199 39.1343333,102.666667 42.1666667,102.666667 C43.1786667,102.666667 44,101.845333 44,100.833333 C44,99.8213333 43.1786667,99 42.1666667,99 C41.1565,99 40.3333333,98.1768333 40.3333333,97.1666667 C40.3333333,96.1565 41.1565,95.3333333 42.1666667,95.3333333 L60.5,95.3333333 C61.5138333,95.3333333 62.3333333,94.512 62.3333333,93.5 C62.3333333,92.488 61.5138333,91.6666667 60.5,91.6666667 L42.1666667,91.6666667 C41.1565,91.6666667 40.3333333,90.8435 40.3333333,89.8333333 C40.3333333,88.8231667 41.1565,88 42.1666667,88 L60.5,88 C61.5138333,88 62.3333333,87.1786667 62.3333333,86.1666667 C62.3333333,85.1546667 61.5138333,84.3333333 60.5,84.3333333 L42.1666667,84.3333333 C41.1565,84.3333333 40.3333333,83.5101667 40.3333333,82.5 C40.3333333,81.4898333 41.1565,80.6666667 42.1666667,80.6666667 L46.1265771,80.6666667 Z M58.6666667,104.5 C58.6666667,105.510167 57.8453333,106.333333 56.8333333,106.333333 L53.1666667,106.333333 C52.1565,106.333333 51.3333333,105.510167 51.3333333,104.5 L51.3333333,102.666667 L58.6666667,102.666667 L58.6666667,104.5 Z M60.5,71.5 C61.5138333,71.5 62.3333333,70.6786667 62.3333333,69.6666667 L62.3333333,44 L67.8333333,44 C72.8878333,44 77,39.8878333 77,34.8333333 C77,29.7788333 72.8878333,25.6666667 67.8333333,25.6666667 C62.7788333,25.6666667 58.6666667,29.7788333 58.6666667,34.8333333 L58.6666667,40.3333333 L51.3333333,40.3333333 L51.3333333,34.8333333 C51.3333333,29.7788333 47.2211667,25.6666667 42.1666667,25.6666667 C37.1121667,25.6666667 33,29.7788333 33,34.8333333 C33,39.8878333 37.1121667,44 42.1666667,44 L47.6666667,44 L47.6666667,69.6666667 C47.6666667,70.6786667 48.488,71.5 49.5,71.5 C50.512,71.5 51.3333333,70.6786667 51.3333333,69.6666667 L51.3333333,44 L58.6666667,44 L58.6666667,69.6666667 C58.6666667,70.6786667 59.4861667,71.5 60.5,71.5 Z M62.3333333,34.8333333 C62.3333333,31.801 64.801,29.3333333 67.8333333,29.3333333 C70.8656667,29.3333333 73.3333333,31.801 73.3333333,34.8333333 C73.3333333,37.8656667 70.8656667,40.3333333 67.8333333,40.3333333 L62.3333333,40.3333333 L62.3333333,34.8333333 Z M47.6666667,40.3333333 L42.1666667,40.3333333 C39.1343333,40.3333333 36.6666667,37.8656667 36.6666667,34.8333333 C36.6666667,31.801 39.1343333,29.3333333 42.1666667,29.3333333 C45.199,29.3333333 47.6666667,31.801 47.6666667,34.8333333 L47.6666667,40.3333333 Z" id="Combined-Shape" fill="#FFE676"></path>
        <path d="M110,36.6666667 C110,37.6786667 109.1805,38.5 108.166667,38.5 L99,38.5 C97.9861667,38.5 97.1666667,37.6786667 97.1666667,36.6666667 C97.1666667,35.6546667 97.9861667,34.8333333 99,34.8333333 L108.166667,34.8333333 C109.1805,34.8333333 110,35.6546667 110,36.6666667 Z M105.587167,20.2051667 L96.9723333,23.3401667 C96.767,23.4171667 96.5543333,23.452 96.3471667,23.452 C95.5973333,23.452 94.8951667,22.99 94.6238333,22.2456667 C94.2773333,21.2941667 94.7668333,20.2418333 95.7201667,19.8953333 L104.333167,16.7603333 C105.282833,16.412 106.337,16.9051667 106.681667,17.8548333 C107.03,18.8063333 106.538667,19.8586667 105.587167,20.2051667 Z M87.3015,9.5645 C86.6506667,8.78716667 86.7515,7.63216667 87.527,6.98133333 L94.5486667,1.08716667 C95.3278333,0.436333333 96.4846667,0.540833333 97.13,1.31266667 C97.7826667,2.09 97.68,3.245 96.9045,3.89583333 L89.8828333,9.79 C89.54,10.0778333 89.122,10.219 88.7076667,10.219 C88.1833333,10.219 87.6626667,9.99533333 87.3015,9.5645 Z M12.8296667,36.6703333 C12.8296667,37.6823333 12.0083333,38.5036667 10.9963333,38.5036667 L1.83333333,38.5036667 C0.821333333,38.5036667 0,37.6823333 0,36.6703333 C0,35.6583333 0.821333333,34.837 1.83333333,34.837 L10.9963333,34.837 C12.0083333,34.837 12.8296667,35.6583333 12.8296667,36.6703333 Z M15.3725,22.2475 C15.1011667,22.9918333 14.3971667,23.4556667 13.6491667,23.4556667 C13.4401667,23.4556667 13.2293333,23.419 13.0221667,23.3438333 L4.411,20.2106667 C3.4595,19.8641667 2.97,18.8118333 3.31466667,17.8603333 C3.663,16.9088333 4.7135,16.4193333 5.665,16.764 L14.2761667,19.8971667 C15.2276667,20.2436667 15.719,21.296 15.3725,22.2475 Z M13.09,3.8995 C12.3145,3.24866667 12.2136667,2.09366667 12.8645,1.31633333 C13.5171667,0.542666667 14.6721667,0.441833333 15.4476667,1.09083333 L22.4656667,6.98133333 C23.2411667,7.63216667 23.342,8.789 22.6911667,9.5645 C22.33,9.99716667 21.8093333,10.219 21.2868333,10.219 C20.8706667,10.219 20.4526667,10.0796667 20.108,9.79 L13.09,3.8995 Z" id="Combined-Shape" fill="#FFE676"></path>
        <path d="M60.5,71.5 C61.5138333,71.5 62.3333333,70.6786667 62.3333333,69.6666667 L62.3333333,44 L67.8333333,44 C72.8878333,44 77,39.8878333 77,34.8333333 C77,29.7788333 72.8878333,25.6666667 67.8333333,25.6666667 C62.7788333,25.6666667 58.6666667,29.7788333 58.6666667,34.8333333 L58.6666667,40.3333333 L51.3333333,40.3333333 L51.3333333,34.8333333 C51.3333333,29.7788333 47.2211667,25.6666667 42.1666667,25.6666667 C37.1121667,25.6666667 33,29.7788333 33,34.8333333 C33,39.8878333 37.1121667,44 42.1666667,44 L47.6666667,44 L47.6666667,69.6666667 C47.6666667,70.6786667 48.488,71.5 49.5,71.5 C50.512,71.5 51.3333333,70.6786667 51.3333333,69.6666667 L51.3333333,44 L58.6666667,44 L58.6666667,69.6666667 C58.6666667,70.6786667 59.4861667,71.5 60.5,71.5 L60.5,71.5 L60.5,71.5 Z M62.3333333,34.8333333 C62.3333333,31.801 64.801,29.3333333 67.8333333,29.3333333 C70.8656667,29.3333333 73.3333333,31.801 73.3333333,34.8333333 C73.3333333,37.8656667 70.8656667,40.3333333 67.8333333,40.3333333 L62.3333333,40.3333333 L62.3333333,34.8333333 L62.3333333,34.8333333 L62.3333333,34.8333333 Z M47.6666667,40.3333333 L42.1666667,40.3333333 C39.1343333,40.3333333 36.6666667,37.8656667 36.6666667,34.8333333 C36.6666667,31.801 39.1343333,29.3333333 42.1666667,29.3333333 C45.199,29.3333333 47.6666667,31.801 47.6666667,34.8333333 L47.6666667,40.3333333 L47.6666667,40.3333333 L47.6666667,40.3333333 Z" id="wire" fill="orangered"></path>
        <g id="bulb-light">
            <g id="lightening-bulb">
                <path d="M55,0 C34.782,0 18.3333333,16.4486667 18.3333333,36.6666667 C18.3333333,52.14 24.4016667,63.6826667 37.4348333,72.9923333 C37.4971667,73.0363333 37.5888333,73.0913333 37.6566667,73.128 C37.752,73.1793333 39.7246667,74.2811667 40.2196667,77.3721667 C38.1498333,78.1623333 36.6666667,80.1551667 36.6666667,82.5 C36.6666667,83.908 37.1983333,85.1931667 38.071,86.1666667 C37.1983333,87.1401667 36.6666667,88.4253333 36.6666667,89.8333333 C36.6666667,91.2413333 37.1983333,92.5265 38.071,93.5 C37.1983333,94.4735 36.6666667,95.7586667 36.6666667,97.1666667 C36.6666667,100.199 39.1343333,102.666667 42.1666667,102.666667 C43.1786667,102.666667 44,101.845333 44,100.833333 C44,99.8213333 43.1786667,99 42.1666667,99 C41.1565,99 40.3333333,98.1768333 40.3333333,97.1666667 C40.3333333,96.1565 41.1565,95.3333333 42.1666667,95.3333333 L60.5,95.3333333 C61.5138333,95.3333333 62.3333333,94.512 62.3333333,93.5 C62.3333333,92.488 61.5138333,91.6666667 60.5,91.6666667 L42.1666667,91.6666667 C41.1565,91.6666667 40.3333333,90.8435 40.3333333,89.8333333 C40.3333333,88.8231667 41.1565,88 42.1666667,88 L60.5,88 C61.5138333,88 62.3333333,87.1786667 62.3333333,86.1666667 C62.3333333,85.1546667 61.5138333,84.3333333 60.5,84.3333333 L42.1666667,84.3333333 C41.1565,84.3333333 40.3333333,83.5101667 40.3333333,82.5 C40.3333333,81.4898333 41.1565,80.6666667 42.1666667,80.6666667 L60.5,80.6666667 C61.5138333,80.6666667 62.3333333,79.8453333 62.3333333,78.8333333 C62.3333333,77.8213333 61.5138333,77 60.5,77 L43.8753333,77 C43.2263333,72.3836667 40.2343333,70.3835 39.4845,69.9508333 C27.3918333,61.2846667 22,51.0161667 22,36.6666667 C22,18.4708333 36.8041667,3.66666667 55,3.66666667 C73.1958333,3.66666667 88,18.4708333 88,36.6666667 C88,51.0161667 82.6081667,61.2846667 70.5155,69.9508333 C69.6721667,70.4366667 66,72.9025 66,78.8333333 C66,79.8453333 66.8195,80.6666667 67.8333333,80.6666667 C68.8453333,80.6666667 69.6666667,81.4898333 69.6666667,82.5 C69.6666667,83.5101667 68.8453333,84.3333333 67.8333333,84.3333333 C66.8195,84.3333333 66,85.1546667 66,86.1666667 C66,87.1786667 66.8195,88 67.8333333,88 C68.8453333,88 69.6666667,88.8231667 69.6666667,89.8333333 C69.6666667,90.8435 68.8453333,91.6666667 67.8333333,91.6666667 C66.8195,91.6666667 66,92.488 66,93.5 C66,94.512 66.8195,95.3333333 67.8333333,95.3333333 C68.8453333,95.3333333 69.6666667,96.1565 69.6666667,97.1666667 C69.6666667,98.2116667 68.8783333,99 67.8333333,99 L49.5,99 C48.488,99 47.6666667,99.8213333 47.6666667,100.833333 L47.6666667,104.5 C47.6666667,107.532333 50.1343333,110 53.1666667,110 L56.8333333,110 C59.8656667,110 62.3333333,107.532333 62.3333333,104.5 L62.3333333,102.666667 L67.8333333,102.666667 C70.9188333,102.666667 73.3333333,100.250333 73.3333333,97.1666667 C73.3333333,95.7586667 72.8016667,94.4735 71.929,93.5 C72.8016667,92.5265 73.3333333,91.2413333 73.3333333,89.8333333 C73.3333333,88.4253333 72.8016667,87.1401667 71.929,86.1666667 C72.8016667,85.1931667 73.3333333,83.908 73.3333333,82.5 C73.3333333,80.1551667 71.8501667,78.1623333 69.7785,77.3721667 C70.2735,74.2811667 72.2443333,73.1811667 72.3195,73.139 C72.4056667,73.0968333 72.4881667,73.0473333 72.5651667,72.9923333 C85.5965,63.6826667 91.6666667,52.14 91.6666667,36.6666667 C91.6666667,16.4486667 75.218,0 55,0 L55,0 L55,0 Z M58.6666667,104.5 C58.6666667,105.510167 57.8453333,106.333333 56.8333333,106.333333 L53.1666667,106.333333 C52.1565,106.333333 51.3333333,105.510167 51.3333333,104.5 L51.3333333,102.666667 L58.6666667,102.666667 L58.6666667,104.5 L58.6666667,104.5 L58.6666667,104.5 Z" id="light-bulb" fill="#000000"></path>
            </g>
        </g>
    </g>
</svg>