<?xml version="1.0" encoding="UTF-8" standalone="no"?>
<svg width="657px" height="607px" viewBox="0 0 657 607" version="1.1" xmlns="http://www.w3.org/2000/svg" xmlns:xlink="http://www.w3.org/1999/xlink">
    <!-- Generator: Sketch 39.1 (31720) - http://www.bohemiancoding.com/sketch -->
    <title>scheme4</title>
    <desc>Created with Sketch.</desc>
    <defs></defs>
    <g id="Page-1" stroke="none" stroke-width="1" fill="none" fill-rule="evenodd">
        <g id="scheme4" transform="translate(-42.000000, 2.000000)">
            <g id="Group">
                <g id="Group-8" transform="translate(618.000000, 64.000000)">
                    <path d="M8.00000009,7 L8.00000012,189.043945" id="Path-2" stroke="#000000" stroke-width="4"></path>
                    <path d="M8.00000012,285 L8.00000012,470.002823" id="Path-2" stroke="#000000" stroke-width="4"></path>
                    <circle id="Oval-2" fill="#000000" cx="7.5" cy="7.5" r="7.5"></circle>
                    <circle id="Oval-2" fill="#000000" cx="7.5" cy="469.5" r="7.5"></circle>
                </g>
                <g id="Group-8" transform="translate(108.000000, 64.000000)">
                    <path d="M8.00000009,7 L8.00000012,191" id="Path-2" stroke="#000000" stroke-width="4"></path>
                    <path d="M8.00000012,287 L8.00000012,470.002823" id="Path-2" stroke="#000000" stroke-width="4"></path>
                    <circle id="Oval-2" fill="#000000" cx="7.5" cy="7.5" r="7.5"></circle>
                    <circle id="Oval-2" fill="#000000" cx="7.5" cy="469.5" r="7.5"></circle>
                </g>
                <g id="Group-8" transform="translate(370.500000, 301.500000) rotate(90.000000) translate(-370.500000, -301.500000) translate(69.000000, -25.000000)" stroke="#000000" stroke-width="4">
                    <path d="M72.0000001,68.997537 L72.0000001,279" id="Path-2"></path>
                    <path d="M-1.11022302e-16,0 L70.7106781,70.7106781" id="Path-2"></path>
                    <path d="M532,582 L602.710678,652.710678" id="Path-2"></path>
                    <path d="M72.0000001,370.978777 L72.0000001,583.022278" id="Path-2"></path>
                    <path d="M532,370.978775 L532,583.002823" id="Path-2"></path>
                    <path d="M532,70 L532,281.002365" id="Path-2"></path>
                </g>
            </g>
            <path d="M385.446022,509.510508 C385.446022,510.396918 384.722177,511.116324 383.830297,511.116324 C382.936801,511.116324 382.206493,510.396918 382.206493,509.510508 C382.206493,508.624097 382.922259,507.904692 383.812524,507.904692 L383.830297,507.904692 C384.722177,507.904692 385.446022,508.624097 385.446022,509.510508 L385.446022,509.510508 L385.446022,509.510508 Z M359.586343,509.510508 C359.586343,508.624097 360.300494,507.904692 361.192374,507.904692 L361.210147,507.904692 C362.102027,507.904692 362.825872,508.624097 362.825872,509.510508 C362.825872,510.396918 362.102027,511.116324 361.210147,511.116324 C360.316651,511.116324 359.586343,510.396918 359.586343,509.510508 L359.586343,509.510508 L359.586343,509.510508 Z M353.123443,499.875611 C353.123443,498.9892 353.839209,498.269794 354.729474,498.269794 L354.747247,498.269794 C355.639127,498.269794 356.362972,498.9892 356.362972,499.875611 C356.362972,500.762021 355.639127,501.481427 354.747247,501.481427 C353.853751,501.481427 353.123443,500.762021 353.123443,499.875611 L353.123443,499.875611 L353.123443,499.875611 Z M356.354893,487.029081 C356.354893,486.14267 357.070659,485.423265 357.960924,485.423265 L357.978697,485.423265 C358.870577,485.423265 359.594422,486.14267 359.594422,487.029081 C359.594422,487.915492 358.870577,488.634897 357.978697,488.634897 C357.085201,488.634897 356.354893,487.915492 356.354893,487.029081 L356.354893,487.029081 L356.354893,487.029081 Z M382.206493,490.240713 C382.206493,489.354303 382.922259,488.634897 383.812524,488.634897 L383.830297,488.634897 C384.722177,488.634897 385.446022,489.354303 385.446022,490.240713 C385.446022,491.127124 384.722177,491.84653 383.830297,491.84653 C382.936801,491.84653 382.206493,491.127124 382.206493,490.240713 L382.206493,490.240713 L382.206493,490.240713 Z M366.049243,493.452346 C366.049243,492.565935 366.763394,491.84653 367.655274,491.84653 L367.673047,491.84653 C368.564927,491.84653 369.288772,492.565935 369.288772,493.452346 C369.288772,494.338756 368.564927,495.058162 367.673047,495.058162 C366.779551,495.058162 366.049243,494.338756 366.049243,493.452346 L366.049243,493.452346 L366.049243,493.452346 Z M369.280693,503.087243 C369.280693,502.200833 369.994844,501.481427 370.886724,501.481427 L370.904497,501.481427 C371.796377,501.481427 372.520222,502.200833 372.520222,503.087243 C372.520222,503.973654 371.796377,504.693059 370.904497,504.693059 C370.011001,504.693059 369.280693,503.973654 369.280693,503.087243 L369.280693,503.087243 L369.280693,503.087243 Z M378.975043,499.875611 C378.975043,498.9892 379.689194,498.269794 380.581074,498.269794 L380.598847,498.269794 C381.490727,498.269794 382.214572,498.9892 382.214572,499.875611 C382.214572,500.762021 381.490727,501.481427 380.598847,501.481427 C379.705351,501.481427 378.975043,500.762021 378.975043,499.875611 L378.975043,499.875611 L378.975043,499.875611 Z M391.86045,535.203567 L391.86045,548.050097 C391.86045,548.934902 391.13499,549.655913 390.244725,549.655913 L348.235875,549.655913 C347.343995,549.655913 346.62015,548.934902 346.62015,548.050097 L346.62015,535.203567 C346.62015,534.318762 347.343995,533.597751 348.235875,533.597751 L390.244725,533.597751 C391.13499,533.597751 391.86045,534.318762 391.86045,535.203567 L391.86045,535.203567 L391.86045,535.203567 Z M348.235875,530.386119 C345.56185,530.386119 343.3887,532.547547 343.3887,535.203567 L343.3887,548.050097 C343.3887,550.706117 345.56185,552.867545 348.235875,552.867545 L390.244725,552.867545 C392.917134,552.867545 395.0919,550.706117 395.0919,548.050097 L395.0919,535.203567 C395.0919,532.547547 392.917134,530.386119 390.244725,530.386119 L348.235875,530.386119 L348.235875,530.386119 Z M420.9435,535.203567 L420.9435,544.838464 C420.9435,547.494484 418.768734,549.655913 416.096325,549.655913 L414.4806,549.655913 L414.4806,560.896626 C414.4806,564.774673 411.699938,568.018421 408.0177,568.76352 L408.0177,573.743156 C408.0177,574.629567 407.293855,575.348972 406.401975,575.348972 L332.078625,575.348972 C331.185129,575.348972 330.4629,574.629567 330.4629,573.743156 L330.4629,568.76352 C326.779047,568.016816 324,564.774673 324,560.896626 L324,527.174486 C324,519.428029 326.347648,514.262118 331.175435,511.387707 C331.663384,511.02961 333.642647,509.716052 338.056808,508.339868 C338.90991,508.071697 339.816332,508.545412 340.082927,509.391678 C340.349521,510.237943 339.876114,511.138806 339.026243,511.403765 C334.733261,512.74141 333.091685,513.973071 333.075527,513.985918 C333.023824,514.026063 332.955964,514.071026 332.901029,514.104748 C329.032983,516.373766 327.23145,520.526407 327.23145,527.174486 L327.23145,560.896626 C327.23145,563.552646 329.4046,565.714075 332.078625,565.714075 L399.939075,565.714075 C400.830955,565.714075 401.5548,566.433481 401.5548,567.319891 C401.5548,568.206302 400.830955,568.925708 399.939075,568.925708 L333.69435,568.925708 L333.69435,572.13734 L404.78625,572.13734 L404.78625,567.319891 C404.78625,566.433481 405.508479,565.714075 406.401975,565.714075 C409.074384,565.714075 411.24915,563.552646 411.24915,560.896626 L411.24915,538.4152 C411.24915,537.528789 411.971379,536.809383 412.864875,536.809383 C413.756755,536.809383 414.4806,537.528789 414.4806,538.4152 L414.4806,546.444281 L416.096325,546.444281 C416.98659,546.444281 417.71205,545.723269 417.71205,544.838464 L417.71205,535.203567 C417.71205,534.318762 416.98659,533.597751 416.096325,533.597751 L412.864875,533.597751 C411.971379,533.597751 411.24915,532.878345 411.24915,531.991935 L411.24915,527.174486 C411.24915,520.500714 409.449233,516.348073 405.58765,514.109566 C405.519789,514.06942 405.453545,514.026063 405.392147,513.976283 C405.388916,513.973071 403.740876,512.738198 399.444663,511.398948 C398.593176,511.133988 398.119769,510.233125 398.386363,509.38686 C398.652958,508.540595 399.552917,508.065273 400.410867,508.33505 C404.821796,509.709629 406.805906,511.023187 407.300318,511.384495 C412.131336,514.230002 414.4806,519.395912 414.4806,527.174486 L414.4806,530.386119 L416.096325,530.386119 C418.768734,530.386119 420.9435,532.547547 420.9435,535.203567 L420.9435,535.203567 L420.9435,535.203567 Z M345.977092,493.741393 C344.332283,492.504914 343.3887,490.643773 343.3887,488.634897 C343.3887,485.092467 346.287311,482.211632 349.8516,482.211632 L388.629,482.211632 C392.19329,482.211632 395.0919,485.092467 395.0919,488.634897 C395.0919,490.643773 394.148317,492.504914 392.501893,493.741393 C392.096346,494.044892 391.86045,494.518608 391.86045,495.022834 L391.86045,514.327957 L346.62015,514.327957 L346.62015,495.022834 C346.62015,494.518608 346.382638,494.044892 345.977092,493.741393 L345.977092,493.741393 L345.977092,493.741393 Z M341.772975,514.327957 C340.879479,514.327957 340.15725,515.047362 340.15725,515.933773 C340.15725,516.820183 340.879479,517.539589 341.772975,517.539589 L396.707625,517.539589 C397.599505,517.539589 398.32335,516.820183 398.32335,515.933773 C398.32335,515.047362 397.599505,514.327957 396.707625,514.327957 L395.0919,514.327957 L395.0919,495.779174 C397.155181,493.946937 398.32335,491.38566 398.32335,488.634897 C398.32335,483.321251 393.973819,479 388.629,479 L349.8516,479 C344.505166,479 340.15725,483.321251 340.15725,488.634897 C340.15725,491.38566 341.323804,493.946937 343.3887,495.779174 L343.3887,514.327957 L341.772975,514.327957 L341.772975,514.327957 Z" id="bread-toaster" fill="#000000"></path>
            <path d="M416.71205,95.4151996 C416.71205,98.0712196 414.537284,100.232648 411.864875,100.232648 C410.971379,100.232648 410.24915,100.952054 410.24915,101.838464 L410.24915,106.655913 L332.69435,106.655913 L332.69435,103.444281 L405.401975,103.444281 C406.295471,103.444281 407.0177,102.724875 407.0177,101.838464 C407.0177,100.952054 406.295471,100.232648 405.401975,100.232648 L331.078625,100.232648 C328.406216,100.232648 326.23145,98.0712196 326.23145,95.4151996 L326.23145,44.029081 C326.23145,41.373061 328.406216,39.2116324 331.078625,39.2116324 L411.864875,39.2116324 C414.537284,39.2116324 416.71205,41.373061 416.71205,44.029081 L416.71205,95.4151996 L416.71205,95.4151996 Z M411.864875,36 L331.078625,36 C326.624071,36 323,39.6018457 323,44.029081 L323,95.4151996 C323,99.2932457 325.780663,102.536994 329.4629,103.282093 L329.4629,108.261729 C329.4629,109.14814 330.185129,109.867545 331.078625,109.867545 L411.864875,109.867545 C412.758371,109.867545 413.4806,109.14814 413.4806,108.261729 L413.4806,103.282093 C417.162838,102.536994 419.9435,99.2932457 419.9435,95.4151996 L419.9435,44.029081 C419.9435,39.6018457 416.319429,36 411.864875,36 L411.864875,36 L411.864875,36 Z M410.24915,61.6930593 C410.24915,63.4642746 408.799845,64.9046917 407.0177,64.9046917 C405.235556,64.9046917 403.78625,63.4642746 403.78625,61.6930593 C403.78625,59.921844 405.235556,58.4814269 407.0177,58.4814269 C408.799845,58.4814269 410.24915,59.921844 410.24915,61.6930593 L410.24915,61.6930593 L410.24915,61.6930593 Z M410.24915,48.8465296 C410.24915,50.6177449 408.799845,52.0581621 407.0177,52.0581621 C405.235556,52.0581621 403.78625,50.6177449 403.78625,48.8465296 C403.78625,47.0753144 405.235556,45.6348972 407.0177,45.6348972 C408.799845,45.6348972 410.24915,47.0753144 410.24915,48.8465296 L410.24915,48.8465296 L410.24915,48.8465296 Z M369.382618,68.5868283 C370.264804,69.4619981 371.47175,70.6631486 371.47175,72.9337727 C371.47175,77.0896251 367.516455,79.1033186 367.346804,79.1884268 C367.115756,79.3024398 366.86855,79.3570375 366.626191,79.3570375 C366.03322,79.3570375 365.462869,79.0326627 365.178501,78.4690212 C364.781033,77.6789596 365.102562,76.7186815 365.894267,76.3188333 C365.949202,76.2899286 368.2403,75.0743257 368.2403,72.9337727 C368.2403,72.031304 367.889688,71.6443023 367.097983,70.8574524 C366.215797,69.9822825 365.00885,68.781132 365.00885,66.5105079 C365.00885,62.3546556 368.964145,60.340962 369.133796,60.2558538 C369.931964,59.860823 370.901399,60.1819862 371.302099,60.9752594 C371.701183,61.7685326 371.376422,62.7320224 370.578254,63.1302648 C370.563713,63.1366881 368.2403,64.3555026 368.2403,66.5105079 C368.2403,67.4129766 368.590912,67.7999783 369.382618,68.5868283 L369.382618,68.5868283 L369.382618,68.5868283 Z M356.456818,68.5868283 C357.339004,69.4619981 358.54595,70.6631486 358.54595,72.9337727 C358.54595,77.0896251 354.590655,79.1033186 354.421004,79.1884268 C354.189955,79.3024398 353.94275,79.3570375 353.700391,79.3570375 C353.10742,79.3570375 352.537069,79.0326627 352.252701,78.4690212 C351.855233,77.6789596 352.176762,76.7186815 352.968467,76.3188333 C353.023402,76.2899286 355.3145,75.0743257 355.3145,72.9337727 C355.3145,72.031304 354.963888,71.6443023 354.172183,70.8574524 C353.289997,69.9822825 352.08305,68.781132 352.08305,66.5105079 C352.08305,62.3546556 356.038345,60.340962 356.207996,60.2558538 C357.00778,59.860823 357.973983,60.1819862 358.376299,60.9752594 C358.775383,61.7685326 358.450622,62.7320224 357.652454,63.1302648 C357.637913,63.1366881 355.3145,64.3555026 355.3145,66.5105079 C355.3145,67.4129766 355.665112,67.7999783 356.456818,68.5868283 L356.456818,68.5868283 L356.456818,68.5868283 Z M394.0919,92.2035672 C394.0919,93.0883719 393.368055,93.8093834 392.476175,93.8093834 L334.310075,93.8093834 C333.418195,93.8093834 332.69435,93.0883719 332.69435,92.2035672 L332.69435,47.2407134 C332.69435,46.3559087 333.418195,45.6348972 334.310075,45.6348972 L392.476175,45.6348972 C393.368055,45.6348972 394.0919,46.3559087 394.0919,47.2407134 L394.0919,92.2035672 L394.0919,92.2035672 Z M392.476175,42.4232648 L334.310075,42.4232648 C331.637666,42.4232648 329.4629,44.5846934 329.4629,47.2407134 L329.4629,92.2035672 C329.4629,94.8595872 331.637666,97.0210158 334.310075,97.0210158 L392.476175,97.0210158 C395.148584,97.0210158 397.32335,94.8595872 397.32335,92.2035672 L397.32335,47.2407134 C397.32335,44.5846934 395.148584,42.4232648 392.476175,42.4232648 L392.476175,42.4232648 L392.476175,42.4232648 Z" id="microwave" fill="#000000"></path>
            <path d="M147.770833,277.1 C148.679333,277.1 149.416667,276.3608 149.416667,275.45 L149.416667,268.85 C149.416667,267.9392 148.679333,267.2 147.770833,267.2 C146.862333,267.2 146.125,267.9392 146.125,268.85 L146.125,275.45 C146.125,276.3608 146.862333,277.1 147.770833,277.1 M147.770833,265.55 C148.679333,265.55 149.416667,264.8108 149.416667,263.9 C149.416667,262.08005 147.940354,260.6 146.125,260.6 C145.2165,260.6 144.479167,261.33755 144.479167,262.25 C144.479167,263.1608 145.2165,263.89835 146.125,263.89835 L146.125,263.9 C146.125,264.8108 146.862333,265.55 147.770833,265.55 M88.5208333,316.7 C89.4276875,316.7 90.1666667,315.95915 90.1666667,315.05 L90.1666667,298.55 C90.1666667,297.64085 89.4276875,296.9 88.5208333,296.9 C87.6139792,296.9 86.875,297.64085 86.875,298.55 L86.875,315.05 C86.875,315.95915 87.6139792,316.7 88.5208333,316.7 M88.5208333,320 C85.798625,320 83.5833333,317.7791 83.5833333,315.05 L83.5833333,298.55 C83.5833333,295.8209 85.798625,293.6 88.5208333,293.6 C91.2430417,293.6 93.4583333,295.8209 93.4583333,298.55 L93.4583333,315.05 C93.4583333,317.7791 91.2430417,320 88.5208333,320 M88.5208333,270.5 C87.6139792,270.5 86.875,271.24085 86.875,272.15 L86.875,278.75 C86.875,279.65915 87.6139792,280.4 88.5208333,280.4 C89.4276875,280.4 90.1666667,279.65915 90.1666667,278.75 L90.1666667,272.15 C90.1666667,271.24085 89.4276875,270.5 88.5208333,270.5 M88.5208333,267.2 C91.2430417,267.2 93.4583333,269.4209 93.4583333,272.15 L93.4583333,278.75 C93.4583333,281.4791 91.2430417,283.7 88.5208333,283.7 C85.798625,283.7 83.5833333,281.4791 83.5833333,278.75 L83.5833333,272.15 C83.5833333,269.4209 85.798625,267.2 88.5208333,267.2 M156,262.25 L156,338.15 C156,342.13475 153.167521,345.46775 149.416667,346.23335 L149.416667,351.35 C149.416667,352.2608 148.679333,353 147.770833,353 L85.2291667,353 C84.3206667,353 83.5833333,352.2608 83.5833333,351.35 L83.5833333,346.23335 C79.8324792,345.4661 77,342.13475 77,338.15 L77,295.25 C77,294.3392 77.7373333,293.6 78.6458333,293.6 C79.5543333,293.6 80.2916667,294.3392 80.2916667,295.25 L80.2916667,338.15 C80.2916667,340.8791 82.5069583,343.1 85.2291667,343.1 L141.1875,343.1 C142.096,343.1 142.833333,343.8392 142.833333,344.75 C142.833333,345.6608 142.096,346.4 141.1875,346.4 L86.875,346.4 L86.875,349.7 L146.125,349.7 L146.125,344.75 C146.125,343.8392 146.862333,343.1 147.770833,343.1 C150.493042,343.1 152.708333,340.8791 152.708333,338.15 L152.708333,262.25 C152.708333,259.5209 150.493042,257.3 147.770833,257.3 L85.2291667,257.3 C82.5069583,257.3 80.2916667,259.5209 80.2916667,262.25 L80.2916667,287 L147.770833,287 C148.679333,287 149.416667,287.7392 149.416667,288.65 C149.416667,289.5608 148.679333,290.3 147.770833,290.3 L78.6458333,290.3 C77.7373333,290.3 77,289.5608 77,288.65 L77,262.25 C77,257.70095 80.6916042,254 85.2291667,254 L147.770833,254 C152.308396,254 156,257.70095 156,262.25" id="fridge" fill="#000000"></path>
            <path d="M619.97439,259.666667 L633.266612,259.666667 L633.266612,256.333333 L619.97439,256.333333 L619.97439,259.666667 L619.97439,259.666667 Z M603.359111,261.333333 C603.359111,260.413333 604.101814,259.666667 605.020639,259.666667 L616.651334,259.666667 L616.651334,254.666667 C616.651334,253.746667 617.394037,253 618.312862,253 L634.92814,253 C635.846965,253 636.589668,253.746667 636.589668,254.666667 L636.589668,259.666667 L648.220363,259.666667 C649.139188,259.666667 649.881891,260.413333 649.881891,261.333333 C649.881891,262.253333 649.139188,263 648.220363,263 L605.020639,263 C604.101814,263 603.359111,262.253333 603.359111,261.333333 L603.359111,261.333333 L603.359111,261.333333 Z M666.354278,268.676667 L659.708166,283.676667 C659.334323,284.518333 658.354021,284.901667 657.51495,284.523333 C656.675878,284.148333 656.298711,283.165 656.670894,282.323333 L662.27855,269.666667 L591.992599,269.666667 C587.162538,281.235 585.369749,294.181667 583.922559,304.643333 L583.430746,308.165 C583.329393,308.868333 584.090373,309.538333 584.83806,309.666667 C586.157313,309.895 586.629187,308.466667 586.801986,307.6 C587.297122,305.143333 587.649365,302.288333 588.021548,299.268333 C588.885542,292.258333 589.962212,283.535 593.49462,274.081667 C593.738865,273.431667 594.358615,273 595.051472,273 C597.133366,273 600.534514,272.993333 601.059557,272.976667 C601.220725,272.96 601.375247,273 601.528108,273.035 C601.587923,273.028333 601.637768,273 601.697583,273 C602.616408,273 603.359111,273.746667 603.359111,274.666667 C603.359111,307.078333 609.77427,320.46 609.83907,320.59 C610.623311,322.64 611.665089,323 613.336586,323 L619.720176,323 L616.667949,301.57 C616.53835,300.658333 617.169731,299.813333 618.076925,299.683333 C618.985781,299.546667 619.828175,300.186667 619.957774,301.096667 L623.076462,323 L630.16454,323 L633.283228,301.096667 C633.412827,300.186667 634.256883,299.553333 635.164077,299.683333 C636.071271,299.813333 636.702652,300.658333 636.573053,301.57 L633.51418,323.05 C634.310052,323.173333 634.92814,323.833333 634.92814,324.666667 C634.92814,325.586667 634.185437,326.333333 633.266612,326.333333 L613.328278,326.333333 C611.79635,326.333333 610.560173,327.175 609.849039,328.705 L603.13979,340.493333 C602.930437,340.843333 602.966991,341.236667 603.224527,341.696667 C603.658186,342.465 604.517196,343 605.020639,343 L641.574252,343 C642.493076,343 643.235779,343.746667 643.235779,344.666667 C643.235779,345.586667 642.493076,346.333333 641.574252,346.333333 L606.682167,346.333333 L606.682167,349.666667 L646.558835,349.666667 L646.558835,344.666667 C646.558835,343.746667 647.301538,343 648.220363,343 C648.720483,343 649.544601,342.513333 649.974936,341.791667 C650.406934,341.068333 650.159366,340.605 650.077951,340.455 L643.446793,328.828333 C642.586122,327.073333 641.509452,326.333333 639.904416,326.333333 C638.985591,326.333333 638.242888,325.586667 638.242888,324.666667 C638.242888,323.748333 638.98393,323.003333 639.899432,323 L639.904416,323 C641.120654,323 642.69246,322.616667 643.328825,320.785 C643.352086,320.716667 643.380332,320.651667 643.41024,320.588333 C643.475039,320.46 649.881891,307.078333 649.881891,274.666667 C649.881891,273.746667 650.624594,273 651.543419,273 C652.462244,273 653.204946,273.746667 653.204946,274.666667 C653.204946,306.905 647.087201,320.603333 646.430897,321.98 C646.025485,323.096667 645.37915,324.028333 644.545063,324.738333 C645.266166,325.4 645.882593,326.245 646.382713,327.266667 L652.985625,338.838333 C653.783158,340.326667 653.716697,342.013333 652.826118,343.503333 C652.136584,344.66 651.054929,345.556667 649.881891,346.008333 L649.881891,351.333333 C649.881891,352.253333 649.139188,353 648.220363,353 L605.020639,353 C604.101814,353 603.359111,352.253333 603.359111,351.333333 L603.359111,345.985 C602.146196,345.501667 601.016357,344.551667 600.331807,343.335 C599.476121,341.818333 599.456182,340.166667 600.275316,338.805 L606.901489,327.173333 C607.33847,326.23 607.943267,325.42 608.671016,324.77 C607.963205,324.136667 607.313547,323.253333 606.82672,322 C606.22857,320.755 600.252054,307.511667 600.046025,276.31 C599.506028,276.321667 598.897909,276.328333 598.140252,276.33 L596.21288,276.331667 C593.132407,284.981667 592.172044,292.771667 591.31968,299.676667 C590.937529,302.763333 590.580301,305.676667 590.060242,308.258333 C589.384001,311.62 587.19743,313.021667 585.090613,313.021667 C584.816461,313.021667 584.542308,312.998333 584.274802,312.951667 C581.646265,312.498333 579.790339,310.138333 580.13926,307.693333 L580.62941,304.185 C582.148047,293.218333 584.037204,279.57 589.375693,267.331667 C589.639876,266.725 590.238026,266.333333 590.897652,266.333333 L664.835641,266.333333 C665.398899,266.333333 665.922281,266.618333 666.229663,267.091667 C666.535384,267.565 666.583569,268.161667 666.354278,268.676667 L666.354278,268.676667 L666.354278,268.676667 Z" id="blender" fill="#000000"></path>
        </g>
    </g>
</svg>