<?xml version="1.0" encoding="UTF-8" standalone="no"?>
<svg width="657px" height="607px" viewBox="0 0 657 607" version="1.1" xmlns="http://www.w3.org/2000/svg" xmlns:xlink="http://www.w3.org/1999/xlink">
    <!-- Generator: Sketch 39.1 (31720) - http://www.bohemiancoding.com/sketch -->
    <title>scheme4</title>
    <desc>Created with Sketch.</desc>
    <defs>
        <rect id="path-1" x="22" y="54" width="47" height="18"></rect>
        <mask id="mask-2" maskContentUnits="userSpaceOnUse" maskUnits="objectBoundingBox" x="0" y="0" width="47" height="18" fill="white">
            <use xlink:href="#path-1"></use>
        </mask>
    </defs>
    <g id="Page-1" stroke="none" stroke-width="1" fill="none" fill-rule="evenodd">
        <g id="scheme4" transform="translate(-42.000000, 2.000000)">
            <g id="Group-6" transform="translate(323.000000, 36.000000)">
                <g id="bread-toaster" transform="translate(1.000000, 443.000000)">
                    <g id="Kitchen">
                        <g>
                            <g id="Icon-15">
                                <path d="M3,81 L3,41 L3,41 C4.65685425,37.1340068 9.34636688,32.7451124 13.4995642,31.1876634 L14,31 L19,31 C21.4192708,31 17.8385417,35 20,35 C30.8545406,35 57.5983845,36.2184367 70,34.9999999 C72.8859388,34.7164615 69.2353445,31.1485594 71,31 C72.9494575,30.8358829 76,31 76,31 L76,31 C78.7614237,31.5522847 82.6822734,35.1545179 84.6866125,39.0924326 C84.6866125,39.0924326 90,48.3514046 90,53 C90,55.1261086 94.0534129,53.0499442 94,56 C93.9279473,59.9795563 99,63 94,66 C89,69 87.5129628,81.1596637 87.5129628,81.1596637 C86.6773765,85.4897619 83.4707037,91.5292963 81,94 L81,94 C102.441152,94 13.9765994,94 13.9765994,94 C9.57124518,94 5.14032041,90.5166665 4.10856579,86.2303121 C4.10856579,86.2303121 3,81.9982048 3,81 Z" id="Rectangle-7" fill="#DFFCD2"></path>
                                <use id="Rectangle-8" stroke="#979797" mask="url(#mask-2)" stroke-width="2" fill="#FFFFFF" xlink:href="#path-1"></use>
                                <path d="M20,14 C19.6614615,11.037788 21,3 21,3 L69,3 C69,3 70.7393703,7.21994998 71,10 C71.7393703,17.8866167 68,35 68,35 L23,36 C23,36 20.9947948,22.7044546 20,14 Z" id="Rectangle-9" fill="#FFE7D1"></path>
                                <path d="M61.4460219,30.5105079 C61.4460219,31.3969184 60.7221771,32.1163241 59.8302969,32.1163241 C58.936801,32.1163241 58.2064933,31.3969184 58.2064933,30.5105079 C58.2064933,29.6240974 58.9222595,28.9046917 59.812524,28.9046917 L59.8302969,28.9046917 C60.7221771,28.9046917 61.4460219,29.6240974 61.4460219,30.5105079 L61.4460219,30.5105079 L61.4460219,30.5105079 Z M35.5863432,30.5105079 C35.5863432,29.6240974 36.3004937,28.9046917 37.1923739,28.9046917 L37.2101469,28.9046917 C38.1020271,28.9046917 38.8258719,29.6240974 38.8258719,30.5105079 C38.8258719,31.3969184 38.1020271,32.1163241 37.2101469,32.1163241 C36.3166509,32.1163241 35.5863432,31.3969184 35.5863432,30.5105079 L35.5863432,30.5105079 L35.5863432,30.5105079 Z M29.1234432,20.8756107 C29.1234432,19.9892001 29.8392094,19.2697945 30.7294739,19.2697945 L30.7472468,19.2697945 C31.639127,19.2697945 32.3629718,19.9892001 32.3629718,20.8756107 C32.3629718,21.7620212 31.639127,22.4814269 30.7472468,22.4814269 C29.8537509,22.4814269 29.1234432,21.7620212 29.1234432,20.8756107 L29.1234432,20.8756107 L29.1234432,20.8756107 Z M32.3548932,8.02908103 C32.3548932,7.14267048 33.0706594,6.42326482 33.9609239,6.42326482 L33.9786969,6.42326482 C34.8705771,6.42326482 35.5944219,7.14267048 35.5944219,8.02908103 C35.5944219,8.91549157 34.8705771,9.63489723 33.9786969,9.63489723 C33.0852009,9.63489723 32.3548932,8.91549157 32.3548932,8.02908103 L32.3548932,8.02908103 L32.3548932,8.02908103 Z M58.2064933,11.2407134 C58.2064933,10.3543029 58.9222595,9.63489723 59.812524,9.63489723 L59.8302969,9.63489723 C60.7221771,9.63489723 61.4460219,10.3543029 61.4460219,11.2407134 C61.4460219,12.127124 60.7221771,12.8465296 59.8302969,12.8465296 C58.936801,12.8465296 58.2064933,12.127124 58.2064933,11.2407134 L58.2064933,11.2407134 L58.2064933,11.2407134 Z M42.0492433,14.4523458 C42.0492433,13.5659353 42.7633937,12.8465296 43.6552739,12.8465296 L43.6730469,12.8465296 C44.5649271,12.8465296 45.2887719,13.5659353 45.2887719,14.4523458 C45.2887719,15.3387564 44.5649271,16.0581621 43.6730469,16.0581621 C42.779551,16.0581621 42.0492433,15.3387564 42.0492433,14.4523458 L42.0492433,14.4523458 L42.0492433,14.4523458 Z M45.2806933,24.0872431 C45.2806933,23.2008325 45.9948437,22.4814269 46.8867239,22.4814269 L46.9044969,22.4814269 C47.7963771,22.4814269 48.5202219,23.2008325 48.5202219,24.0872431 C48.5202219,24.9736536 47.7963771,25.6930593 46.9044969,25.6930593 C46.011001,25.6930593 45.2806933,24.9736536 45.2806933,24.0872431 L45.2806933,24.0872431 L45.2806933,24.0872431 Z M54.9750433,20.8756107 C54.9750433,19.9892001 55.6891937,19.2697945 56.5810739,19.2697945 L56.5988469,19.2697945 C57.4907271,19.2697945 58.2145719,19.9892001 58.2145719,20.8756107 C58.2145719,21.7620212 57.4907271,22.4814269 56.5988469,22.4814269 C55.705351,22.4814269 54.9750433,21.7620212 54.9750433,20.8756107 L54.9750433,20.8756107 L54.9750433,20.8756107 Z M67.8604502,56.2035672 L67.8604502,69.0500968 C67.8604502,69.9349016 67.1349897,70.655913 66.2447252,70.655913 L24.2358751,70.655913 C23.3439949,70.655913 22.6201501,69.9349016 22.6201501,69.0500968 L22.6201501,56.2035672 C22.6201501,55.3187625 23.3439949,54.597751 24.2358751,54.597751 L66.2447252,54.597751 C67.1349897,54.597751 67.8604502,55.3187625 67.8604502,56.2035672 L67.8604502,56.2035672 L67.8604502,56.2035672 Z M24.2358751,51.3861186 C21.5618502,51.3861186 19.3887001,53.5475472 19.3887001,56.2035672 L19.3887001,69.0500968 C19.3887001,71.7061168 21.5618502,73.8675454 24.2358751,73.8675454 L66.2447252,73.8675454 C68.9171344,73.8675454 71.0919002,71.7061168 71.0919002,69.0500968 L71.0919002,56.2035672 C71.0919002,53.5475472 68.9171344,51.3861186 66.2447252,51.3861186 L24.2358751,51.3861186 L24.2358751,51.3861186 Z M96.9435003,65.8384644 C96.9435003,68.4944844 94.7687344,70.655913 92.0963253,70.655913 L90.4806003,70.655913 L90.4806003,81.8966265 C90.4806003,85.7746726 87.6999375,89.0184213 84.0177003,89.7635201 L84.0177003,94.7431561 C84.0177003,95.6295667 83.2938554,96.3489723 82.4019752,96.3489723 L8.07862502,96.3489723 C7.1851291,96.3489723 6.46290002,95.6295667 6.46290002,94.7431561 L6.46290002,89.7635201 C2.77904701,89.0168155 0,85.7746726 0,81.8966265 L0,48.1744862 C0,40.4280288 2.34764843,35.2621181 7.17543475,32.387707 C7.6633837,32.02961 14.5858393,29.3761845 19,28 C19.8531028,27.7318287 18.7334054,30.5454124 19,31.3916775 C19.2665946,32.2379427 15.8761139,32.1388055 15.0262425,32.4037652 C10.7332612,33.7414101 9.0916846,34.9730711 9.07552735,34.9859177 C5.03298339,37.3737664 3.23145001,41.5264071 3.23145001,48.1744862 L3.23145001,81.8966265 C3.23145001,84.5526465 5.40460014,86.7140751 8.07862502,86.7140751 L75.9390752,86.7140751 C76.8309554,86.7140751 77.5548002,87.4334808 77.5548002,88.3198913 C77.5548002,89.2063018 76.8309554,89.9257075 75.9390752,89.9257075 L9.69435003,89.9257075 L9.69435003,93.1373399 L80.7862502,93.1373399 L80.7862502,88.3198913 C80.7862502,87.4334808 81.5084793,86.7140751 82.4019752,86.7140751 C85.0743844,86.7140751 87.2491503,84.5526465 87.2491503,81.8966265 L87.2491503,59.4151996 C87.2491503,58.5287891 87.9713793,57.8093834 88.8648753,57.8093834 C89.7567555,57.8093834 90.4806003,58.5287891 90.4806003,59.4151996 L90.4806003,67.4442806 L92.0963253,67.4442806 C92.9865898,67.4442806 93.7120503,66.7232692 93.7120503,65.8384644 L93.7120503,56.2035672 C93.7120503,55.3187625 92.9865898,54.597751 92.0963253,54.597751 L88.8648753,54.597751 C87.9713793,54.597751 87.2491503,53.8783453 87.2491503,52.9919348 L87.2491503,48.1744862 C87.2491503,41.500714 85.4492326,37.3480733 81.5876498,35.1095655 C81.3889157,34.9730711 79.7408762,33.7381985 75.4446634,32.3989478 C74.5931763,32.1339881 70.7334054,31.2379427 71,30.3916775 C71.1321954,29.9720429 70.0386844,28.1915976 71,28 C71.9773418,27.8052082 75.0121428,29.2038643 75.444664,29.3398679 C79.8555933,30.7144466 82.8059065,32.0231868 83.3003183,32.3844954 C88.1313361,35.2300017 90.4806003,40.3959125 90.4806003,48.1744862 L90.4806003,51.3861186 L92.0963253,51.3861186 C94.7687344,51.3861186 96.9435003,53.5475472 96.9435003,56.2035672 L96.9435003,65.8384644 Z M21.9770915,14.7413928 C20.3322835,13.5049143 19.3887001,11.6437733 19.3887001,9.63489723 C19.3887001,6.09246668 22.2873107,3.21163241 25.8516001,3.21163241 L64.6290002,3.21163241 C68.1932896,3.21163241 71.0919002,6.09246668 71.0919002,9.63489723 C71.0919002,11.6437733 70.1483168,13.5049143 68.501893,14.7413928 C68.0963461,15.044892 67.8604502,15.5186078 67.8604502,16.0228341 L67.8604502,35.3279565 L22.6201501,35.3279565 L22.6201501,16.0228341 C22.6201501,15.5186078 22.3826385,15.044892 21.9770915,14.7413928 L21.9770915,14.7413928 L21.9770915,14.7413928 Z M17.7729751,35.3279565 C16.8794791,35.3279565 16.15725,36.0473622 16.15725,36.9337727 C16.15725,37.8201833 16.8794791,38.5395889 17.7729751,38.5395889 L72.7076252,38.5395889 C73.5995054,38.5395889 74.3233502,37.8201833 74.3233502,36.9337727 C74.3233502,36.0473622 73.5995054,35.3279565 72.7076252,35.3279565 L71.0919002,35.3279565 L71.0919002,16.7791735 C73.155181,14.9469372 74.3233502,12.3856604 74.3233502,9.63489723 C74.3233502,4.32125141 69.9738185,0 64.6290002,0 L25.8516001,0 C20.505166,0 16.15725,4.32125141 16.15725,9.63489723 C16.15725,12.3856604 17.3238035,14.9469372 19.3887001,16.7791735 L19.3887001,35.3279565 L17.7729751,35.3279565 L17.7729751,35.3279565 Z" id="bread-toaster" fill="#000000"></path>
                            </g>
                        </g>
                    </g>
                </g>
                <g id="microwave">
                    <g id="Kitchen">
                        <g>
                            <g id="Icon-14">
                                <path d="M6,66 C5.84423135,64.1567376 2.15885791,63.0854194 2,61 C0.282615252,38.4548996 2,3 2,3 L94,3 C94,3 93,43.5807292 93,64 C93,65.3758936 90.6207341,65.352743 90,67 C89.1556722,69.240613 90,73 90,73 L8,74 C8,74 6.16024396,67.8962202 6,66 Z" id="Rectangle-5" fill="#FFE7D1"></path>
                                <rect id="Rectangle-6" fill="#FFFFFF" x="9" y="9" width="63" height="49"></rect>
                                <path d="M93.7120503,59.4151996 C93.7120503,62.0712196 91.5372844,64.2326482 88.8648753,64.2326482 C87.9713793,64.2326482 87.2491503,64.9520539 87.2491503,65.8384644 L87.2491503,70.655913 L9.69435003,70.655913 L9.69435003,67.4442806 L82.4019752,67.4442806 C83.2954712,67.4442806 84.0177003,66.724875 84.0177003,65.8384644 C84.0177003,64.9520539 83.2954712,64.2326482 82.4019752,64.2326482 L8.07862502,64.2326482 C5.40621587,64.2326482 3.23145001,62.0712196 3.23145001,59.4151996 L3.23145001,8.02908103 C3.23145001,5.37306102 5.40621587,3.21163241 8.07862502,3.21163241 L88.8648753,3.21163241 C91.5372844,3.21163241 93.7120503,5.37306102 93.7120503,8.02908103 L93.7120503,59.4151996 L93.7120503,59.4151996 Z M88.8648753,0 L8.07862502,0 C3.62407119,0 0,3.60184575 0,8.02908103 L0,59.4151996 C0,63.2932457 2.78066273,66.5369945 6.46290002,67.2820932 L6.46290002,72.2617292 C6.46290002,73.1481398 7.1851291,73.8675454 8.07862502,73.8675454 L88.8648753,73.8675454 C89.7583712,73.8675454 90.4806003,73.1481398 90.4806003,72.2617292 L90.4806003,67.2820932 C94.1628376,66.5369945 96.9435003,63.2932457 96.9435003,59.4151996 L96.9435003,8.02908103 C96.9435003,3.60184575 93.3194291,0 88.8648753,0 L88.8648753,0 L88.8648753,0 Z M87.2491503,25.6930593 C87.2491503,27.4642746 85.7998449,28.9046917 84.0177003,28.9046917 C82.2355556,28.9046917 80.7862502,27.4642746 80.7862502,25.6930593 C80.7862502,23.921844 82.2355556,22.4814269 84.0177003,22.4814269 C85.7998449,22.4814269 87.2491503,23.921844 87.2491503,25.6930593 L87.2491503,25.6930593 L87.2491503,25.6930593 Z M87.2491503,12.8465296 C87.2491503,14.6177449 85.7998449,16.0581621 84.0177003,16.0581621 C82.2355556,16.0581621 80.7862502,14.6177449 80.7862502,12.8465296 C80.7862502,11.0753144 82.2355556,9.63489723 84.0177003,9.63489723 C85.7998449,9.63489723 87.2491503,11.0753144 87.2491503,12.8465296 L87.2491503,12.8465296 L87.2491503,12.8465296 Z M46.3826177,32.5868283 C47.2648036,33.4619981 48.4717501,34.6631486 48.4717501,36.9337727 C48.4717501,41.0896251 44.5164553,43.1033186 44.3468042,43.1884268 C44.1157555,43.3024398 43.8685496,43.3570375 43.6261909,43.3570375 C43.0332198,43.3570375 42.4628689,43.0326627 42.1785013,42.4690212 C41.7810329,41.6789596 42.1025622,40.7186815 42.8942674,40.3188333 C42.9492021,40.2899286 45.2403001,39.0743257 45.2403001,36.9337727 C45.2403001,36.031304 44.8896878,35.6443023 44.0979826,34.8574524 C43.2157967,33.9822825 42.0088501,32.781132 42.0088501,30.5105079 C42.0088501,26.3546556 45.9641449,24.340962 46.1337961,24.2558538 C46.9319642,23.860823 47.9013992,24.1819862 48.302099,24.9752594 C48.7011831,25.7685326 48.3764224,26.7320224 47.5782542,27.1302648 C47.5637127,27.1366881 45.2403001,28.3555026 45.2403001,30.5105079 C45.2403001,31.4129766 45.5909125,31.7999783 46.3826177,32.5868283 L46.3826177,32.5868283 L46.3826177,32.5868283 Z M33.4568177,32.5868283 C34.3390035,33.4619981 35.5459501,34.6631486 35.5459501,36.9337727 C35.5459501,41.0896251 31.5906553,43.1033186 31.4210042,43.1884268 C31.1899555,43.3024398 30.9427496,43.3570375 30.7003908,43.3570375 C30.1074197,43.3570375 29.5370688,43.0326627 29.2527012,42.4690212 C28.8552329,41.6789596 29.1767621,40.7186815 29.9684674,40.3188333 C30.023402,40.2899286 32.3145001,39.0743257 32.3145001,36.9337727 C32.3145001,36.031304 31.9638878,35.6443023 31.1721825,34.8574524 C30.2899967,33.9822825 29.0830501,32.781132 29.0830501,30.5105079 C29.0830501,26.3546556 33.0383449,24.340962 33.207996,24.2558538 C34.0077799,23.860823 34.9739835,24.1819862 35.376299,24.9752594 C35.7753831,25.7685326 35.4506223,26.7320224 34.6524542,27.1302648 C34.6379127,27.1366881 32.3145001,28.3555026 32.3145001,30.5105079 C32.3145001,31.4129766 32.6651124,31.7999783 33.4568177,32.5868283 L33.4568177,32.5868283 L33.4568177,32.5868283 Z M71.0919002,56.2035672 C71.0919002,57.0883719 70.3680554,57.8093834 69.4761752,57.8093834 L11.310075,57.8093834 C10.4181948,57.8093834 9.69435003,57.0883719 9.69435003,56.2035672 L9.69435003,11.2407134 C9.69435003,10.3559087 10.4181948,9.63489723 11.310075,9.63489723 L69.4761752,9.63489723 C70.3680554,9.63489723 71.0919002,10.3559087 71.0919002,11.2407134 L71.0919002,56.2035672 L71.0919002,56.2035672 Z M69.4761752,6.42326482 L11.310075,6.42326482 C8.63766588,6.42326482 6.46290002,8.58469343 6.46290002,11.2407134 L6.46290002,56.2035672 C6.46290002,58.8595872 8.63766588,61.0210158 11.310075,61.0210158 L69.4761752,61.0210158 C72.1485844,61.0210158 74.3233502,58.8595872 74.3233502,56.2035672 L74.3233502,11.2407134 C74.3233502,8.58469343 72.1485844,6.42326482 69.4761752,6.42326482 L69.4761752,6.42326482 L69.4761752,6.42326482 Z" id="microwave" fill="#000000"></path>
                            </g>
                        </g>
                    </g>
                </g>
            </g>
            <g id="fridge" transform="translate(77.000000, 254.000000)">
                <g id="Kitchen">
                    <g>
                        <g id="Icon-11">
                            <path d="M9,90 C8.85107214,87.6171542 3.17628739,87.7356363 3,85 C1.00725599,54.0765016 2.99999997,1 2.99999997,1 L76,1 C76,1 79.7744379,58.0876919 78,85 C77.7744379,88.4210252 70,92 70,92 C70,92 72.285623,96.8294311 70,97 C49.9522896,98.4960978 9,97 9,97 C9,97 9.1675989,92.6815824 9,90 Z" id="Rectangle-10" fill="#D1F3FF"></path>
                            <rect id="Rectangle-11" fill="#FFFFFF" x="8" y="41" width="7" height="23"></rect>
                            <rect id="Rectangle-11" fill="#FFFFFF" x="8" y="16" width="7" height="13"></rect>
                            <path d="M70.7708333,23.1 C71.6793333,23.1 72.4166667,22.3608 72.4166667,21.45 L72.4166667,14.85 C72.4166667,13.9392 71.6793333,13.2 70.7708333,13.2 C69.8623333,13.2 69.125,13.9392 69.125,14.85 L69.125,21.45 C69.125,22.3608 69.8623333,23.1 70.7708333,23.1 M70.7708333,11.55 C71.6793333,11.55 72.4166667,10.8108 72.4166667,9.9 C72.4166667,8.08005 70.9403542,6.6 69.125,6.6 C68.2165,6.6 67.4791667,7.33755 67.4791667,8.25 C67.4791667,9.1608 68.2165,9.89835 69.125,9.89835 L69.125,9.9 C69.125,10.8108 69.8623333,11.55 70.7708333,11.55 M11.5208333,62.7 C12.4276875,62.7 13.1666667,61.95915 13.1666667,61.05 L13.1666667,44.55 C13.1666667,43.64085 12.4276875,42.9 11.5208333,42.9 C10.6139792,42.9 9.875,43.64085 9.875,44.55 L9.875,61.05 C9.875,61.95915 10.6139792,62.7 11.5208333,62.7 M11.5208333,66 C8.798625,66 6.58333333,63.7791 6.58333333,61.05 L6.58333333,44.55 C6.58333333,41.8209 8.798625,39.6 11.5208333,39.6 C14.2430417,39.6 16.4583333,41.8209 16.4583333,44.55 L16.4583333,61.05 C16.4583333,63.7791 14.2430417,66 11.5208333,66 M11.5208333,16.5 C10.6139792,16.5 9.875,17.24085 9.875,18.15 L9.875,24.75 C9.875,25.65915 10.6139792,26.4 11.5208333,26.4 C12.4276875,26.4 13.1666667,25.65915 13.1666667,24.75 L13.1666667,18.15 C13.1666667,17.24085 12.4276875,16.5 11.5208333,16.5 M11.5208333,13.2 C14.2430417,13.2 16.4583333,15.4209 16.4583333,18.15 L16.4583333,24.75 C16.4583333,27.4791 14.2430417,29.7 11.5208333,29.7 C8.798625,29.7 6.58333333,27.4791 6.58333333,24.75 L6.58333333,18.15 C6.58333333,15.4209 8.798625,13.2 11.5208333,13.2 M79,8.25 L79,84.15 C79,88.13475 76.1675208,91.46775 72.4166667,92.23335 L72.4166667,97.35 C72.4166667,98.2608 71.6793333,99 70.7708333,99 L8.22916667,99 C7.32066667,99 6.58333333,98.2608 6.58333333,97.35 L6.58333333,92.23335 C2.83247917,91.4661 0,88.13475 0,84.15 L0,41.25 C0,40.3392 0.737333333,39.6 1.64583333,39.6 C2.55433333,39.6 3.29166667,40.3392 3.29166667,41.25 L3.29166667,84.15 C3.29166667,86.8791 5.50695833,89.1 8.22916667,89.1 L64.1875,89.1 C65.096,89.1 65.8333333,89.8392 65.8333333,90.75 C65.8333333,91.6608 65.096,92.4 64.1875,92.4 L9.875,92.4 L9.875,95.7 L69.125,95.7 L69.125,90.75 C69.125,89.8392 69.8623333,89.1 70.7708333,89.1 C73.4930417,89.1 75.7083333,86.8791 75.7083333,84.15 L75.7083333,8.25 C75.7083333,5.5209 73.4930417,3.3 70.7708333,3.3 L8.22916667,3.3 C5.50695833,3.3 3.29166667,5.5209 3.29166667,8.25 L3.29166667,33 L70.7708333,33 C71.6793333,33 72.4166667,33.7392 72.4166667,34.65 C72.4166667,35.5608 71.6793333,36.3 70.7708333,36.3 L1.64583333,36.3 C0.737333333,36.3 0,35.5608 0,34.65 L0,8.25 C0,3.70095 3.69160417,0 8.22916667,0 L70.7708333,0 C75.3083958,0 79,3.70095 79,8.25" id="fridge" fill="#000000"></path>
                        </g>
                    </g>
                </g>
            </g>
            <g>
                <g id="Group">
                    <g id="Group-8" transform="translate(618.000000, 64.000000)">
                        <path d="M8.00000009,7 L8.00000012,189.043945" id="Path-2" stroke="#000000" stroke-width="4"></path>
                        <path d="M8.00000012,285 L8.00000012,470.002823" id="Path-2" stroke="#000000" stroke-width="4"></path>
                        <circle id="Oval-2" fill="#000000" cx="7.5" cy="7.5" r="7.5"></circle>
                        <circle id="Oval-2" fill="#000000" cx="7.5" cy="469.5" r="7.5"></circle>
                    </g>
                    <g id="Group-8" transform="translate(108.000000, 64.000000)">
                        <path d="M8.00000009,7 L8.00000012,191" id="Path-2" stroke="#000000" stroke-width="4"></path>
                        <path d="M8.00000012,287 L8.00000012,470.002823" id="Path-2" stroke="#000000" stroke-width="4"></path>
                        <circle id="Oval-2" fill="#000000" cx="7.5" cy="7.5" r="7.5"></circle>
                        <circle id="Oval-2" fill="#000000" cx="7.5" cy="469.5" r="7.5"></circle>
                    </g>
                    <g id="Group-8" transform="translate(370.500000, 301.500000) rotate(90.000000) translate(-370.500000, -301.500000) translate(69.000000, -25.000000)" stroke="#000000" stroke-width="4">
                        <path d="M72.0000001,68.997537 L72.0000001,279" id="Path-2"></path>
                        <path d="M-1.11022302e-16,0 L70.7106781,70.7106781" id="Path-2"></path>
                        <path d="M532,582 L602.710678,652.710678" id="Path-2"></path>
                        <path d="M72.0000001,370.978777 L72.0000001,583.022278" id="Path-2"></path>
                        <path d="M532,370.978775 L532,583.002823" id="Path-2"></path>
                        <path d="M532,70 L532,281.002365" id="Path-2"></path>
                    </g>
                </g>
                <rect id="blender" fill="#FFF6CA" x="618" y="255" width="17" height="5"></rect>
                <path d="M602,293 C600.996168,285.676206 602.690394,281.488291 601,276 C599.911793,272.46686 596.934362,277.055852 596,275 C593.970475,270.534488 594.694675,284.889243 593,283 C591.088316,280.868833 592.564343,294.131577 591,294 C589.748847,293.894765 591.238391,301.938522 590,303 C583,309 584.390249,309.967483 583,309 C579.010008,306.223341 587.683811,302.238858 585,297.834732 C581.938537,292.810879 588.209408,284.547598 587,281 C585.532833,276.696312 592,270 592,270 L664,270 L657,285 C657,285 654,279 651,295 C649.786519,301.471901 651.394252,316.781868 642,322 C640.865394,322.630229 648.94892,329.937339 651,338 C651.905054,341.557709 648.727799,346.563567 648,349 C646.792681,353.041709 634.968941,347.444416 632,350 C626.954453,354.343069 611.736544,347.99621 608,350 C602.870604,352.750732 605.520944,342.767587 603,343 C599.261627,343.344651 612.128893,328.343311 610,328 C607.974638,327.673385 614.570901,324.163304 613,324 C611.615581,323.856082 607,314 607,314 C607,314 603.254807,302.154859 602,293 Z" id="blender" fill="#FFF6CA"></path>
                <path d="M619.97439,259.666667 L633.266612,259.666667 L633.266612,256.333333 L619.97439,256.333333 L619.97439,259.666667 L619.97439,259.666667 Z M603.359111,261.333333 C603.359111,260.413333 604.101814,259.666667 605.020639,259.666667 L616.651334,259.666667 L616.651334,254.666667 C616.651334,253.746667 617.394037,253 618.312862,253 L634.92814,253 C635.846965,253 636.589668,253.746667 636.589668,254.666667 L636.589668,259.666667 L648.220363,259.666667 C649.139188,259.666667 649.881891,260.413333 649.881891,261.333333 C649.881891,262.253333 649.139188,263 648.220363,263 L605.020639,263 C604.101814,263 603.359111,262.253333 603.359111,261.333333 L603.359111,261.333333 L603.359111,261.333333 Z M666.354278,268.676667 L659.708166,283.676667 C659.334323,284.518333 658.354021,284.901667 657.51495,284.523333 C656.675878,284.148333 656.298711,283.165 656.670894,282.323333 L662.27855,269.666667 L591.992599,269.666667 C587.162538,281.235 585.369749,294.181667 583.922559,304.643333 L583.430746,308.165 C583.329393,308.868333 584.090373,309.538333 584.83806,309.666667 C586.157313,309.895 586.629187,308.466667 586.801986,307.6 C587.297122,305.143333 587.649365,302.288333 588.021548,299.268333 C588.885542,292.258333 589.962212,283.535 593.49462,274.081667 C593.738865,273.431667 594.358615,273 595.051472,273 C597.133366,273 600.534514,272.993333 601.059557,272.976667 C601.220725,272.96 601.375247,273 601.528108,273.035 C601.587923,273.028333 601.637768,273 601.697583,273 C602.616408,273 603.359111,273.746667 603.359111,274.666667 C603.359111,307.078333 609.77427,320.46 609.83907,320.59 C610.623311,322.64 611.665089,323 613.336586,323 L619.720176,323 L616.667949,301.57 C616.53835,300.658333 617.169731,299.813333 618.076925,299.683333 C618.985781,299.546667 619.828175,300.186667 619.957774,301.096667 L623.076462,323 L630.16454,323 L633.283228,301.096667 C633.412827,300.186667 634.256883,299.553333 635.164077,299.683333 C636.071271,299.813333 636.702652,300.658333 636.573053,301.57 L633.51418,323.05 C634.310052,323.173333 634.92814,323.833333 634.92814,324.666667 C634.92814,325.586667 634.185437,326.333333 633.266612,326.333333 L613.328278,326.333333 C611.79635,326.333333 610.560173,327.175 609.849039,328.705 L603.13979,340.493333 C602.930437,340.843333 602.966991,341.236667 603.224527,341.696667 C603.658186,342.465 604.517196,343 605.020639,343 L641.574252,343 C642.493076,343 643.235779,343.746667 643.235779,344.666667 C643.235779,345.586667 642.493076,346.333333 641.574252,346.333333 L606.682167,346.333333 L606.682167,349.666667 L646.558835,349.666667 L646.558835,344.666667 C646.558835,343.746667 647.301538,343 648.220363,343 C648.720483,343 649.544601,342.513333 649.974936,341.791667 C650.406934,341.068333 650.159366,340.605 650.077951,340.455 L643.446793,328.828333 C642.586122,327.073333 641.509452,326.333333 639.904416,326.333333 C638.985591,326.333333 638.242888,325.586667 638.242888,324.666667 C638.242888,323.748333 638.98393,323.003333 639.899432,323 L639.904416,323 C641.120654,323 642.69246,322.616667 643.328825,320.785 C643.352086,320.716667 643.380332,320.651667 643.41024,320.588333 C643.475039,320.46 649.881891,307.078333 649.881891,274.666667 C649.881891,273.746667 650.624594,273 651.543419,273 C652.462244,273 653.204946,273.746667 653.204946,274.666667 C653.204946,306.905 647.087201,320.603333 646.430897,321.98 C646.025485,323.096667 645.37915,324.028333 644.545063,324.738333 C645.266166,325.4 645.882593,326.245 646.382713,327.266667 L652.985625,338.838333 C653.783158,340.326667 653.716697,342.013333 652.826118,343.503333 C652.136584,344.66 651.054929,345.556667 649.881891,346.008333 L649.881891,351.333333 C649.881891,352.253333 649.139188,353 648.220363,353 L605.020639,353 C604.101814,353 603.359111,352.253333 603.359111,351.333333 L603.359111,345.985 C602.146196,345.501667 601.016357,344.551667 600.331807,343.335 C599.476121,341.818333 599.456182,340.166667 600.275316,338.805 L606.901489,327.173333 C607.33847,326.23 607.943267,325.42 608.671016,324.77 C607.963205,324.136667 607.313547,323.253333 606.82672,322 C606.22857,320.755 600.252054,307.511667 600.046025,276.31 C599.506028,276.321667 598.897909,276.328333 598.140252,276.33 L596.21288,276.331667 C593.132407,284.981667 592.172044,292.771667 591.31968,299.676667 C590.937529,302.763333 590.580301,305.676667 590.060242,308.258333 C589.384001,311.62 587.19743,313.021667 585.090613,313.021667 C584.816461,313.021667 584.542308,312.998333 584.274802,312.951667 C581.646265,312.498333 579.790339,310.138333 580.13926,307.693333 L580.62941,304.185 C582.148047,293.218333 584.037204,279.57 589.375693,267.331667 C589.639876,266.725 590.238026,266.333333 590.897652,266.333333 L664.835641,266.333333 C665.398899,266.333333 665.922281,266.618333 666.229663,267.091667 C666.535384,267.565 666.583569,268.161667 666.354278,268.676667 L666.354278,268.676667 L666.354278,268.676667 Z" id="blender" fill="#000000"></path>
            </g>
        </g>
    </g>
</svg>