<?xml version="1.0" encoding="UTF-8" standalone="no"?>
<svg width="78px" height="106px" viewBox="0 0 78 106" version="1.1" xmlns="http://www.w3.org/2000/svg" xmlns:xlink="http://www.w3.org/1999/xlink">
    <!-- Generator: Sketch 39.1 (31720) - http://www.bohemiancoding.com/sketch -->
    <title>voltmeter</title>
    <desc>Created with Sketch.</desc>
    <defs></defs>
    <g id="Page-1" stroke="none" stroke-width="1" fill="none" fill-rule="evenodd">
        <g id="voltmeter" fill="#000000">
            <path d="M78,8.83333333 L78,97.1666667 C78,102.037367 74.0237727,106 69.1363636,106 C68.1560455,106 67.3636364,105.208533 67.3636364,104.233333 C67.3636364,103.258133 68.1560455,102.466667 69.1363636,102.466667 C72.0684545,102.466667 74.4545455,100.088733 74.4545455,97.1666667 L74.4545455,8.83333333 C74.4545455,5.91126667 72.0684545,3.53333333 69.1363636,3.53333333 L8.86363636,3.53333333 C5.93154545,3.53333333 3.54545455,5.91126667 3.54545455,8.83333333 L3.54545455,97.1666667 C3.54545455,100.088733 5.93154545,102.466667 8.86363636,102.466667 L62.0454545,102.466667 C63.0257727,102.466667 63.8181818,103.258133 63.8181818,104.233333 C63.8181818,105.208533 63.0257727,106 62.0454545,106 L8.86363636,106 C3.97622727,106 0,102.037367 0,97.1666667 L0,8.83333333 C0,3.96263333 3.97622727,0 8.86363636,0 L69.1363636,0 C74.0237727,0 78,3.96263333 78,8.83333333 L78,8.83333333 L78,8.83333333 Z M39,49.4666667 C36.0679091,49.4666667 33.6818182,47.0887333 33.6818182,44.1666667 C33.6818182,41.2446 36.0679091,38.8666667 39,38.8666667 C41.9320909,38.8666667 44.3181818,41.2446 44.3181818,44.1666667 C44.3181818,47.0887333 41.9320909,49.4666667 39,49.4666667 L39,49.4666667 L39,49.4666667 Z M39,45.9333333 C39.9785455,45.9333333 40.7727273,45.1401 40.7727273,44.1666667 C40.7727273,43.1932333 39.9785455,42.4 39,42.4 C38.0214545,42.4 37.2272727,43.1932333 37.2272727,44.1666667 C37.2272727,45.1401 38.0214545,45.9333333 39,45.9333333 L39,45.9333333 L39,45.9333333 Z M60.2727273,44.1666667 C60.2727273,47.0887333 57.8866364,49.4666667 54.9545455,49.4666667 C52.0224545,49.4666667 49.6363636,47.0887333 49.6363636,44.1666667 C49.6363636,41.2446 52.0224545,38.8666667 54.9545455,38.8666667 C57.8866364,38.8666667 60.2727273,41.2446 60.2727273,44.1666667 L60.2727273,44.1666667 L60.2727273,44.1666667 Z M56.7272727,44.1666667 C56.7272727,43.1932333 55.9330909,42.4 54.9545455,42.4 C53.976,42.4 53.1818182,43.1932333 53.1818182,44.1666667 C53.1818182,45.1401 53.976,45.9333333 54.9545455,45.9333333 C55.9330909,45.9333333 56.7272727,45.1401 56.7272727,44.1666667 L56.7272727,44.1666667 L56.7272727,44.1666667 Z M17.7272727,44.1666667 C17.7272727,41.2446 20.1133636,38.8666667 23.0454545,38.8666667 C25.9775455,38.8666667 28.3636364,41.2446 28.3636364,44.1666667 C28.3636364,47.0887333 25.9775455,49.4666667 23.0454545,49.4666667 C20.1133636,49.4666667 17.7272727,47.0887333 17.7272727,44.1666667 L17.7272727,44.1666667 L17.7272727,44.1666667 Z M21.2727273,44.1666667 C21.2727273,45.1401 22.0669091,45.9333333 23.0454545,45.9333333 C24.024,45.9333333 24.8181818,45.1401 24.8181818,44.1666667 C24.8181818,43.1932333 24.024,42.4 23.0454545,42.4 C22.0669091,42.4 21.2727273,43.1932333 21.2727273,44.1666667 L21.2727273,44.1666667 L21.2727273,44.1666667 Z M60.2727273,12.3666667 C60.2727273,11.3914667 59.4803182,10.6 58.5,10.6 L19.5,10.6 C18.5196818,10.6 17.7272727,11.3914667 17.7272727,12.3666667 L17.7272727,33.5666667 C17.7272727,34.5418667 18.5196818,35.3333333 19.5,35.3333333 L39,35.3333333 C39.6435,35.3333333 40.2373636,34.9853 40.5511364,34.4235 C40.8631364,33.8617 40.8454091,33.1744667 40.5032727,32.6303333 L31.6396364,18.497 C31.122,17.6684333 30.03,17.4158 29.1968182,17.9352 C28.3671818,18.4528333 28.1136818,19.5411 28.6330909,20.3696667 L35.8002273,31.8 L21.2727273,31.8 L21.2727273,14.1333333 L56.7272727,14.1333333 L56.7272727,31.8 L46.0909091,31.8 C45.1105909,31.8 44.3181818,32.5914667 44.3181818,33.5666667 C44.3181818,34.5418667 45.1105909,35.3333333 46.0909091,35.3333333 L58.5,35.3333333 C59.4803182,35.3333333 60.2727273,34.5418667 60.2727273,33.5666667 L60.2727273,12.3666667 L60.2727273,12.3666667 L60.2727273,12.3666667 Z M55.9100455,79.5 C55.6973182,80.1695667 55.4367273,80.8179333 55.1477727,81.4521667 L56.7733636,82.3867333 C57.6225,82.8743333 57.9132273,83.9537667 57.4239545,84.8 C57.0942273,85.3671 56.4985909,85.6833333 55.8852273,85.6833333 C55.5856364,85.6833333 55.2807273,85.6073667 55.0006364,85.4466 L53.3679545,84.5085 C52.2511364,86.0508 50.8914545,87.4040667 49.3420909,88.5188333 L50.2851818,90.1459333 C50.7762273,90.9921667 50.4837273,92.0716 49.6363636,92.5609667 C49.3580455,92.7199667 49.0531364,92.7959333 48.7517727,92.7959333 C48.1384091,92.7959333 47.5427727,92.4797 47.2148182,91.9126 L46.2752727,90.2925667 C44.5663636,91.0628333 42.7191818,91.584 40.7727273,91.7765667 L40.7727273,93.6333333 C40.7727273,94.6085333 39.9803182,95.4 39,95.4 C38.0196818,95.4 37.2272727,94.6085333 37.2272727,93.6333333 L37.2272727,91.7765667 C35.2808182,91.584 33.4336364,91.0628333 31.7229545,90.2925667 L30.7851818,91.9126 C30.4572273,92.4797 29.8615909,92.7959333 29.2482273,92.7959333 C28.9468636,92.7959333 28.6419545,92.7199667 28.3636364,92.5609667 C27.5162727,92.0733667 27.2237727,90.9921667 27.7148182,90.1459333 L28.6579091,88.5188333 C27.1085455,87.4040667 25.7488636,86.0508 24.6320455,84.5067333 L22.9993636,85.4466 C22.7192727,85.6073667 22.4161364,85.6833333 22.1147727,85.6833333 C21.5014091,85.6833333 20.9057727,85.3671 20.5760455,84.8 C20.0867727,83.9555333 20.3775,82.8743333 21.2266364,82.3867333 L22.8522273,81.4504 C22.0793182,79.7473333 21.5563636,77.9064667 21.3631364,75.9666667 L19.5,75.9666667 C18.5196818,75.9666667 17.7272727,75.1752 17.7272727,74.2 C17.7272727,73.2248 18.5196818,72.4333333 19.5,72.4333333 L21.3631364,72.4333333 C21.5563636,70.4935333 22.0793182,68.6526667 22.8522273,66.9496 L21.2266364,66.0132667 C20.3775,65.5256667 20.0867727,64.4444667 20.5760455,63.6 C21.0670909,62.7537667 22.1502273,62.4658 22.9993636,62.9534 L24.6338182,63.8915 C25.7488636,62.3492 27.1085455,60.9959333 28.6579091,59.8811667 L27.7148182,58.2540667 C27.2237727,57.4096 27.5162727,56.3284 28.3636364,55.8390333 C29.2092273,55.3514333 30.2941364,55.6411667 30.7851818,56.4874 L31.7229545,58.1074333 C33.4336364,57.3371667 35.2808182,56.816 37.2272727,56.6234333 L37.2272727,54.7666667 C37.2272727,53.7914667 38.0196818,53 39,53 C39.9803182,53 40.7727273,53.7914667 40.7727273,54.7666667 L40.7727273,56.6234333 C42.7191818,56.816 44.5663636,57.3371667 46.2752727,58.1074333 L47.2148182,56.4874 C47.7040909,55.6411667 48.7907727,55.3514333 49.6363636,55.8390333 C50.4837273,56.3284 50.7762273,57.4078333 50.2851818,58.2540667 L49.3420909,59.8811667 C50.8914545,60.9959333 52.2511364,62.3492 53.3679545,63.8915 L55.0006364,62.9534 C55.8462273,62.4658 56.9311364,62.7537667 57.4239545,63.6 C57.9132273,64.4444667 57.6225,65.5256667 56.7733636,66.0132667 L55.1477727,66.9478333 C56.1546818,69.165 56.7272727,71.6153667 56.7272727,74.2 C56.7272727,74.7953667 56.6953636,75.3854333 56.6368636,75.9666667 L58.5,75.9666667 C59.4803182,75.9666667 60.2727273,76.7581333 60.2727273,77.7333333 C60.2727273,78.7085333 59.4803182,79.5 58.5,79.5 L55.9100455,79.5 L55.9100455,79.5 L55.9100455,79.5 Z M53.1818182,74.2 C53.1818182,66.4072333 46.8195,60.0666667 39,60.0666667 C31.1822727,60.0666667 24.8217273,66.4037 24.8181818,74.1929333 C24.8181818,74.1964667 24.8199545,74.1964667 24.8199545,74.2 C24.8199545,74.2017667 24.8181818,74.2035333 24.8181818,74.2070667 C24.8217273,81.9963 31.1805,88.3315667 38.9964545,88.3333333 C38.9982273,88.3333333 38.9982273,88.3315667 39,88.3315667 C39.0017727,88.3315667 39.0017727,88.3333333 39.0035455,88.3333333 C46.8212727,88.3315667 53.1818182,81.9927667 53.1818182,74.2 L53.1818182,74.2 L53.1818182,74.2 Z" id="ampere-meter"></path>
            <text id="V" font-family="Roboto-Bold, Roboto" font-size="23" font-weight="bold">
                <tspan x="31.6833496" y="83">V</tspan>
            </text>
        </g>
    </g>
</svg>